<svg xmlns="http://www.w3.org/2000/svg" viewBox="0 0 600 300"><style type="text/css">.st0{fill:#EDF0F4;} .st1{fill:#58595B;} .st2{fill:none;stroke:#414042;stroke-width:1.5;stroke-miterlimit:10;} .st3{fill:#FFFFFF;} .st4{opacity:0.3;fill:#414042;} .st5{fill:#BCBEC0;} .st6{fill:#3F51B5;} .st7{fill:#E6E7E8;} .st8{fill:#F1F2F2;} .st9{fill:#6D6E71;} .st10{font-family:&apos;Helvetica-Bold&apos;;} .st11{font-size:33.5395px;} .st12{fill:none;stroke:#414042;stroke-width:1.5;stroke-linecap:round;stroke-miterlimit:10;} .st13{fill:#414042;} .st14{fill:none;stroke:#263238;stroke-width:2;stroke-linecap:round;stroke-linejoin:round;stroke-miterlimit:10;}</style><g id="XMLID_59_"><path id="XMLID_10_" class="st0 KVltLWAi_0" d="M70.7 57.6l495.2 1.4c12 0 21.8 9.8 21.8 21.9 0 12.1-9.8 21.9-21.9 21.9h-107.6c-9.5 0-17.3 7.7-17.3 17.3 0 9.5 7.7 17.3 17.3 17.3h69.3c11.8 0 21.4 9.6 21.4 21.4 0 11.8-9.6 21.4-21.4 21.4h-128.3v60h179.4c11.8 0 21.4 9.6 21.4 21.4 0 11.8-9.6 21.4-21.4 21.4l-467.6-.1c-11.2 0-20.4-9.1-20.4-20.4 0-11.2 9.1-20.4 20.4-20.4h106.4v-31.5h-191c-14.6.1-26.4-11.7-26.4-26.2 0-14.6 11.8-26.4 26.4-26.4h156.9c9.4 0 17-7.6 17-17s-7.6-17-17-17h-23.2c-15.5 0-28-12.5-28-28h-61.4c-10.6 0-19.2-8.6-19.2-19.2 0-10.7 8.6-19.3 19.2-19.2z"/><g id="XMLID_783_"><path id="XMLID_802_" class="st1 KVltLWAi_1" d="M510 274.1h-219.5c-.6 0-1-.4-1-1v-157.2c0-.6.4-1 1-1h219.5c.5 0 1 .4 1 1v157.2c0 .6-.4 1-1 1z"/><path id="XMLID_801_" class="st2 KVltLWAi_2" d="M315 114.9h12.4"/><path id="XMLID_12_" class="st2 KVltLWAi_3" d="M511 268.6c0 3-2.5 5.5-5.5 5.5h-210.5c-3 0-5.5-2.5-5.5-5.5v-148.2c0-3 2.5-5.5 5.5-5.5h13.3"/><path id="XMLID_11_" class="st2 KVltLWAi_4" d="M406.4 114.9h99.1c3 0 5.5 2.5 5.5 5.5v14.3"/><path id="XMLID_799_" class="st3 KVltLWAi_5" d="M300.2 127.4h198.8v129.2h-198.8z"/><path id="XMLID_798_" class="st3 KVltLWAi_6" d="M507.1 282.9h-216.2c-5.2 0-9.6-3.8-10.5-8.9l-1.5-9.4h100.2l3.8 5.5h27.7l4.1-5.5h105.6l-1.3 8.2c-.9 5.9-6 10.1-11.9 10.1z"/><path id="XMLID_14_" class="st2 KVltLWAi_7" d="M507.1 282.9h-216.2c-5.2 0-9.6-3.8-10.5-8.9l-1.5-9.4"/><path id="XMLID_13_" class="st2 KVltLWAi_8" d="M405.8 270.2h4.8l4.2-5.5h85.5"/></g><path id="XMLID_153_" class="st4 KVltLWAi_9" d="M404 282.9l4.3.1v-170.3h-1.8v2.1h-79v-2.1h-12.5v2.1h-6.7v-2.1h-13.3c-4.2 0-7.7 3.4-7.7 7.6v144.3h-6.2l-.1-.3-2.1.3-2.1.3 1.5 9.4c.6 3.6 2.7 6.6 5.5 8.5h23.2l97 .1z"/><g id="XMLID_117_"><path id="XMLID_132_" class="st5 KVltLWAi_10" d="M400.4 282.9v-223.8c0-6.1-4.9-11-11-11h-162.7c-6.1 0-11 4.9-11 11v223.8h184.7z"/><path id="XMLID_131_" class="st3 KVltLWAi_11" d="M385.3 282.9v-223.8c0-6.1-4.2-11-9.3-11h-138c-5.2 0-9.3 4.9-9.3 11v223.8h156.6z"/><path id="XMLID_130_" class="st5 KVltLWAi_12" d="M215.7 76.7v-19.3c0-5.1 4.1-9.3 9.3-9.3h166.2c5.1 0 9.3 4.1 9.3 9.3v19.3h-184.8z"/><path id="XMLID_129_" class="st2 KVltLWAi_13" d="M215.7 151.8v-94.4c0-5.1 4.1-9.3 9.3-9.3h24.5"/><path id="XMLID_128_" class="st2 KVltLWAi_14" d="M281.6 48.1h109.6c5.1 0 9.3 4.1 9.3 9.3v225.6"/><path id="XMLID_127_" class="st2 KVltLWAi_15" d="M258.4 48.1h12.7"/><path id="XMLID_126_" class="st2 KVltLWAi_16" d="M215.7 77.2h184.7"/><path id="XMLID_125_" class="st2 KVltLWAi_17" d="M236.9 64h4.3"/><path id="XMLID_124_" class="st2 KVltLWAi_18" d="M249.4 64h4.3"/><path id="XMLID_123_" class="st2 KVltLWAi_19" d="M261.8 64h4.3"/><path id="XMLID_122_" class="st6 KVltLWAi_20" d="M240.4 98.5h135.2v53.3h-135.2z"/><path id="XMLID_121_" class="st7 KVltLWAi_21" d="M240.4 185.7h41.1v53.3h-41.1z"/><path id="XMLID_120_" class="st8 KVltLWAi_22" d="M287.5 185.7h41.1v53.3h-41.1z"/><path id="XMLID_119_" class="st7 KVltLWAi_23" d="M334.5 185.7h41.1v53.3h-41.1z"/><path id="XMLID_118_" class="st2 KVltLWAi_24" d="M279.3 168.7h57.5"/></g><g id="XMLID_494_"><g id="XMLID_502_"><path id="XMLID_512_" class="st2 KVltLWAi_25" d="M513.1 218v16.5"/><path id="XMLID_509_" class="st9 KVltLWAi_26" d="M513.1 140.5c-22 0-39.8 17.8-39.8 39.8 0 22 17.8 39.8 39.8 39.8 22 0 39.8-17.8 39.8-39.8 0-22-17.8-39.8-39.8-39.8zm0 70c-16.7 0-30.2-13.5-30.2-30.2s13.5-30.2 30.2-30.2 30.2 13.5 30.2 30.2c.1 16.7-13.5 30.2-30.2 30.2z"/><path id="XMLID_508_" class="st2 KVltLWAi_27" d="M513.1 140.5c-22 0-39.8 17.8-39.8 39.8 0 22 17.8 39.8 39.8 39.8 22 0 39.8-17.8 39.8-39.8 0-22-17.8-39.8-39.8-39.8z"/><path id="XMLID_507_" class="st2 KVltLWAi_28" d="M509.3 154.9c15.1 0 27.3 12.2 27.3 27.3"/><path id="XMLID_506_" class="st6 KVltLWAi_29" d="M505.2 229.7h15.7v52.7h-15.7z"/><path id="XMLID_505_" class="st2 KVltLWAi_30" d="M521 255.5v-25.8h-15.7v48.7c0 2.2 1.8 4 4 4h7.7c2.2 0 4-1.8 4-4v-7.4"/><path id="XMLID_504_" class="st2 KVltLWAi_31" d="M521 267.8v-8.3"/><path id="XMLID_503_" class="st2 KVltLWAi_32" d="M504.9 241h16.5"/></g><path id="XMLID_501_" class="st2 KVltLWAi_33" d="M447.3 152.9h24.9"/><path id="XMLID_500_" class="st2 KVltLWAi_34" d="M447.3 166.5h19.7"/><path id="XMLID_499_" class="st2 KVltLWAi_35" d="M417.5 180.2h49.5"/><path id="XMLID_498_" class="st2 KVltLWAi_36" d="M417.2 193.9h49.8"/><path id="XMLID_497_" class="st2 KVltLWAi_37" d="M417.2 207.6h55"/><path id="XMLID_496_" class="st2 KVltLWAi_38" d="M417.2 221.2h72.3"/><text id="XMLID_495_" transform="translate(418.405 170.262)" class="st6 st10 st11">A</text></g><path id="XMLID_4_" class="st2 KVltLWAi_39" d="M90 282.9h468.6"/><path id="XMLID_9_" class="st2 KVltLWAi_40" d="M76.9 282.9h7.8"/><path id="XMLID_15_" class="st2 KVltLWAi_41" d="M563.1 282.9h17.3"/><g id="XMLID_18_"><path id="XMLID_19_" class="st12 KVltLWAi_42" d="M438.1 55.7h12.2"/><path id="XMLID_20_" class="st12 KVltLWAi_43" d="M444.2 61.8v-12.3"/></g><g id="XMLID_29_"><path id="XMLID_31_" class="st12 KVltLWAi_44" d="M70.8 137.2h12.2"/><path id="XMLID_30_" class="st12 KVltLWAi_45" d="M76.9 143.3v-12.2"/></g><g id="XMLID_21_"><path id="XMLID_23_" class="st12 KVltLWAi_46" d="M174.9 33.1l8.6-8.7"/><path id="XMLID_22_" class="st12 KVltLWAi_47" d="M183.5 33.1l-8.6-8.7"/></g><g id="XMLID_32_"><path id="XMLID_34_" class="st12 KVltLWAi_48" d="M567.4 214.2l8.7-8.6"/><path id="XMLID_33_" class="st12 KVltLWAi_49" d="M576.1 214.2l-8.7-8.6"/></g><path id="XMLID_24_" class="st2 KVltLWAi_50" d="M204 28.8h49.8"/><path id="XMLID_35_" class="st2 KVltLWAi_51" d="M243.4 17h132.3"/><path id="XMLID_45_" class="st2 KVltLWAi_52" d="M58.2 227.6h62.1"/><path id="XMLID_27_" class="st2 KVltLWAi_53" d="M516.1 114.9h49.9"/><path id="XMLID_28_" class="st2 KVltLWAi_54" d="M580.4 114.9h-8.6"/><path id="XMLID_25_" class="st2 KVltLWAi_55" d="M268.3 28.8h-10.2"/><path id="XMLID_26_" class="st2 KVltLWAi_56" d="M98.1 137.2h49.8"/><path id="XMLID_36_" class="st2 KVltLWAi_57" d="M162.4 137.2h-10.3"/><path id="XMLID_37_" class="st13 KVltLWAi_58" d="M417.3 33.6c0 1.7-1.4 3.1-3.1 3.1-1.7 0-3.1-1.4-3.1-3.1 0-1.7 1.4-3.1 3.1-3.1 1.8 0 3.1 1.4 3.1 3.1z"/><path id="XMLID_40_" class="st13 KVltLWAi_59" d="M117.4 64c0 1.7-1.4 3.1-3.1 3.1-1.7 0-3.1-1.4-3.1-3.1 0-1.7 1.4-3.1 3.1-3.1 1.8 0 3.1 1.4 3.1 3.1z"/><path id="XMLID_48_" class="st13 KVltLWAi_60" d="M476.4 98.5c0 1.7-1.4 3.1-3.1 3.1-1.7 0-3.1-1.4-3.1-3.1 0-1.7 1.4-3.1 3.1-3.1 1.7 0 3.1 1.4 3.1 3.1z"/><path id="XMLID_44_" class="st13 KVltLWAi_61" d="M569.1 154.9c0 1.7-1.4 3.1-3.1 3.1-1.7 0-3.1-1.4-3.1-3.1 0-1.7 1.4-3.1 3.1-3.1 1.7 0 3.1 1.4 3.1 3.1z"/></g><path class="st14 KVltLWAi_62" d="M179.9 271.3l19.7-19.7c1-1 1-2.6 0-3.5l-43-43c-1-1-2.6-1-3.5 0l-19.7 19.7c-1 1-1 2.6 0 3.5l43 43c1 1 2.6 1 3.5 0z"/><path class="st14 KVltLWAi_63" d="M264.3 180.8c-3.5-4.3-9.8-4.5-13.6-.7 3.6-3.6 3.6-9.4 0-12.9-3.6-3.6-9.4-3.6-12.9 0 3.6-3.6 3.6-9.4 0-12.9-3.6-3.6-9.4-3.6-12.9 0l27.2-27.2c3.6-3.6 3.6-9.4 0-12.9-3.6-3.6-9.4-3.6-12.9 0l-40.2 40v-18.3c0-5-4.1-9.1-9.1-9.1-4.3 0-8 3-8.9 7.2l-9.5 44.1c-.6 3-1.6 6-2.7 8.9l-8.6 21.5 36.2 36.2 15.4-6.2c6.9-2.8 13.2-6.9 18.4-12.1l33.1-33.1c3.4-3.3 4-8.8 1-12.5z"/><path class="st14 KVltLWAi_64" d="M237.8 167.2l-7.8 7.7"/><path class="st14 KVltLWAi_65" d="M250.7 180.1l-7.7 7.8"/><path class="st14 KVltLWAi_66" d="M224.9 154.2l-7.8 7.8"/><style>.KVltLWAi_0{stroke-dasharray:2641 2643;stroke-dashoffset:2642;animation:KVltLWAi_draw 2000ms ease 0ms forwards;}.KVltLWAi_1{stroke-dasharray:760 762;stroke-dashoffset:761;animation:KVltLWAi_draw 2000ms ease 15ms forwards;}.KVltLWAi_2{stroke-dasharray:13 15;stroke-dashoffset:14;animation:KVltLWAi_draw 2000ms ease 30ms forwards;}.KVltLWAi_3{stroke-dasharray:398 400;stroke-dashoffset:399;animation:KVltLWAi_draw 2000ms ease 45ms forwards;}.KVltLWAi_4{stroke-dasharray:123 125;stroke-dashoffset:124;animation:KVltLWAi_draw 2000ms ease 60ms forwards;}.KVltLWAi_5{stroke-dasharray:656 658;stroke-dashoffset:657;animation:KVltLWAi_draw 2000ms ease 75ms forwards;}.KVltLWAi_6{stroke-dasharray:514 516;stroke-dashoffset:515;animation:KVltLWAi_draw 2000ms ease 90ms forwards;}.KVltLWAi_7{stroke-dasharray:241 243;stroke-dashoffset:242;animation:KVltLWAi_draw 2000ms ease 106ms forwards;}.KVltLWAi_8{stroke-dasharray:98 100;stroke-dashoffset:99;animation:KVltLWAi_draw 2000ms ease 121ms forwards;}.KVltLWAi_9{stroke-dasharray:604 606;stroke-dashoffset:605;animation:KVltLWAi_draw 2000ms ease 136ms forwards;}.KVltLWAi_10{stroke-dasharray:830 832;stroke-dashoffset:831;animation:KVltLWAi_draw 2000ms ease 151ms forwards;}.KVltLWAi_11{stroke-dasharray:775 777;stroke-dashoffset:776;animation:KVltLWAi_draw 2000ms ease 166ms forwards;}.KVltLWAi_12{stroke-dasharray:419 421;stroke-dashoffset:420;animation:KVltLWAi_draw 2000ms ease 181ms forwards;}.KVltLWAi_13{stroke-dasharray:134 136;stroke-dashoffset:135;animation:KVltLWAi_draw 2000ms ease 196ms forwards;}.KVltLWAi_14{stroke-dasharray:350 352;stroke-dashoffset:351;animation:KVltLWAi_draw 2000ms ease 212ms forwards;}.KVltLWAi_15{stroke-dasharray:13 15;stroke-dashoffset:14;animation:KVltLWAi_draw 2000ms ease 227ms forwards;}.KVltLWAi_16{stroke-dasharray:185 187;stroke-dashoffset:186;animation:KVltLWAi_draw 2000ms ease 242ms forwards;}.KVltLWAi_17{stroke-dasharray:5 7;stroke-dashoffset:6;animation:KVltLWAi_draw 2000ms ease 257ms forwards;}.KVltLWAi_18{stroke-dasharray:5 7;stroke-dashoffset:6;animation:KVltLWAi_draw 2000ms ease 272ms forwards;}.KVltLWAi_19{stroke-dasharray:5 7;stroke-dashoffset:6;animation:KVltLWAi_draw 2000ms ease 287ms forwards;}.KVltLWAi_20{stroke-dasharray:377 379;stroke-dashoffset:378;animation:KVltLWAi_draw 2000ms ease 303ms forwards;}.KVltLWAi_21{stroke-dasharray:189 191;stroke-dashoffset:190;animation:KVltLWAi_draw 2000ms ease 318ms forwards;}.KVltLWAi_22{stroke-dasharray:189 191;stroke-dashoffset:190;animation:KVltLWAi_draw 2000ms ease 333ms forwards;}.KVltLWAi_23{stroke-dasharray:189 191;stroke-dashoffset:190;animation:KVltLWAi_draw 2000ms ease 348ms forwards;}.KVltLWAi_24{stroke-dasharray:58 60;stroke-dashoffset:59;animation:KVltLWAi_draw 2000ms ease 363ms forwards;}.KVltLWAi_25{stroke-dasharray:17 19;stroke-dashoffset:18;animation:KVltLWAi_draw 2000ms ease 378ms forwards;}.KVltLWAi_26{stroke-dasharray:440 442;stroke-dashoffset:441;animation:KVltLWAi_draw 2000ms ease 393ms forwards;}.KVltLWAi_27{stroke-dasharray:251 253;stroke-dashoffset:252;animation:KVltLWAi_draw 2000ms ease 409ms forwards;}.KVltLWAi_28{stroke-dasharray:43 45;stroke-dashoffset:44;animation:KVltLWAi_draw 2000ms ease 424ms forwards;}.KVltLWAi_29{stroke-dasharray:137 139;stroke-dashoffset:138;animation:KVltLWAi_draw 2000ms ease 439ms forwards;}.KVltLWAi_30{stroke-dasharray:118 120;stroke-dashoffset:119;animation:KVltLWAi_draw 2000ms ease 454ms forwards;}.KVltLWAi_31{stroke-dasharray:9 11;stroke-dashoffset:10;animation:KVltLWAi_draw 2000ms ease 469ms forwards;}.KVltLWAi_32{stroke-dasharray:17 19;stroke-dashoffset:18;animation:KVltLWAi_draw 2000ms ease 484ms forwards;}.KVltLWAi_33{stroke-dasharray:25 27;stroke-dashoffset:26;animation:KVltLWAi_draw 2000ms ease 500ms forwards;}.KVltLWAi_34{stroke-dasharray:20 22;stroke-dashoffset:21;animation:KVltLWAi_draw 2000ms ease 515ms forwards;}.KVltLWAi_35{stroke-dasharray:50 52;stroke-dashoffset:51;animation:KVltLWAi_draw 2000ms ease 530ms forwards;}.KVltLWAi_36{stroke-dasharray:50 52;stroke-dashoffset:51;animation:KVltLWAi_draw 2000ms ease 545ms forwards;}.KVltLWAi_37{stroke-dasharray:55 57;stroke-dashoffset:56;animation:KVltLWAi_draw 2000ms ease 560ms forwards;}.KVltLWAi_38{stroke-dasharray:73 75;stroke-dashoffset:74;animation:KVltLWAi_draw 2000ms ease 575ms forwards;}.KVltLWAi_39{stroke-dasharray:469 471;stroke-dashoffset:470;animation:KVltLWAi_draw 2000ms ease 590ms forwards;}.KVltLWAi_40{stroke-dasharray:8 10;stroke-dashoffset:9;animation:KVltLWAi_draw 2000ms ease 606ms forwards;}.KVltLWAi_41{stroke-dasharray:18 20;stroke-dashoffset:19;animation:KVltLWAi_draw 2000ms ease 621ms forwards;}.KVltLWAi_42{stroke-dasharray:13 15;stroke-dashoffset:14;animation:KVltLWAi_draw 2000ms ease 636ms forwards;}.KVltLWAi_43{stroke-dasharray:13 15;stroke-dashoffset:14;animation:KVltLWAi_draw 2000ms ease 651ms forwards;}.KVltLWAi_44{stroke-dasharray:13 15;stroke-dashoffset:14;animation:KVltLWAi_draw 2000ms ease 666ms forwards;}.KVltLWAi_45{stroke-dasharray:13 15;stroke-dashoffset:14;animation:KVltLWAi_draw 2000ms ease 681ms forwards;}.KVltLWAi_46{stroke-dasharray:13 15;stroke-dashoffset:14;animation:KVltLWAi_draw 2000ms ease 696ms forwards;}.KVltLWAi_47{stroke-dasharray:13 15;stroke-dashoffset:14;animation:KVltLWAi_draw 2000ms ease 712ms forwards;}.KVltLWAi_48{stroke-dasharray:13 15;stroke-dashoffset:14;animation:KVltLWAi_draw 2000ms ease 727ms forwards;}.KVltLWAi_49{stroke-dasharray:13 15;stroke-dashoffset:14;animation:KVltLWAi_draw 2000ms ease 742ms forwards;}.KVltLWAi_50{stroke-dasharray:50 52;stroke-dashoffset:51;animation:KVltLWAi_draw 2000ms ease 757ms forwards;}.KVltLWAi_51{stroke-dasharray:133 135;stroke-dashoffset:134;animation:KVltLWAi_draw 2000ms ease 772ms forwards;}.KVltLWAi_52{stroke-dasharray:63 65;stroke-dashoffset:64;animation:KVltLWAi_draw 2000ms ease 787ms forwards;}.KVltLWAi_53{stroke-dasharray:50 52;stroke-dashoffset:51;animation:KVltLWAi_draw 2000ms ease 803ms forwards;}.KVltLWAi_54{stroke-dasharray:9 11;stroke-dashoffset:10;animation:KVltLWAi_draw 2000ms ease 818ms forwards;}.KVltLWAi_55{stroke-dasharray:11 13;stroke-dashoffset:12;animation:KVltLWAi_draw 2000ms ease 833ms forwards;}.KVltLWAi_56{stroke-dasharray:50 52;stroke-dashoffset:51;animation:KVltLWAi_draw 2000ms ease 848ms forwards;}.KVltLWAi_57{stroke-dasharray:11 13;stroke-dashoffset:12;animation:KVltLWAi_draw 2000ms ease 863ms forwards;}.KVltLWAi_58{stroke-dasharray:20 22;stroke-dashoffset:21;animation:KVltLWAi_draw 2000ms ease 878ms forwards;}.KVltLWAi_59{stroke-dasharray:20 22;stroke-dashoffset:21;animation:KVltLWAi_draw 2000ms ease 893ms forwards;}.KVltLWAi_60{stroke-dasharray:20 22;stroke-dashoffset:21;animation:KVltLWAi_draw 2000ms ease 909ms forwards;}.KVltLWAi_61{stroke-dasharray:20 22;stroke-dashoffset:21;animation:KVltLWAi_draw 2000ms ease 924ms forwards;}.KVltLWAi_62{stroke-dasharray:194 196;stroke-dashoffset:195;animation:KVltLWAi_draw 2000ms ease 939ms forwards;}.KVltLWAi_63{stroke-dasharray:470 472;stroke-dashoffset:471;animation:KVltLWAi_draw 2000ms ease 954ms forwards;}.KVltLWAi_64{stroke-dasharray:11 13;stroke-dashoffset:12;animation:KVltLWAi_draw 2000ms ease 969ms forwards;}.KVltLWAi_65{stroke-dasharray:11 13;stroke-dashoffset:12;animation:KVltLWAi_draw 2000ms ease 984ms forwards;}.KVltLWAi_66{stroke-dasharray:12 14;stroke-dashoffset:13;animation:KVltLWAi_draw 2000ms ease 1000ms forwards;}@keyframes KVltLWAi_draw{100%{stroke-dashoffset:0;}}@keyframes KVltLWAi_fade{0%{stroke-opacity:1;}94.44444444444444%{stroke-opacity:1;}100%{stroke-opacity:0;}}</style></svg>