<svg xmlns="http://www.w3.org/2000/svg" viewBox="0 0 600 300"><style type="text/css">.st0{fill:#EAEEF2;} .st1{fill:none;stroke:#414042;stroke-width:1.5;stroke-linecap:round;stroke-miterlimit:10;} .st2{fill:none;stroke:#414042;stroke-width:1.5;stroke-miterlimit:10;} .st3{fill:#414042;} .st4{fill:#58595B;} .st5{fill:#FFFFFF;} .st6{fill:#D1D3D4;} .st7{fill:#E6E7E8;} .st8{opacity:0.3;fill:#414042;} .st9{opacity:0.3;fill:#231F20;} .st10{fill:#BCBEC0;} .st11{font-family:&apos;Montserrat-Bold&apos;;} .st12{font-size:21.5566px;} .st13{fill:none;stroke:#414042;stroke-width:2;stroke-linecap:round;stroke-linejoin:round;stroke-miterlimit:10;} .st14{fill:#3F51B5;}</style><g id="XMLID_406_"><path id="XMLID_102_" class="st0 UgSbSYyA_0" d="M49.2 68c0 9.1 7.4 16.4 16.4 16.4h74.2c8.9 0 16.2 7.2 16.2 16.2 0 8.9-7.2 16.2-16.2 16.2h-39.9c-9.7 0-17.6 7.9-17.6 17.6 0 9.7 7.8 17.6 17.5 17.6l145.9.4 2.6 41.8-228.2-1.2c-10.8-.1-19.6 8.7-19.6 19.5s8.7 19.5 19.5 19.5h50.4c10.9 0 19.7 8.8 19.7 19.7v30.4l438.4-.6v-21.3c0-12.1-9.8-21.9-21.9-22l-67.1-.4v-52.2h140c11 0 19.9-8.9 19.9-19.9 0-11-8.9-19.9-19.9-19.9h-66c0-17.1-13.9-31-31-31h-42.1v-30.4h117.4c9.1 0 16.4-7.4 16.4-16.4 0-9.1-7.4-16.4-16.4-16.4h-492.2c-9-.1-16.4 7.3-16.4 16.4z"/><g id="XMLID_85_"><path id="XMLID_87_" class="st1 UgSbSYyA_1" d="M61.8 106.2h12.2"/><path id="XMLID_86_" class="st1 UgSbSYyA_2" d="M67.9 112.2v-12.1"/></g><g id="XMLID_111_"><path id="XMLID_149_" class="st1 UgSbSYyA_3" d="M430.9 24h12.1"/><path id="XMLID_134_" class="st1 UgSbSYyA_4" d="M437 30v-12.1"/></g><g id="XMLID_79_"><path id="XMLID_81_" class="st1 UgSbSYyA_5" d="M292.7 55.8l8.6-8.6"/><path id="XMLID_80_" class="st1 UgSbSYyA_6" d="M301.3 55.8l-8.6-8.6"/></g><g id="XMLID_105_"><path id="XMLID_107_" class="st1 UgSbSYyA_7" d="M574.1 128.8l8.6-8.6"/><path id="XMLID_106_" class="st1 UgSbSYyA_8" d="M582.7 128.8l-8.6-8.6"/></g><path id="XMLID_74_" class="st2 UgSbSYyA_9" d="M334.9 51.5h62"/><path id="XMLID_155_" class="st2 UgSbSYyA_10" d="M125.1 51.5h61.9"/><path id="XMLID_100_" class="st2 UgSbSYyA_11" d="M207.7 33.7h116"/><path id="XMLID_109_" class="st2 UgSbSYyA_12" d="M18.2 155.3h72.7"/><path id="XMLID_103_" class="st2 UgSbSYyA_13" d="M505.9 202.2h54.3"/><path id="XMLID_104_" class="st2 UgSbSYyA_14" d="M574.1 202.2h-7.4"/><path id="XMLID_99_" class="st2 UgSbSYyA_15" d="M329.2 51.5h-11.1"/><path id="XMLID_65_" class="st3 UgSbSYyA_16" d="M541.6 109.2c0 1.7-1.4 3-3 3-1.7 0-3-1.4-3-3s1.4-3 3-3c1.7 0 3 1.3 3 3z"/><path id="XMLID_150_" class="st3 UgSbSYyA_17" d="M188.5 72.8c0 2.5-2 4.5-4.5 4.5s-4.5-2-4.5-4.5 2-4.5 4.5-4.5 4.5 2 4.5 4.5z"/><path id="XMLID_108_" class="st3 UgSbSYyA_18" d="M76.1 179.8c0 1.7-1.4 3-3 3-1.7 0-3-1.4-3-3s1.4-3 3-3c1.7 0 3 1.4 3 3z"/><g id="XMLID_98_"><g id="XMLID_264_"><path id="XMLID_472_" class="st4 UgSbSYyA_19" d="M454 216.5h-224.6c-4.8 0-8.8-3.9-8.8-8.8v-124.5c0-5.9 4.8-10.7 10.7-10.7h220.7c5.9 0 10.7 4.8 10.7 10.7v124.6c.1 4.8-3.9 8.7-8.7 8.7z"/><path id="XMLID_82_" class="st2 UgSbSYyA_20" d="M265.7 72.5h149.7"/><path id="XMLID_469_" class="st2 UgSbSYyA_21" d="M251.6 72.5h10.2"/><path id="XMLID_468_" class="st2 UgSbSYyA_22" d="M462.8 216.5h-242.2v-131.6c0-6.8 5.6-12.4 12.4-12.4h12.3"/><path id="XMLID_467_" class="st5 UgSbSYyA_23" d="M233.7 86.6h216.1v113.8h-216.1z"/><path id="XMLID_466_" class="st5 UgSbSYyA_24" d="M305.2 238.3h73v43.2h-73z"/><path id="XMLID_465_" class="st6 UgSbSYyA_25" d="M305.2 238.3h73v21.6h-73z"/><path id="XMLID_461_" class="st2 UgSbSYyA_26" d="M305.2 279.8v-41.5h73v41.5"/><path id="XMLID_463_" class="st5 UgSbSYyA_27" d="M462.8 211.2h-242.2v27.1c0 3.1 2.5 5.6 5.6 5.6h231c3.1 0 5.6-2.5 5.6-5.6v-27.1z"/><path id="XMLID_462_" class="st2 UgSbSYyA_28" d="M449.2 211.2h-228.6v20.1c0 6.9 5.6 12.6 12.6 12.6h216"/><path id="XMLID_449_" class="st7 UgSbSYyA_29" d="M249 94.6h186.3v40.5h-186.3z"/><path id="XMLID_474_" class="st7 UgSbSYyA_30" d="M317.4 141.2h49.6v52.2h-49.6z"/><path id="XMLID_475_" class="st7 UgSbSYyA_31" d="M385.7 141.1h49.6v52.2h-49.6z"/><path id="XMLID_101_" class="st2 UgSbSYyA_32" d="M462.2 119.1v25.4"/></g><path id="XMLID_148_" class="st8 UgSbSYyA_33" d="M315.2 139.7c0-3.8-3.1-6.9-6.9-6.9h-89.8v98.6c0 8.1 6.6 14.7 14.7 14.7h69.9v33.7h2.1v1.7h11.5c2.8-1.9 4.9-4.9 5.5-8.5l1.6-9.6h-8.6v-123.7z"/><g id="XMLID_63_"><path id="XMLID_70_" class="st4 UgSbSYyA_34" d="M306.4 273.8h-191.3c-.5 0-1-.4-1-1v-136.9c0-.6.5-1 1-1h191.3c.6 0 1 .4 1 1v136.9c0 .6-.4 1-1 1z"/><path id="XMLID_147_" class="st2 UgSbSYyA_35" d="M118.9 273.8c-2.6 0-4.8-2.2-4.8-4.8v-81.7"/><path id="XMLID_145_" class="st2 UgSbSYyA_36" d="M200.7 134.9h101.9c2.6 0 4.8 2.2 4.8 4.8v126.3"/><path id="XMLID_69_" class="st3 UgSbSYyA_37" d="M123.5 145.8h173.5v112.7h-173.5z"/><path id="XMLID_332_" class="st5 UgSbSYyA_38" d="M304 281.5h-188.6c-4.5 0-8.4-3.3-9.1-7.8l-1.3-8.2h87.4l3.3 4.8h24.2l3.6-4.8h92.1l-1.2 7.1c-.8 5.2-5.2 8.9-10.4 8.9z"/><path id="XMLID_78_" class="st2 UgSbSYyA_39" d="M304 281.5h-188.6c-4.5 0-8.4-3.3-9.1-7.8l-1.3-8.2h87.4l3.3 4.8h24.2l3.6-4.8h92.1l-1.2 7.1c-.8 5.2-5.2 8.9-10.4 8.9z"/><g id="XMLID_64_"><path id="XMLID_597_" class="st5 UgSbSYyA_40" d="M146.3 157h19.4v2.5h-19.4z"/><path id="XMLID_596_" class="st5 UgSbSYyA_41" d="M156 165.7h13.4v2.5h-13.4z"/><path id="XMLID_595_" class="st5 UgSbSYyA_42" d="M199 165.7h93.4v2.5h-93.4z"/><path id="XMLID_594_" class="st5 UgSbSYyA_43" d="M193.758 168.332h-15.1v-2.5h15.1z"/><path id="XMLID_593_" class="st5 UgSbSYyA_44" d="M160.6 173h26.7v2.5h-26.7z"/><path id="XMLID_592_" class="st5 UgSbSYyA_45" d="M171.4 183.2h33.9v2.5h-33.9z"/><path id="XMLID_591_" class="st5 UgSbSYyA_46" d="M146.3 192.9h37v2.5h-37z"/><path id="XMLID_590_" class="st5 UgSbSYyA_47" d="M213.987 195.412h-26.7v-2.5h26.7z"/><path id="XMLID_589_" class="st5 UgSbSYyA_48" d="M156 202.5h49.6v2.5h-49.6z"/><path id="XMLID_588_" class="st5 UgSbSYyA_49" d="M258.9 205.093h-33v-2.5h33z"/><path id="XMLID_587_" class="st5 UgSbSYyA_50" d="M207.7 202.5h15.6v2.5h-15.6z"/><path id="XMLID_586_" class="st5 UgSbSYyA_51" d="M172.5 212.2h43.4v2.5h-43.4z"/><path id="XMLID_585_" class="st5 UgSbSYyA_52" d="M169.695 214.674h-9.1v-2.5h9.1z"/><path id="XMLID_68_" class="st5 UgSbSYyA_53" d="M146.3 219.2h29.6v2.5h-29.6z"/><path id="XMLID_582_" class="st5 UgSbSYyA_54" d="M178.2 219.2h10.2v2.5h-10.2z"/><path id="XMLID_581_" class="st5 UgSbSYyA_55" d="M191.2 219.2h48.6v2.5h-48.6z"/><path id="XMLID_580_" class="st5 UgSbSYyA_56" d="M287.447 221.835h-43.9v-2.5h43.9z"/><path id="XMLID_579_" class="st5 UgSbSYyA_57" d="M156 228.9h15.4v2.5h-15.4z"/><path id="XMLID_578_" class="st5 UgSbSYyA_58" d="M212.445 231.415h-36.5v-2.5h36.5z"/><path id="XMLID_577_" class="st5 UgSbSYyA_59" d="M164.3 238.5h29.6v2.5h-29.6z"/><path id="XMLID_576_" class="st5 UgSbSYyA_60" d="M200.1 238.5h29.6v2.5h-29.6z"/><path id="XMLID_575_" class="st5 UgSbSYyA_61" d="M234.4 238.5h27.9v2.5h-27.9z"/><path id="XMLID_351_" class="st5 UgSbSYyA_62" d="M289.667 185.832h-8.4v-2.5h8.4z"/><path id="XMLID_67_" class="st5 UgSbSYyA_63" d="M208.3 183.2h69.3v2.5h-69.3z"/><path id="XMLID_328_" class="st5 UgSbSYyA_64" d="M171.4 157h78.8v2.5h-78.8z"/><path id="XMLID_326_" class="st5 UgSbSYyA_65" d="M133.1 153.3h4.1v4.1h-4.1z"/><path id="XMLID_294_" class="st5 UgSbSYyA_66" d="M133.1 164h4.1v4.1h-4.1z"/><path id="XMLID_291_" class="st5 UgSbSYyA_67" d="M133.1 174.8h4.1v4.1h-4.1z"/><path id="XMLID_182_" class="st5 UgSbSYyA_68" d="M133.1 185.6h4.1v4.1h-4.1z"/><path id="XMLID_181_" class="st5 UgSbSYyA_69" d="M133.1 196.4h4.1v4.1h-4.1z"/><path id="XMLID_178_" class="st5 UgSbSYyA_70" d="M133.1 207.2h4.1v4.1h-4.1z"/><path id="XMLID_177_" class="st5 UgSbSYyA_71" d="M133.1 218h4.1v4.1h-4.1z"/><path id="XMLID_66_" class="st5 UgSbSYyA_72" d="M133.1 228.8h4.1v4.1h-4.1z"/><path id="XMLID_71_" class="st5 UgSbSYyA_73" d="M133.1 239.5h4.1v4.1h-4.1z"/><path id="XMLID_72_" class="st5 UgSbSYyA_74" d="M133.1 250.3h4.1v4.1h-4.1z"/></g><path id="XMLID_73_" class="st9 UgSbSYyA_75" d="M115.9 134.9c-1 0-1.8.8-1.8 1.8v46.7h77.6c4.5 0 8.2-3.7 8.2-8.2v-40.3h-84z"/><path id="XMLID_1454_" class="st5 UgSbSYyA_76" d="M193.7 179.8h-92c-1.5 0-2.7-1.2-2.7-2.7v-65.1c0-1.5 1.2-2.7 2.7-2.7h92c1.5 0 2.7 1.2 2.7 2.7v65.1c0 1.5-1.2 2.7-2.7 2.7z"/><path id="XMLID_1453_" class="st10 UgSbSYyA_77" d="M99 124.3v-10.2c0-2.7 2.2-4.9 4.9-4.9h87.7c2.7 0 4.9 2.2 4.9 4.9v10.2h-97.5z"/><path id="XMLID_1452_" class="st2 UgSbSYyA_78" d="M133.7 109.2h57.8c2.7 0 4.9 2.2 4.9 4.9v60.9c0 2.7-2.2 4.9-4.9 4.9h-87.7c-2.7 0-4.9-2.2-4.9-4.9v-60.9c0-2.7 2.2-4.9 4.9-4.9h12.899999999999999"/><path id="XMLID_882_" class="st2 UgSbSYyA_79" d="M120.5 109.2h7.7"/><path id="XMLID_879_" class="st2 UgSbSYyA_80" d="M99 124.5h97.4"/><path id="XMLID_876_" class="st2 UgSbSYyA_81" d="M106.8 117.6h1.7"/><path id="XMLID_873_" class="st2 UgSbSYyA_82" d="M113.1 117.6h1.7"/><path id="XMLID_872_" class="st2 UgSbSYyA_83" d="M119.3 117.6h1.7"/><text transform="translate(131.137 156.554)" class="st3 st11 st12" id="XMLID_76_">&lt;/&gt;</text></g></g><g id="XMLID_43_"><path id="XMLID_75_" class="st2 UgSbSYyA_84" d="M60.1 282.1h7.8"/><path id="XMLID_90_" class="st2 UgSbSYyA_85" d="M543 282.1h17.2"/><path id="XMLID_293_" class="st2 UgSbSYyA_86" d="M73.1 282.1h465.5"/></g></g><path class="st5 UgSbSYyA_87" d="M526.5 157.5l-7-1.5h-.1c-1.4-5.3-3.4-10.3-6.3-15.1l3.9-6c.8-1.2 1.2-2.6 1.3-4 .1-2.3-.7-4.7-2.4-6.5l-7.1-7.1c-2.8-2.8-7.2-3.3-10.5-1.1l-6 3.9c-4.8-2.8-9.9-4.9-15.1-6.3v-.1l-1.5-7c-.8-3.9-4.3-6.6-8.2-6.6h-10c-3.7 0-6.9 2.4-8 5.9-.1.2-.2.5-.2.7l-1.5 7v.1c-5.3 1.4-10.3 3.4-15.1 6.3l-6-3.9c-3.3-2.1-7.7-1.7-10.5 1.1l-7.1 7.1c-2.8 2.8-3.3 7.2-1.1 10.5l3.9 6c-2.8 4.8-4.9 9.9-6.3 15.1h-.1l-7 1.5c-3.9.8-6.6 4.3-6.6 8.2v10c0 4 2.8 7.4 6.6 8.2l7 1.5h.1c1.4 5.3 3.4 10.3 6.3 15.1l-3.9 6c-.8 1.2-1.2 2.6-1.3 4-.1 2.3.7 4.7 2.4 6.5l7.1 7.1c2.8 2.8 7.2 3.3 10.5 1.1l6-3.9c4.8 2.8 9.9 4.9 15.1 6.3v.1l1.5 7c.1.4.2.8.4 1.2 1.2 3.2 4.3 5.5 7.9 5.5h10c4 0 7.4-2.8 8.2-6.6l1.5-7v-.1c5.3-1.4 10.3-3.4 15.1-6.3l6 3.9c3.3 2.1 7.7 1.7 10.5-1.1l7.1-7.1c2.8-2.8 3.3-7.2 1.1-10.5l-3.9-6c2.8-4.8 4.9-9.9 6.3-15.1h.1l7-1.5c3.9-.8 6.6-4.3 6.6-8.2v-10c-.1-4-2.9-7.5-6.7-8.3z"/><path class="st5 UgSbSYyA_88" d="M499.5 241.4a33.6 33.6 0 1 1 67.2 0 33.6 33.6 0 1 1-67.2 0"/><path class="st13 UgSbSYyA_89" d="M499.5 241.4a33.6 33.6 0 1 1 67.2 0 33.6 33.6 0 1 1-67.2 0"/><path class="st14 UgSbSYyA_90" d="M550.1 240.5l-25.6-15.1c-.7-.4-1.5.1-1.5.9v30.1c0 .8.8 1.3 1.5.9l25.6-15.1c.7-.4.7-1.3 0-1.7z"/><path class="st13 UgSbSYyA_91" d="M550.1 240.5l-25.6-15.1c-.7-.4-1.5.1-1.5.9v30.1c0 .8.8 1.3 1.5.9l25.6-15.1c.7-.4.7-1.3 0-1.7z"/><path class="st13 UgSbSYyA_92" d="M462.4 264.9c-52 0-94.2-42.2-94.2-94.2"/><path class="st13 UgSbSYyA_93" d="M368.2 164v-3.4"/><path class="st13 UgSbSYyA_94" d="M462.4 76.5c52 0 94.2 42.2 94.2 94.2"/><path class="st13 UgSbSYyA_95" d="M556.7 180.8v-3.4"/><path class="st13 UgSbSYyA_96" d="M442.2 170.7a20.2 20.2 0 1 1 40.4 0 20.2 20.2 0 1 1-40.4 0"/><path class="st13 UgSbSYyA_97" d="M462.4 123.6c26 0 47.1 21.1 47.1 47.1"/><path class="st13 UgSbSYyA_98" d="M513.1 200.6c2.8-4.8 4.9-9.9 6.3-15.1h.1l7-1.5c3.9-.8 6.6-4.3 6.6-8.2v-10c0-4-2.8-7.4-6.6-8.2l-7-1.5h-.1c-1.4-5.3-3.4-10.3-6.3-15.1l3.9-6c2.1-3.3 1.7-7.7-1.1-10.5l-7.1-7.1c-2.8-2.8-7.2-3.3-10.5-1.1l-6 3.9c-4.8-2.8-9.9-4.9-15.1-6.3v-.1l-1.5-7c-.8-3.9-4.3-6.6-8.2-6.6h-10c-4 0-7.4 2.8-8.2 6.6l-1.5 7v.1c-5.3 1.4-10.3 3.4-15.1 6.3l-6-3.9c-3.3-2.1-7.7-1.7-10.5 1.1l-7.1 7.1c-2.8 2.8-3.3 7.2-1.1 10.5l3.9 6c-2.8 4.8-4.9 9.9-6.3 15.1h-.1l-7 1.5c-3.9.8-6.6 4.3-6.6 8.2v10c0 4 2.8 7.4 6.6 8.2l7 1.5h.1c1.4 5.3 3.4 10.3 6.3 15.1l-3.9 6c-2.1 3.3-1.7 7.7 1.1 10.5l7.1 7.1c2.8 2.8 7.2 3.3 10.5 1.1l6-3.9c4.8 2.8 9.9 4.9 15.1 6.3v.1l1.5 7c.8 3.9 4.3 6.6 8.2 6.6h10c4 0 7.4-2.8 8.2-6.6l1.5-7v-.1c5.3-1.4 10.3-3.4 15.1-6.3m-29.9-17.1c-18.6 0-33.6-15.1-33.6-33.6 0-18.6 15.1-33.6 33.6-33.6 18.6 0 33.6 15.1 33.6 33.6.1 18.6-15 33.6-33.6 33.6z"/><path class="st14 UgSbSYyA_99" d="M443 170.5a19.5 19.5 0 1 1 39 0 19.5 19.5 0 1 1-39 0"/><style>.UgSbSYyA_0{stroke-dasharray:2526 2528;stroke-dashoffset:2527;animation:UgSbSYyA_draw 2000ms ease 0ms forwards;}.UgSbSYyA_1{stroke-dasharray:13 15;stroke-dashoffset:14;animation:UgSbSYyA_draw 2000ms ease 10ms forwards;}.UgSbSYyA_2{stroke-dasharray:13 15;stroke-dashoffset:14;animation:UgSbSYyA_draw 2000ms ease 20ms forwards;}.UgSbSYyA_3{stroke-dasharray:13 15;stroke-dashoffset:14;animation:UgSbSYyA_draw 2000ms ease 30ms forwards;}.UgSbSYyA_4{stroke-dasharray:13 15;stroke-dashoffset:14;animation:UgSbSYyA_draw 2000ms ease 40ms forwards;}.UgSbSYyA_5{stroke-dasharray:13 15;stroke-dashoffset:14;animation:UgSbSYyA_draw 2000ms ease 50ms forwards;}.UgSbSYyA_6{stroke-dasharray:13 15;stroke-dashoffset:14;animation:UgSbSYyA_draw 2000ms ease 60ms forwards;}.UgSbSYyA_7{stroke-dasharray:13 15;stroke-dashoffset:14;animation:UgSbSYyA_draw 2000ms ease 70ms forwards;}.UgSbSYyA_8{stroke-dasharray:13 15;stroke-dashoffset:14;animation:UgSbSYyA_draw 2000ms ease 80ms forwards;}.UgSbSYyA_9{stroke-dasharray:62 64;stroke-dashoffset:63;animation:UgSbSYyA_draw 2000ms ease 90ms forwards;}.UgSbSYyA_10{stroke-dasharray:62 64;stroke-dashoffset:63;animation:UgSbSYyA_draw 2000ms ease 101ms forwards;}.UgSbSYyA_11{stroke-dasharray:117 119;stroke-dashoffset:118;animation:UgSbSYyA_draw 2000ms ease 111ms forwards;}.UgSbSYyA_12{stroke-dasharray:73 75;stroke-dashoffset:74;animation:UgSbSYyA_draw 2000ms ease 121ms forwards;}.UgSbSYyA_13{stroke-dasharray:55 57;stroke-dashoffset:56;animation:UgSbSYyA_draw 2000ms ease 131ms forwards;}.UgSbSYyA_14{stroke-dasharray:8 10;stroke-dashoffset:9;animation:UgSbSYyA_draw 2000ms ease 141ms forwards;}.UgSbSYyA_15{stroke-dasharray:12 14;stroke-dashoffset:13;animation:UgSbSYyA_draw 2000ms ease 151ms forwards;}.UgSbSYyA_16{stroke-dasharray:19 21;stroke-dashoffset:20;animation:UgSbSYyA_draw 2000ms ease 161ms forwards;}.UgSbSYyA_17{stroke-dasharray:29 31;stroke-dashoffset:30;animation:UgSbSYyA_draw 2000ms ease 171ms forwards;}.UgSbSYyA_18{stroke-dasharray:19 21;stroke-dashoffset:20;animation:UgSbSYyA_draw 2000ms ease 181ms forwards;}.UgSbSYyA_19{stroke-dasharray:756 758;stroke-dashoffset:757;animation:UgSbSYyA_draw 2000ms ease 191ms forwards;}.UgSbSYyA_20{stroke-dasharray:150 152;stroke-dashoffset:151;animation:UgSbSYyA_draw 2000ms ease 202ms forwards;}.UgSbSYyA_21{stroke-dasharray:11 13;stroke-dashoffset:12;animation:UgSbSYyA_draw 2000ms ease 212ms forwards;}.UgSbSYyA_22{stroke-dasharray:406 408;stroke-dashoffset:407;animation:UgSbSYyA_draw 2000ms ease 222ms forwards;}.UgSbSYyA_23{stroke-dasharray:660 662;stroke-dashoffset:661;animation:UgSbSYyA_draw 2000ms ease 232ms forwards;}.UgSbSYyA_24{stroke-dasharray:233 235;stroke-dashoffset:234;animation:UgSbSYyA_draw 2000ms ease 242ms forwards;}.UgSbSYyA_25{stroke-dasharray:190 192;stroke-dashoffset:191;animation:UgSbSYyA_draw 2000ms ease 252ms forwards;}.UgSbSYyA_26{stroke-dasharray:156 158;stroke-dashoffset:157;animation:UgSbSYyA_draw 2000ms ease 262ms forwards;}.UgSbSYyA_27{stroke-dasharray:546 548;stroke-dashoffset:547;animation:UgSbSYyA_draw 2000ms ease 272ms forwards;}.UgSbSYyA_28{stroke-dasharray:485 487;stroke-dashoffset:486;animation:UgSbSYyA_draw 2000ms ease 282ms forwards;}.UgSbSYyA_29{stroke-dasharray:454 456;stroke-dashoffset:455;animation:UgSbSYyA_draw 2000ms ease 292ms forwards;}.UgSbSYyA_30{stroke-dasharray:204 206;stroke-dashoffset:205;animation:UgSbSYyA_draw 2000ms ease 303ms forwards;}.UgSbSYyA_31{stroke-dasharray:204 206;stroke-dashoffset:205;animation:UgSbSYyA_draw 2000ms ease 313ms forwards;}.UgSbSYyA_32{stroke-dasharray:26 28;stroke-dashoffset:27;animation:UgSbSYyA_draw 2000ms ease 323ms forwards;}.UgSbSYyA_33{stroke-dasharray:494 496;stroke-dashoffset:495;animation:UgSbSYyA_draw 2000ms ease 333ms forwards;}.UgSbSYyA_34{stroke-dasharray:663 665;stroke-dashoffset:664;animation:UgSbSYyA_draw 2000ms ease 343ms forwards;}.UgSbSYyA_35{stroke-dasharray:90 92;stroke-dashoffset:91;animation:UgSbSYyA_draw 2000ms ease 353ms forwards;}.UgSbSYyA_36{stroke-dasharray:236 238;stroke-dashoffset:237;animation:UgSbSYyA_draw 2000ms ease 363ms forwards;}.UgSbSYyA_37{stroke-dasharray:573 575;stroke-dashoffset:574;animation:UgSbSYyA_draw 2000ms ease 373ms forwards;}.UgSbSYyA_38{stroke-dasharray:448 450;stroke-dashoffset:449;animation:UgSbSYyA_draw 2000ms ease 383ms forwards;}.UgSbSYyA_39{stroke-dasharray:448 450;stroke-dashoffset:449;animation:UgSbSYyA_draw 2000ms ease 393ms forwards;}.UgSbSYyA_40{stroke-dasharray:44 46;stroke-dashoffset:45;animation:UgSbSYyA_draw 2000ms ease 404ms forwards;}.UgSbSYyA_41{stroke-dasharray:32 34;stroke-dashoffset:33;animation:UgSbSYyA_draw 2000ms ease 414ms forwards;}.UgSbSYyA_42{stroke-dasharray:192 194;stroke-dashoffset:193;animation:UgSbSYyA_draw 2000ms ease 424ms forwards;}.UgSbSYyA_43{stroke-dasharray:36 38;stroke-dashoffset:37;animation:UgSbSYyA_draw 2000ms ease 434ms forwards;}.UgSbSYyA_44{stroke-dasharray:59 61;stroke-dashoffset:60;animation:UgSbSYyA_draw 2000ms ease 444ms forwards;}.UgSbSYyA_45{stroke-dasharray:73 75;stroke-dashoffset:74;animation:UgSbSYyA_draw 2000ms ease 454ms forwards;}.UgSbSYyA_46{stroke-dasharray:79 81;stroke-dashoffset:80;animation:UgSbSYyA_draw 2000ms ease 464ms forwards;}.UgSbSYyA_47{stroke-dasharray:59 61;stroke-dashoffset:60;animation:UgSbSYyA_draw 2000ms ease 474ms forwards;}.UgSbSYyA_48{stroke-dasharray:105 107;stroke-dashoffset:106;animation:UgSbSYyA_draw 2000ms ease 484ms forwards;}.UgSbSYyA_49{stroke-dasharray:71 73;stroke-dashoffset:72;animation:UgSbSYyA_draw 2000ms ease 494ms forwards;}.UgSbSYyA_50{stroke-dasharray:37 39;stroke-dashoffset:38;animation:UgSbSYyA_draw 2000ms ease 505ms forwards;}.UgSbSYyA_51{stroke-dasharray:92 94;stroke-dashoffset:93;animation:UgSbSYyA_draw 2000ms ease 515ms forwards;}.UgSbSYyA_52{stroke-dasharray:24 26;stroke-dashoffset:25;animation:UgSbSYyA_draw 2000ms ease 525ms forwards;}.UgSbSYyA_53{stroke-dasharray:65 67;stroke-dashoffset:66;animation:UgSbSYyA_draw 2000ms ease 535ms forwards;}.UgSbSYyA_54{stroke-dasharray:26 28;stroke-dashoffset:27;animation:UgSbSYyA_draw 2000ms ease 545ms forwards;}.UgSbSYyA_55{stroke-dasharray:103 105;stroke-dashoffset:104;animation:UgSbSYyA_draw 2000ms ease 555ms forwards;}.UgSbSYyA_56{stroke-dasharray:93 95;stroke-dashoffset:94;animation:UgSbSYyA_draw 2000ms ease 565ms forwards;}.UgSbSYyA_57{stroke-dasharray:36 38;stroke-dashoffset:37;animation:UgSbSYyA_draw 2000ms ease 575ms forwards;}.UgSbSYyA_58{stroke-dasharray:78 80;stroke-dashoffset:79;animation:UgSbSYyA_draw 2000ms ease 585ms forwards;}.UgSbSYyA_59{stroke-dasharray:65 67;stroke-dashoffset:66;animation:UgSbSYyA_draw 2000ms ease 595ms forwards;}.UgSbSYyA_60{stroke-dasharray:65 67;stroke-dashoffset:66;animation:UgSbSYyA_draw 2000ms ease 606ms forwards;}.UgSbSYyA_61{stroke-dasharray:61 63;stroke-dashoffset:62;animation:UgSbSYyA_draw 2000ms ease 616ms forwards;}.UgSbSYyA_62{stroke-dasharray:22 24;stroke-dashoffset:23;animation:UgSbSYyA_draw 2000ms ease 626ms forwards;}.UgSbSYyA_63{stroke-dasharray:144 146;stroke-dashoffset:145;animation:UgSbSYyA_draw 2000ms ease 636ms forwards;}.UgSbSYyA_64{stroke-dasharray:163 165;stroke-dashoffset:164;animation:UgSbSYyA_draw 2000ms ease 646ms forwards;}.UgSbSYyA_65{stroke-dasharray:17 19;stroke-dashoffset:18;animation:UgSbSYyA_draw 2000ms ease 656ms forwards;}.UgSbSYyA_66{stroke-dasharray:17 19;stroke-dashoffset:18;animation:UgSbSYyA_draw 2000ms ease 666ms forwards;}.UgSbSYyA_67{stroke-dasharray:17 19;stroke-dashoffset:18;animation:UgSbSYyA_draw 2000ms ease 676ms forwards;}.UgSbSYyA_68{stroke-dasharray:17 19;stroke-dashoffset:18;animation:UgSbSYyA_draw 2000ms ease 686ms forwards;}.UgSbSYyA_69{stroke-dasharray:17 19;stroke-dashoffset:18;animation:UgSbSYyA_draw 2000ms ease 696ms forwards;}.UgSbSYyA_70{stroke-dasharray:17 19;stroke-dashoffset:18;animation:UgSbSYyA_draw 2000ms ease 707ms forwards;}.UgSbSYyA_71{stroke-dasharray:17 19;stroke-dashoffset:18;animation:UgSbSYyA_draw 2000ms ease 717ms forwards;}.UgSbSYyA_72{stroke-dasharray:17 19;stroke-dashoffset:18;animation:UgSbSYyA_draw 2000ms ease 727ms forwards;}.UgSbSYyA_73{stroke-dasharray:17 19;stroke-dashoffset:18;animation:UgSbSYyA_draw 2000ms ease 737ms forwards;}.UgSbSYyA_74{stroke-dasharray:17 19;stroke-dashoffset:18;animation:UgSbSYyA_draw 2000ms ease 747ms forwards;}.UgSbSYyA_75{stroke-dasharray:265 267;stroke-dashoffset:266;animation:UgSbSYyA_draw 2000ms ease 757ms forwards;}.UgSbSYyA_76{stroke-dasharray:332 334;stroke-dashoffset:333;animation:UgSbSYyA_draw 2000ms ease 767ms forwards;}.UgSbSYyA_77{stroke-dasharray:221 223;stroke-dashoffset:222;animation:UgSbSYyA_draw 2000ms ease 777ms forwards;}.UgSbSYyA_78{stroke-dasharray:311 313;stroke-dashoffset:312;animation:UgSbSYyA_draw 2000ms ease 787ms forwards;}.UgSbSYyA_79{stroke-dasharray:8 10;stroke-dashoffset:9;animation:UgSbSYyA_draw 2000ms ease 797ms forwards;}.UgSbSYyA_80{stroke-dasharray:98 100;stroke-dashoffset:99;animation:UgSbSYyA_draw 2000ms ease 808ms forwards;}.UgSbSYyA_81{stroke-dasharray:2 4;stroke-dashoffset:3;animation:UgSbSYyA_draw 2000ms ease 818ms forwards;}.UgSbSYyA_82{stroke-dasharray:2 4;stroke-dashoffset:3;animation:UgSbSYyA_draw 2000ms ease 828ms forwards;}.UgSbSYyA_83{stroke-dasharray:2 4;stroke-dashoffset:3;animation:UgSbSYyA_draw 2000ms ease 838ms forwards;}.UgSbSYyA_84{stroke-dasharray:8 10;stroke-dashoffset:9;animation:UgSbSYyA_draw 2000ms ease 848ms forwards;}.UgSbSYyA_85{stroke-dasharray:18 20;stroke-dashoffset:19;animation:UgSbSYyA_draw 2000ms ease 858ms forwards;}.UgSbSYyA_86{stroke-dasharray:466 468;stroke-dashoffset:467;animation:UgSbSYyA_draw 2000ms ease 868ms forwards;}.UgSbSYyA_87{stroke-dasharray:510 512;stroke-dashoffset:511;animation:UgSbSYyA_draw 2000ms ease 878ms forwards;}.UgSbSYyA_88{stroke-dasharray:212 214;stroke-dashoffset:213;animation:UgSbSYyA_draw 2000ms ease 888ms forwards;}.UgSbSYyA_89{stroke-dasharray:212 214;stroke-dashoffset:213;animation:UgSbSYyA_draw 2000ms ease 898ms forwards;}.UgSbSYyA_90{stroke-dasharray:96 98;stroke-dashoffset:97;animation:UgSbSYyA_draw 2000ms ease 909ms forwards;}.UgSbSYyA_91{stroke-dasharray:96 98;stroke-dashoffset:97;animation:UgSbSYyA_draw 2000ms ease 919ms forwards;}.UgSbSYyA_92{stroke-dasharray:148 150;stroke-dashoffset:149;animation:UgSbSYyA_draw 2000ms ease 929ms forwards;}.UgSbSYyA_93{stroke-dasharray:4 6;stroke-dashoffset:5;animation:UgSbSYyA_draw 2000ms ease 939ms forwards;}.UgSbSYyA_94{stroke-dasharray:148 150;stroke-dashoffset:149;animation:UgSbSYyA_draw 2000ms ease 949ms forwards;}.UgSbSYyA_95{stroke-dasharray:4 6;stroke-dashoffset:5;animation:UgSbSYyA_draw 2000ms ease 959ms forwards;}.UgSbSYyA_96{stroke-dasharray:127 129;stroke-dashoffset:128;animation:UgSbSYyA_draw 2000ms ease 969ms forwards;}.UgSbSYyA_97{stroke-dasharray:74 76;stroke-dashoffset:75;animation:UgSbSYyA_draw 2000ms ease 979ms forwards;}.UgSbSYyA_98{stroke-dasharray:674 676;stroke-dashoffset:675;animation:UgSbSYyA_draw 2000ms ease 989ms forwards;}.UgSbSYyA_99{stroke-dasharray:123 125;stroke-dashoffset:124;animation:UgSbSYyA_draw 2000ms ease 999ms forwards;}@keyframes UgSbSYyA_draw{100%{stroke-dashoffset:0;}}@keyframes UgSbSYyA_fade{0%{stroke-opacity:1;}94.44444444444444%{stroke-opacity:1;}100%{stroke-opacity:0;}}</style></svg>