<svg xmlns="http://www.w3.org/2000/svg" viewBox="0 0 600 300"><style type="text/css">.st0{fill:#E4E8EE;} .st1{fill:#FFFFFF;} .st2{fill:none;stroke:#414042;stroke-width:1.5;stroke-miterlimit:10;} .st3{fill:none;stroke:#000000;stroke-miterlimit:10;} .st4{fill:none;stroke:#414042;stroke-width:1.5;stroke-miterlimit:10;stroke-dasharray:1.9827,1.9827;} .st5{fill:#D2D9E3;} .st6{fill:none;stroke:#414042;stroke-width:1.5;stroke-linecap:round;stroke-miterlimit:10;} .st7{fill:#414042;} .st8{opacity:0.3;fill:#414042;} .st9{fill:#6D6E71;} .st10{fill:#3F51B5;} .st11{fill:#BCBEC0;} .st12{fill:none;stroke:#263238;stroke-width:2;stroke-linecap:round;stroke-linejoin:round;stroke-miterlimit:10;}</style><g id="XMLID_223_"><path id="XMLID_267_" class="st0 IIRPNFHY_0" d="M302.4 42.9h-183.5c-8.3 0-15 6.7-15 15s6.7 15 15 15h50.4c0 4.7 3.8 8.6 8.6 8.6h19.7c7.5 0 13.6 6.1 13.6 13.6s-6.1 13.6-13.6 13.6h-131.3c-8.6 0-15.5 6.9-15.5 15.5s6.9 15.5 15.5 15.5l86.9.1c7.4 0 13.4 6 13.4 13.4s-6 13.4-13.4 13.4h-46.7c-9.9 0-18 8.1-18 18s8.1 18 18 18h14.7c12 0 21.6 9.7 21.6 21.6v61.4h306.6v-94.2h81.1c7.3 0 13.2-5.9 13.2-13.2v-.3c0-7.6-6.1-13.7-13.6-13.7h-68.4c-6.8 0-12.3-5.5-12.3-12.3 0-6.8 5.5-12.3 12.3-12.3h10c17.4 0 31.6-14.1 31.6-31.5v-5.1h-85.7c-8.2 0-14.8-6.6-14.8-14.8 0-8.2 6.6-14.8 14.8-14.8h116.4c8.4 0 15.2-6.8 15.2-15.2 0-8.4-6.8-15.2-15.2-15.2h-231.6z"/><g id="XMLID_236_"><path id="XMLID_252_" class="st1 IIRPNFHY_1" d="M472.4 285.4l-.4-72.9c0-5.5-5-10-11.2-10h-104.5l.4 83 115.7-.1z"/><path id="XMLID_251_" class="st2 IIRPNFHY_2" d="M377.9 202.5h82.9c6.2 0 11.2 5 11.2 11.2l.4 68.3"/><path id="XMLID_240_" class="st3 IIRPNFHY_3" d="M432 226c8.1 8.1 8.1 21.2 0 29.3-8.1 8.1-21.2 8.1-29.3 0-8.1-8.1-8.1-21.2 0-29.3 8.2-8.1 21.3-8.1 29.3 0z"/><path id="XMLID_266_" class="st4 IIRPNFHY_4" d="M386.8 250.5a20.7 20.7 0 1 1 41.4 0 20.7 20.7 0 1 1-41.4 0"/></g><g id="XMLID_200_"><path id="XMLID_535_" class="st5 IIRPNFHY_5" d="M486.7 80h-.7c-3.1-10.7-12.9-18.5-24.6-18.5-5.1 0-9.8 1.5-13.8 4.1-2.6-16.8-17.1-29.7-34.6-29.7-15.7 0-29.1 10.4-33.5 24.7-2-.5-4.1-.9-6.3-.9-12 0-22 8.8-23.8 20.3h-3.9c-9.9 0-18 8.1-18 18v1.3c0 9.9 8.1 18 18 18h141.2c9.9 0 18-8.1 18-18v-1.3c0-9.9-8.1-18-18-18z"/><path id="XMLID_534_" class="st1 IIRPNFHY_6" d="M470.1 84.4h-.6c-2.7-9.4-11.4-16.3-21.7-16.3-4.5 0-8.7 1.3-12.2 3.6-2.3-14.8-15.1-26.2-30.5-26.2-13.9 0-25.6 9.1-29.5 21.7-1.8-.5-3.6-.7-5.5-.7-10.6 0-19.4 7.8-21 17.9h-3.5c-8.7 0-15.9 7.1-15.9 15.9v1.2c0 8.7 7.1 15.9 15.9 15.9h124.5c8.7 0 15.9-7.1 15.9-15.9v-1.2c0-8.7-7.2-15.9-15.9-15.9z"/><path id="XMLID_533_" class="st2 IIRPNFHY_7" d="M435.8 62.8c-5.2-8-14.2-13.3-24.5-13.3-5.4 0-10.5 1.5-14.9 4.1"/><path id="XMLID_218_" class="st2 IIRPNFHY_8" d="M345.4 80c-9.9 0-18 8.1-18 18v1.3c0 9.9 8.1 18 18 18h64.9"/><path id="XMLID_216_" class="st2 IIRPNFHY_9" d="M465.1 117.3h21.5c9.9 0 18-8.1 18-18v-1.3c0-9.9-8.1-18-18-18h-.6c-3.1-10.7-12.9-18.5-24.6-18.5-5.1 0-9.8 1.5-13.8 4.1-2.6-16.8-17.1-29.7-34.6-29.7-10.8 0-20.4 4.9-26.8 12.5-1.4 1.7-2.7 3.5-3.8 5.5-1.2 2.1-2.2 4.4-2.9 6.7-2-.5-4.1-.9-6.3-.9-6.4 0-12.3 2.5-16.6 6.6"/><path id="XMLID_531_" class="st2 IIRPNFHY_10" d="M373.6 59.6c6.9 0 12.5 5.6 12.5 12.5"/></g><g id="XMLID_184_"><path id="XMLID_186_" class="st6 IIRPNFHY_11" d="M526 104.1h10.7"/><path id="XMLID_185_" class="st6 IIRPNFHY_12" d="M531.3 109.5v-10.8"/></g><g id="XMLID_179_"><path id="XMLID_183_" class="st6 IIRPNFHY_13" d="M168 92.5h10.8"/><path id="XMLID_180_" class="st6 IIRPNFHY_14" d="M173.4 97.9v-10.8"/></g><g id="XMLID_174_"><path id="XMLID_176_" class="st6 IIRPNFHY_15" d="M426.2 22.1l7.7-7.6"/><path id="XMLID_175_" class="st6 IIRPNFHY_16" d="M433.9 22.1l-7.7-7.6"/></g><g id="XMLID_220_"><path id="XMLID_222_" class="st6 IIRPNFHY_17" d="M123.2 153.4l7.6-7.6"/><path id="XMLID_221_" class="st6 IIRPNFHY_18" d="M130.8 153.4l-7.6-7.6"/></g><path id="XMLID_169_" class="st2 IIRPNFHY_19" d="M245.5 32.2h80.7"/><path id="XMLID_201_" class="st2 IIRPNFHY_20" d="M289.6 18.3h127.9"/><path id="XMLID_41_" class="st2 IIRPNFHY_21" d="M346.4 32.2h-13.9"/><path id="XMLID_162_" class="st2 IIRPNFHY_22" d="M479.2 144.8h43.9"/><path id="XMLID_161_" class="st2 IIRPNFHY_23" d="M535.8 144.8h-9"/><path id="XMLID_204_" class="st2 IIRPNFHY_24" d="M100.9 92.5h43.9"/><path id="XMLID_202_" class="st2 IIRPNFHY_25" d="M157.6 92.5h-9"/><path id="XMLID_160_" class="st7 IIRPNFHY_26" d="M177.4 35.9c0 1.5-1.2 2.7-2.7 2.7-1.5 0-2.7-1.2-2.7-2.7 0-1.5 1.2-2.7 2.7-2.7 1.5 0 2.7 1.2 2.7 2.7z"/><path id="XMLID_211_" class="st7 IIRPNFHY_27" d="M245.3 117.1c0 1.9-1.5 3.4-3.4 3.4s-3.4-1.5-3.4-3.4 1.5-3.4 3.4-3.4 3.4 1.5 3.4 3.4z"/><path id="XMLID_212_" class="st7 IIRPNFHY_28" d="M510.9 42.9c0 1.9-1.5 3.4-3.4 3.4s-3.4-1.5-3.4-3.4 1.5-3.4 3.4-3.4 3.4 1.6 3.4 3.4z"/><path id="XMLID_226_" class="st8 IIRPNFHY_29" d="M277.9 179.2l-28.2-8.9v89.1h14.4c8.4 0 15.2-6.9 15.2-15.2h1.9v-1.1c0-8.5-6.2-15.5-14.3-16.9l1.6-5.1 1.8.6 11.1-35.3c1.1-3-.6-6.2-3.5-7.2z"/><path id="XMLID_224_" class="st8 IIRPNFHY_30" d="M379.4 275.8v-75.2h-1.6v1.9h-21.5l.4 83h17.4c3.2-2.1 5.3-5.6 5.3-9.7z"/><g id="XMLID_156_"><path id="XMLID_250_" class="st9 IIRPNFHY_31" d="M366.3 285.5h-104.7c-2.7 0-4.9-2.2-4.9-4.9v-202.3c0-2.7 2.2-4.9 4.9-4.9h104.8c2.7 0 4.9 2.2 4.9 4.9v202.3c-.1 2.7-2.3 4.9-5 4.9z"/><path id="XMLID_158_" class="st2 IIRPNFHY_32" d="M273.8 73.4h7.2"/><path id="XMLID_199_" class="st2 IIRPNFHY_33" d="M371.2 184.4v91.4c0 5.4-4.4 9.7-9.7 9.7h-95.1c-5.4 0-9.7-4.4-9.7-9.7v-192.6c0-5.4 4.4-9.7 9.7-9.7h2.8"/><path id="XMLID_193_" class="st2 IIRPNFHY_34" d="M284.5 73.4h77c5.4 0 9.7 4.4 9.7 9.7v6.9"/><path id="XMLID_247_" class="st2 IIRPNFHY_35" d="M297 87.4h33.8"/><path id="XMLID_246_" class="st2 IIRPNFHY_36" d="M321.3 272.3c0 4.1-3.3 7.4-7.4 7.4-4.1 0-7.4-3.3-7.4-7.4 0-4.1 3.3-7.4 7.4-7.4 4.1 0 7.4 3.3 7.4 7.4z"/><path id="XMLID_245_" class="st1 IIRPNFHY_37" d="M262.7 94.4h101v166.4h-101z"/><path id="XMLID_242_" class="st10 IIRPNFHY_38" d="M350.7 249.9h-18.5c-.2 0-.4-.2-.4-.4v-18.5c0-.2.2-.4.4-.4h18.5c.2 0 .4.2.4.4v18.5c0 .2-.2.4-.4.4z"/><path id="XMLID_215_" class="st10 IIRPNFHY_39" d="M292.6 221.5h-18.5c-.2 0-.4-.2-.4-.4v-18.5c0-.2.2-.4.4-.4h18.5c.2 0 .4.2.4.4v18.5c0 .2-.2.4-.4.4z"/><path id="XMLID_214_" class="st11 IIRPNFHY_40" d="M321.9 221.5h-18.5c-.2 0-.4-.2-.4-.4v-18.5c0-.2.2-.4.4-.4h18.5c.2 0 .4.2.4.4v18.5c0 .2-.1.4-.4.4z"/><path id="XMLID_217_" class="st10 IIRPNFHY_41" d="M322.5 193h-18.5c-.2 0-.4-.2-.4-.4v-18.5c0-.2.2-.4.4-.4h18.5c.2 0 .4.2.4.4v18.5c0 .3-.2.4-.4.4z"/><path id="XMLID_235_" class="st11 IIRPNFHY_42" d="M321.4 136.4h-18.5c-.2 0-.4-.2-.4-.4v-18.5c0-.2.2-.4.4-.4h18.5c.2 0 .4.2.4.4v18.5c-.1.2-.2.4-.4.4z"/></g><g id="XMLID_38_"><path id="XMLID_189_" class="st2 IIRPNFHY_43" d="M98.7 285.5h412.9"/><path id="XMLID_188_" class="st2 IIRPNFHY_44" d="M87.2 285.5h6.9"/><path id="XMLID_187_" class="st2 IIRPNFHY_45" d="M515.5 285.5h15.3"/></g><g id="XMLID_243_"><path id="XMLID_274_" class="st10 IIRPNFHY_46" d="M484.7 158.7s11.2 10.7 11.2 20.1l-11.2 20.1s-11.2-10.7-11.2-20.1l11.2-20.1z"/><path id="XMLID_273_" class="st2 IIRPNFHY_47" d="M484.7 158.7s11.2 10.7 11.2 20.1l-11.2 20.1s-11.2-10.7-11.2-20.1l11.2-20.1z"/><path id="XMLID_272_" class="st2 IIRPNFHY_48" d="M484.7 284.6v-125.9"/><path id="XMLID_269_" class="st2 IIRPNFHY_49" d="M484.7 177.2l-8.5-8.9"/><path id="XMLID_268_" class="st2 IIRPNFHY_50" d="M484.5 189.3l-11-12.1"/><path id="XMLID_260_" class="st2 IIRPNFHY_51" d="M484.4 177.2l8.5-8.9"/><path id="XMLID_253_" class="st2 IIRPNFHY_52" d="M484.6 189.3l10.9-12.1"/></g><g id="XMLID_206_"><path id="XMLID_262_" class="st10 IIRPNFHY_53" d="M503.6 206.5s11.2 10.7 11.2 20.1l-11.2 20.1s-11.2-10.7-11.2-20.1l11.2-20.1z"/><path id="XMLID_261_" class="st2 IIRPNFHY_54" d="M503.6 206.5s11.2 10.7 11.2 20.1l-11.2 20.1s-11.2-10.7-11.2-20.1l11.2-20.1z"/><path id="XMLID_213_" class="st2 IIRPNFHY_55" d="M503.6 285.5v-79"/><path id="XMLID_210_" class="st2 IIRPNFHY_56" d="M503.6 225.1l-8.5-8.9"/><path id="XMLID_209_" class="st2 IIRPNFHY_57" d="M503.4 237.1l-10.9-12"/><path id="XMLID_208_" class="st2 IIRPNFHY_58" d="M503.3 225.1l8.5-8.9"/><path id="XMLID_207_" class="st2 IIRPNFHY_59" d="M503.5 237.1l10.9-12"/></g></g><path class="st1 IIRPNFHY_60" d="M191.5 240.6h-38.1c-13.7 0-24.9-11.1-24.9-24.9v-14.9h-8.8c-6.7 0-10.7-7.6-6.8-13.1l15.5-23.4c0-27.5 22.3-49.8 49.8-49.8h55.5l4.2 92v50.8c0 9.2-7.4 16.6-16.6 16.6h-29.9c-9.2 0-16.6-7.4-16.6-16.6v-10l-.2-6.6"/><path class="st1 IIRPNFHY_61" d="M145.1 165.9h19.9"/><path class="st12 IIRPNFHY_62" d="M191.5 240.6h-38.2c-13.7 0-24.9-11.1-24.9-24.9v-14.9h-8.8c-6.7 0-10.7-7.6-6.8-13.1l15.5-23.4c0-27.5 22.3-49.8 49.8-49.8h55.5l4.2 92v50.8c0 9.2-7.4 16.6-16.6 16.6h-29.9c-9.2 0-16.6-7.4-16.6-16.6v-10"/><path class="st12 IIRPNFHY_63" d="M145.1 165.9h19.9"/><path class="st10 IIRPNFHY_64" d="M271.2 123.4c0-20.7-18.9-36.9-40.4-32.4-12.7 2.7-22.8 13-25.3 25.7-2.2 11.3 1.3 21.7 8.1 29 4.8 5.2 7.9 11.8 7.9 18.9v2h33.2v-2c0-7.1 3.1-13.7 7.9-19 5.3-5.8 8.6-13.6 8.6-22.2z"/><path class="st1 IIRPNFHY_65" d="M249.6 199.8h-23.2c-2.8 0-5-2.2-5-5v-28.2h33.2v28.2c0 2.7-2.2 5-5 5z"/><path class="st12 IIRPNFHY_66" d="M238 67v13.3"/><path class="st12 IIRPNFHY_67" d="M271.2 123.4c0-20.7-18.9-36.9-40.4-32.4-12.7 2.7-22.8 13-25.3 25.7-2.2 11.3 1.3 21.7 8.1 29 4.8 5.2 7.9 11.8 7.9 18.9v2h33.2v-2c0-7.1 3.1-13.7 7.9-19 5.3-5.8 8.6-13.6 8.6-22.2z"/><path class="st12 IIRPNFHY_68" d="M238 100.2m0 0c12.8 0 23.2 10.4 23.2 23.2"/><path class="st12 IIRPNFHY_69" d="M249.6 199.8h-23.2c-2.8 0-5-2.2-5-5v-28.2h33.2v28.2c0 2.7-2.2 5-5 5z"/><path class="st12 IIRPNFHY_70" d="M221.4 183.2h33.2"/><path class="st12 IIRPNFHY_71" d="M211 76.6l7.1 7"/><path class="st12 IIRPNFHY_72" d="M265 76.6l-7.1 7"/><path class="st12 IIRPNFHY_73" d="M189.9 96.9h13.2"/><path class="st12 IIRPNFHY_74" d="M272.9 96.9h13.2"/><path class="st12 IIRPNFHY_75" d="M256.3 257.2v3.3"/><path class="st12 IIRPNFHY_76" d="M256.3 210.7v39.8"/><path class="st12 IIRPNFHY_77" d="M266.2 214v-3.3"/><path class="st12 IIRPNFHY_78" d="M266.2 260.5v-39.8"/><path class="st12 IIRPNFHY_79" d="M310.5 143.3h-13.2"/><path class="st12 IIRPNFHY_80" d="M303.9 136.7v13.3"/><path class="st12 IIRPNFHY_81" d="M287.3 164.9h-13.3"/><path class="st12 IIRPNFHY_82" d="M280.7 158.3v13.3"/><style>.IIRPNFHY_0{stroke-dasharray:2104 2106;stroke-dashoffset:2105;animation:IIRPNFHY_draw 2000ms ease 0ms forwards;}.IIRPNFHY_1{stroke-dasharray:393 395;stroke-dashoffset:394;animation:IIRPNFHY_draw 2000ms ease 12ms forwards;}.IIRPNFHY_2{stroke-dasharray:169 171;stroke-dashoffset:170;animation:IIRPNFHY_draw 2000ms ease 24ms forwards;}.IIRPNFHY_3{stroke-dasharray:131 133;stroke-dashoffset:132;animation:IIRPNFHY_draw 2000ms ease 36ms forwards;}.IIRPNFHY_4{stroke-dasharray:131 133;stroke-dashoffset:132;animation:IIRPNFHY_draw 2000ms ease 48ms forwards;}.IIRPNFHY_5{stroke-dasharray:444 446;stroke-dashoffset:445;animation:IIRPNFHY_draw 2000ms ease 60ms forwards;}.IIRPNFHY_6{stroke-dasharray:392 394;stroke-dashoffset:393;animation:IIRPNFHY_draw 2000ms ease 73ms forwards;}.IIRPNFHY_7{stroke-dasharray:45 47;stroke-dashoffset:46;animation:IIRPNFHY_draw 2000ms ease 85ms forwards;}.IIRPNFHY_8{stroke-dasharray:123 125;stroke-dashoffset:124;animation:IIRPNFHY_draw 2000ms ease 97ms forwards;}.IIRPNFHY_9{stroke-dasharray:247 249;stroke-dashoffset:248;animation:IIRPNFHY_draw 2000ms ease 109ms forwards;}.IIRPNFHY_10{stroke-dasharray:20 22;stroke-dashoffset:21;animation:IIRPNFHY_draw 2000ms ease 121ms forwards;}.IIRPNFHY_11{stroke-dasharray:11 13;stroke-dashoffset:12;animation:IIRPNFHY_draw 2000ms ease 134ms forwards;}.IIRPNFHY_12{stroke-dasharray:11 13;stroke-dashoffset:12;animation:IIRPNFHY_draw 2000ms ease 146ms forwards;}.IIRPNFHY_13{stroke-dasharray:11 13;stroke-dashoffset:12;animation:IIRPNFHY_draw 2000ms ease 158ms forwards;}.IIRPNFHY_14{stroke-dasharray:11 13;stroke-dashoffset:12;animation:IIRPNFHY_draw 2000ms ease 170ms forwards;}.IIRPNFHY_15{stroke-dasharray:11 13;stroke-dashoffset:12;animation:IIRPNFHY_draw 2000ms ease 182ms forwards;}.IIRPNFHY_16{stroke-dasharray:11 13;stroke-dashoffset:12;animation:IIRPNFHY_draw 2000ms ease 195ms forwards;}.IIRPNFHY_17{stroke-dasharray:11 13;stroke-dashoffset:12;animation:IIRPNFHY_draw 2000ms ease 207ms forwards;}.IIRPNFHY_18{stroke-dasharray:11 13;stroke-dashoffset:12;animation:IIRPNFHY_draw 2000ms ease 219ms forwards;}.IIRPNFHY_19{stroke-dasharray:81 83;stroke-dashoffset:82;animation:IIRPNFHY_draw 2000ms ease 231ms forwards;}.IIRPNFHY_20{stroke-dasharray:128 130;stroke-dashoffset:129;animation:IIRPNFHY_draw 2000ms ease 243ms forwards;}.IIRPNFHY_21{stroke-dasharray:14 16;stroke-dashoffset:15;animation:IIRPNFHY_draw 2000ms ease 256ms forwards;}.IIRPNFHY_22{stroke-dasharray:44 46;stroke-dashoffset:45;animation:IIRPNFHY_draw 2000ms ease 268ms forwards;}.IIRPNFHY_23{stroke-dasharray:9 11;stroke-dashoffset:10;animation:IIRPNFHY_draw 2000ms ease 280ms forwards;}.IIRPNFHY_24{stroke-dasharray:44 46;stroke-dashoffset:45;animation:IIRPNFHY_draw 2000ms ease 292ms forwards;}.IIRPNFHY_25{stroke-dasharray:9 11;stroke-dashoffset:10;animation:IIRPNFHY_draw 2000ms ease 304ms forwards;}.IIRPNFHY_26{stroke-dasharray:17 19;stroke-dashoffset:18;animation:IIRPNFHY_draw 2000ms ease 317ms forwards;}.IIRPNFHY_27{stroke-dasharray:22 24;stroke-dashoffset:23;animation:IIRPNFHY_draw 2000ms ease 329ms forwards;}.IIRPNFHY_28{stroke-dasharray:22 24;stroke-dashoffset:23;animation:IIRPNFHY_draw 2000ms ease 341ms forwards;}.IIRPNFHY_29{stroke-dasharray:238 240;stroke-dashoffset:239;animation:IIRPNFHY_draw 2000ms ease 353ms forwards;}.IIRPNFHY_30{stroke-dasharray:213 215;stroke-dashoffset:214;animation:IIRPNFHY_draw 2000ms ease 365ms forwards;}.IIRPNFHY_31{stroke-dasharray:645 647;stroke-dashoffset:646;animation:IIRPNFHY_draw 2000ms ease 378ms forwards;}.IIRPNFHY_32{stroke-dasharray:8 10;stroke-dashoffset:9;animation:IIRPNFHY_draw 2000ms ease 390ms forwards;}.IIRPNFHY_33{stroke-dasharray:428 430;stroke-dashoffset:429;animation:IIRPNFHY_draw 2000ms ease 402ms forwards;}.IIRPNFHY_34{stroke-dasharray:100 102;stroke-dashoffset:101;animation:IIRPNFHY_draw 2000ms ease 414ms forwards;}.IIRPNFHY_35{stroke-dasharray:34 36;stroke-dashoffset:35;animation:IIRPNFHY_draw 2000ms ease 426ms forwards;}.IIRPNFHY_36{stroke-dasharray:47 49;stroke-dashoffset:48;animation:IIRPNFHY_draw 2000ms ease 439ms forwards;}.IIRPNFHY_37{stroke-dasharray:535 537;stroke-dashoffset:536;animation:IIRPNFHY_draw 2000ms ease 451ms forwards;}.IIRPNFHY_38{stroke-dasharray:77 79;stroke-dashoffset:78;animation:IIRPNFHY_draw 2000ms ease 463ms forwards;}.IIRPNFHY_39{stroke-dasharray:77 79;stroke-dashoffset:78;animation:IIRPNFHY_draw 2000ms ease 475ms forwards;}.IIRPNFHY_40{stroke-dasharray:77 79;stroke-dashoffset:78;animation:IIRPNFHY_draw 2000ms ease 487ms forwards;}.IIRPNFHY_41{stroke-dasharray:77 79;stroke-dashoffset:78;animation:IIRPNFHY_draw 2000ms ease 500ms forwards;}.IIRPNFHY_42{stroke-dasharray:77 79;stroke-dashoffset:78;animation:IIRPNFHY_draw 2000ms ease 512ms forwards;}.IIRPNFHY_43{stroke-dasharray:413 415;stroke-dashoffset:414;animation:IIRPNFHY_draw 2000ms ease 524ms forwards;}.IIRPNFHY_44{stroke-dasharray:7 9;stroke-dashoffset:8;animation:IIRPNFHY_draw 2000ms ease 536ms forwards;}.IIRPNFHY_45{stroke-dasharray:16 18;stroke-dashoffset:17;animation:IIRPNFHY_draw 2000ms ease 548ms forwards;}.IIRPNFHY_46{stroke-dasharray:95 97;stroke-dashoffset:96;animation:IIRPNFHY_draw 2000ms ease 560ms forwards;}.IIRPNFHY_47{stroke-dasharray:95 97;stroke-dashoffset:96;animation:IIRPNFHY_draw 2000ms ease 573ms forwards;}.IIRPNFHY_48{stroke-dasharray:126 128;stroke-dashoffset:127;animation:IIRPNFHY_draw 2000ms ease 585ms forwards;}.IIRPNFHY_49{stroke-dasharray:13 15;stroke-dashoffset:14;animation:IIRPNFHY_draw 2000ms ease 597ms forwards;}.IIRPNFHY_50{stroke-dasharray:17 19;stroke-dashoffset:18;animation:IIRPNFHY_draw 2000ms ease 609ms forwards;}.IIRPNFHY_51{stroke-dasharray:13 15;stroke-dashoffset:14;animation:IIRPNFHY_draw 2000ms ease 621ms forwards;}.IIRPNFHY_52{stroke-dasharray:17 19;stroke-dashoffset:18;animation:IIRPNFHY_draw 2000ms ease 634ms forwards;}.IIRPNFHY_53{stroke-dasharray:95 97;stroke-dashoffset:96;animation:IIRPNFHY_draw 2000ms ease 646ms forwards;}.IIRPNFHY_54{stroke-dasharray:95 97;stroke-dashoffset:96;animation:IIRPNFHY_draw 2000ms ease 658ms forwards;}.IIRPNFHY_55{stroke-dasharray:79 81;stroke-dashoffset:80;animation:IIRPNFHY_draw 2000ms ease 670ms forwards;}.IIRPNFHY_56{stroke-dasharray:13 15;stroke-dashoffset:14;animation:IIRPNFHY_draw 2000ms ease 682ms forwards;}.IIRPNFHY_57{stroke-dasharray:17 19;stroke-dashoffset:18;animation:IIRPNFHY_draw 2000ms ease 695ms forwards;}.IIRPNFHY_58{stroke-dasharray:13 15;stroke-dashoffset:14;animation:IIRPNFHY_draw 2000ms ease 707ms forwards;}.IIRPNFHY_59{stroke-dasharray:17 19;stroke-dashoffset:18;animation:IIRPNFHY_draw 2000ms ease 719ms forwards;}.IIRPNFHY_60{stroke-dasharray:523 525;stroke-dashoffset:524;animation:IIRPNFHY_draw 2000ms ease 731ms forwards;}.IIRPNFHY_61{stroke-dasharray:20 22;stroke-dashoffset:21;animation:IIRPNFHY_draw 2000ms ease 743ms forwards;}.IIRPNFHY_62{stroke-dasharray:516 518;stroke-dashoffset:517;animation:IIRPNFHY_draw 2000ms ease 756ms forwards;}.IIRPNFHY_63{stroke-dasharray:20 22;stroke-dashoffset:21;animation:IIRPNFHY_draw 2000ms ease 768ms forwards;}.IIRPNFHY_64{stroke-dasharray:233 235;stroke-dashoffset:234;animation:IIRPNFHY_draw 2000ms ease 780ms forwards;}.IIRPNFHY_65{stroke-dasharray:129 131;stroke-dashoffset:130;animation:IIRPNFHY_draw 2000ms ease 792ms forwards;}.IIRPNFHY_66{stroke-dasharray:14 16;stroke-dashoffset:15;animation:IIRPNFHY_draw 2000ms ease 804ms forwards;}.IIRPNFHY_67{stroke-dasharray:233 235;stroke-dashoffset:234;animation:IIRPNFHY_draw 2000ms ease 817ms forwards;}.IIRPNFHY_68{stroke-dasharray:37 39;stroke-dashoffset:38;animation:IIRPNFHY_draw 2000ms ease 829ms forwards;}.IIRPNFHY_69{stroke-dasharray:129 131;stroke-dashoffset:130;animation:IIRPNFHY_draw 2000ms ease 841ms forwards;}.IIRPNFHY_70{stroke-dasharray:34 36;stroke-dashoffset:35;animation:IIRPNFHY_draw 2000ms ease 853ms forwards;}.IIRPNFHY_71{stroke-dasharray:10 12;stroke-dashoffset:11;animation:IIRPNFHY_draw 2000ms ease 865ms forwards;}.IIRPNFHY_72{stroke-dasharray:10 12;stroke-dashoffset:11;animation:IIRPNFHY_draw 2000ms ease 878ms forwards;}.IIRPNFHY_73{stroke-dasharray:14 16;stroke-dashoffset:15;animation:IIRPNFHY_draw 2000ms ease 890ms forwards;}.IIRPNFHY_74{stroke-dasharray:14 16;stroke-dashoffset:15;animation:IIRPNFHY_draw 2000ms ease 902ms forwards;}.IIRPNFHY_75{stroke-dasharray:4 6;stroke-dashoffset:5;animation:IIRPNFHY_draw 2000ms ease 914ms forwards;}.IIRPNFHY_76{stroke-dasharray:40 42;stroke-dashoffset:41;animation:IIRPNFHY_draw 2000ms ease 926ms forwards;}.IIRPNFHY_77{stroke-dasharray:4 6;stroke-dashoffset:5;animation:IIRPNFHY_draw 2000ms ease 939ms forwards;}.IIRPNFHY_78{stroke-dasharray:40 42;stroke-dashoffset:41;animation:IIRPNFHY_draw 2000ms ease 951ms forwards;}.IIRPNFHY_79{stroke-dasharray:14 16;stroke-dashoffset:15;animation:IIRPNFHY_draw 2000ms ease 963ms forwards;}.IIRPNFHY_80{stroke-dasharray:14 16;stroke-dashoffset:15;animation:IIRPNFHY_draw 2000ms ease 975ms forwards;}.IIRPNFHY_81{stroke-dasharray:14 16;stroke-dashoffset:15;animation:IIRPNFHY_draw 2000ms ease 987ms forwards;}.IIRPNFHY_82{stroke-dasharray:14 16;stroke-dashoffset:15;animation:IIRPNFHY_draw 2000ms ease 1000ms forwards;}@keyframes IIRPNFHY_draw{100%{stroke-dashoffset:0;}}@keyframes IIRPNFHY_fade{0%{stroke-opacity:1;}94.44444444444444%{stroke-opacity:1;}100%{stroke-opacity:0;}}</style></svg>