<svg xmlns="http://www.w3.org/2000/svg" viewBox="0 0 600 300"><style type="text/css">.st0{fill:#EAEEF2;} .st1{fill:none;stroke:#414042;stroke-width:1.5;stroke-linecap:round;stroke-miterlimit:10;} .st2{fill:none;stroke:#414042;stroke-width:1.5;stroke-miterlimit:10;} .st3{fill:#414042;} .st4{fill:#58595B;} .st5{fill:#FFFFFF;} .st6{fill:#D1D3D4;} .st7{fill:#3F51B5;} .st8{fill:#E6E7E8;} .st9{opacity:0.3;fill:#414042;} .st10{opacity:0.3;fill:#231F20;} .st11{fill:#BCBEC0;} .st12{font-family:&apos;Montserrat-Bold&apos;;} .st13{font-size:21.11px;} .st14{fill:#00D4FF;} .st15{fill:#66E5FF;} .st16{fill:#99EEFF;} .st17{fill:#596AB2;}</style><g id="XMLID_406_"><path id="XMLID_102_" class="st0 fajmdmVt_0" d="M55.1 69.8c0 8.9 7.2 16.1 16.1 16.1h72.7c8.8 0 15.8 7.1 15.8 15.8 0 8.8-7.1 15.8-15.8 15.8h-39.1c-9.5 0-17.2 7.7-17.2 17.2s7.7 17.2 17.2 17.2l142.8.4 2.5 41-223.4-1.2c-10.6-.1-19.2 8.5-19.2 19.1 0 10.6 8.6 19.1 19.1 19.1h49.4c10.6 0 19.2 8.6 19.2 19.2v29.8l429.3-.6v-20.9c0-11.8-9.6-21.5-21.4-21.5l-65.7-.4v-51.1h137.1c10.8 0 19.5-8.7 19.5-19.5s-8.7-19.5-19.5-19.5h-64.6c0-16.7-13.6-30.3-30.3-30.3h-41.2v-29.6h115c8.9 0 16.1-7.2 16.1-16.1 0-8.9-7.2-16.1-16.1-16.1h-482.2c-8.9.1-16.1 7.3-16.1 16.1z"/><g id="XMLID_85_"><path id="XMLID_87_" class="st1 fajmdmVt_1" d="M67.5 107.3h11.9"/><path id="XMLID_86_" class="st1 fajmdmVt_2" d="M73.4 113.2v-11.9"/></g><g id="XMLID_111_"><path id="XMLID_149_" class="st1 fajmdmVt_3" d="M428.9 26.8h11.9"/><path id="XMLID_134_" class="st1 fajmdmVt_4" d="M434.8 32.7v-11.9"/></g><g id="XMLID_79_"><path id="XMLID_81_" class="st1 fajmdmVt_5" d="M293.5 58l8.4-8.5"/><path id="XMLID_80_" class="st1 fajmdmVt_6" d="M301.9 58l-8.4-8.5"/></g><g id="XMLID_105_"><path id="XMLID_107_" class="st1 fajmdmVt_7" d="M569.2 129.5l8.4-8.5"/><path id="XMLID_106_" class="st1 fajmdmVt_8" d="M577.6 129.5l-8.4-8.5"/></g><path id="XMLID_74_" class="st2 fajmdmVt_9" d="M334.9 53.8h60.7"/><path id="XMLID_155_" class="st2 fajmdmVt_10" d="M129.4 53.8h60.7"/><path id="XMLID_100_" class="st2 fajmdmVt_11" d="M210.4 36.3h113.5"/><path id="XMLID_109_" class="st2 fajmdmVt_12" d="M24.7 155.4h71.3"/><path id="XMLID_103_" class="st2 fajmdmVt_13" d="M502.4 201.3h53.1"/><path id="XMLID_104_" class="st2 fajmdmVt_14" d="M569.2 201.3h-7.3"/><path id="XMLID_99_" class="st2 fajmdmVt_15" d="M329.3 53.8h-10.9"/><path id="XMLID_65_" class="st3 fajmdmVt_16" d="M537.3 110.3c0 1.6-1.3 3-3 3-1.6 0-3-1.3-3-3 0-1.6 1.3-3 3-3s3 1.3 3 3z"/><path id="XMLID_150_" class="st3 fajmdmVt_17" d="M191.5 74.6c0 2.4-2 4.4-4.4 4.4-2.4 0-4.4-2-4.4-4.4 0-2.4 2-4.4 4.4-4.4 2.4 0 4.4 1.9 4.4 4.4z"/><path id="XMLID_108_" class="st3 fajmdmVt_18" d="M81.5 179.4c0 1.6-1.3 3-3 3-1.6 0-3-1.3-3-3s1.3-3 3-3 3 1.4 3 3z"/><g id="XMLID_98_"><g id="XMLID_264_"><path id="XMLID_472_" class="st4 fajmdmVt_19" d="M460.1 215.3h-237.1v-139c0-1.1.9-2 2-2h233.2c1.1 0 2 .9 2 2v139z"/><path id="XMLID_82_" class="st2 fajmdmVt_20" d="M267.1 74.3h146.6"/><path id="XMLID_469_" class="st2 fajmdmVt_21" d="M253.3 74.3h10"/><path id="XMLID_468_" class="st2 fajmdmVt_22" d="M460.1 215.3h-237.1v-128.9c0-6.7 5.4-12.1 12.1-12.1h12"/><path id="XMLID_467_" class="st5 fajmdmVt_23" d="M235.8 88.1h211.7v111.4h-211.7z"/><path id="XMLID_466_" class="st5 fajmdmVt_24" d="M305.8 236.7h71.4v42.3h-71.4z"/><path id="XMLID_465_" class="st6 fajmdmVt_25" d="M305.8 236.7h71.4v21.1h-71.4z"/><path id="XMLID_461_" class="st2 fajmdmVt_26" d="M305.8 277.3v-40.6h71.4v40.6"/><path id="XMLID_463_" class="st5 fajmdmVt_27" d="M460.1 210.1h-237.1v26.4c0 3.1 2.5 5.6 5.6 5.6h226c3.1 0 5.6-2.5 5.6-5.6v-26.4z"/><path id="XMLID_462_" class="st2 fajmdmVt_28" d="M446.8 210.1h-223.8v19.7c0 6.8 5.5 12.3 12.3 12.3h211.5"/><path id="XMLID_449_" class="st7 fajmdmVt_29" d="M250.8 96h182.4v39.6h-182.4z"/><path id="XMLID_474_" class="st8 fajmdmVt_30" d="M317.7 141.6h48.5v51.1h-48.5z"/><path id="XMLID_475_" class="st8 fajmdmVt_31" d="M384.6 141.4h48.6v51.1h-48.6z"/><path id="XMLID_101_" class="st2 fajmdmVt_32" d="M459.5 119.9v24.9"/></g><path id="XMLID_148_" class="st9 fajmdmVt_33" d="M315.6 140.1c0-3.7-3-6.8-6.8-6.8h-88v96.7c0 7.9 6.5 14.4 14.4 14.4h68.5v33h2.1v1.7h11.3c2.8-1.8 4.8-4.8 5.4-8.3l1.5-9.4h-8.4v-121.3z"/><g id="XMLID_63_"><path id="XMLID_70_" class="st4 fajmdmVt_34" d="M307 271.4h-187.3c-.5 0-1-.5-1-1v-134c0-.6.5-1 1-1h187.3c.5 0 1 .4 1 1v134.1c0 .5-.5.9-1 .9z"/><path id="XMLID_147_" class="st2 fajmdmVt_35" d="M123.4 271.4c-2.6 0-4.7-2.1-4.7-4.7v-80"/><path id="XMLID_145_" class="st2 fajmdmVt_36" d="M203.5 135.4h99.7c2.6 0 4.7 2.1 4.7 4.7v123.7"/><path id="XMLID_69_" class="st3 fajmdmVt_37" d="M127.9 146.1h169.9v110.4h-169.9z"/><path id="XMLID_332_" class="st5 fajmdmVt_38" d="M304.7 279h-184.8c-4.4 0-8.2-3.2-8.9-7.6l-1.3-8h85.6l3.3 4.7h23.7l3.5-4.7h90.2l-1.1 7c-.9 4.9-5.2 8.6-10.2 8.6z"/><path id="XMLID_78_" class="st2 fajmdmVt_39" d="M304.7 279h-184.8c-4.4 0-8.2-3.2-8.9-7.6l-1.3-8h85.6l3.3 4.7h23.7l3.5-4.7h90.2l-1.1 7c-.9 4.9-5.2 8.6-10.2 8.6z"/><g id="XMLID_64_"><path id="XMLID_597_" class="st5 fajmdmVt_40" d="M150.2 157.1h19v2.5h-19z"/><path id="XMLID_596_" class="st5 fajmdmVt_41" d="M159.7 165.6h13.1v2.5h-13.1z"/><path id="XMLID_595_" class="st5 fajmdmVt_42" d="M201.8 165.6h91.4v2.5h-91.4z"/><path id="XMLID_594_" class="st5 fajmdmVt_43" d="M196.597 168.102h-14.7v-2.5h14.7z"/><path id="XMLID_593_" class="st5 fajmdmVt_44" d="M164.2 172.7h26.1v2.5h-26.1z"/><path id="XMLID_592_" class="st5 fajmdmVt_45" d="M174.8 182.7h33.2v2.5h-33.2z"/><path id="XMLID_591_" class="st5 fajmdmVt_46" d="M150.2 192.2h36.2v2.5h-36.2z"/><path id="XMLID_590_" class="st5 fajmdmVt_47" d="M216.526 194.658h-26.2v-2.5h26.2z"/><path id="XMLID_589_" class="st5 fajmdmVt_48" d="M159.7 201.6h48.6v2.5h-48.6z"/><path id="XMLID_588_" class="st5 fajmdmVt_49" d="M260.409 204.14h-32.3v-2.5h32.3z"/><path id="XMLID_587_" class="st5 fajmdmVt_50" d="M210.4 201.6h15.2v2.5h-15.2z"/><path id="XMLID_586_" class="st5 fajmdmVt_51" d="M175.9 211.1h42.5v2.5h-42.5z"/><path id="XMLID_585_" class="st5 fajmdmVt_52" d="M173.105 213.521h-8.9v-2.5h8.9z"/><path id="XMLID_68_" class="st5 fajmdmVt_53" d="M150.2 218h29v2.5h-29z"/><path id="XMLID_582_" class="st5 fajmdmVt_54" d="M181.5 218h10v2.5h-10z"/><path id="XMLID_581_" class="st5 fajmdmVt_55" d="M194.2 218h47.6v2.5h-47.6z"/><path id="XMLID_580_" class="st5 fajmdmVt_56" d="M288.398 220.489h-43v-2.5h43z"/><path id="XMLID_579_" class="st5 fajmdmVt_57" d="M159.7 227.4h15v2.5h-15z"/><path id="XMLID_578_" class="st5 fajmdmVt_58" d="M214.952 229.97h-35.7v-2.5h35.7z"/><path id="XMLID_577_" class="st5 fajmdmVt_59" d="M167.8 236.9h29v2.5h-29z"/><path id="XMLID_576_" class="st5 fajmdmVt_60" d="M202.9 236.9h29v2.5h-29z"/><path id="XMLID_575_" class="st5 fajmdmVt_61" d="M236.4 236.9h27.3v2.5h-27.3z"/><path id="XMLID_351_" class="st5 fajmdmVt_62" d="M290.591 185.277h-8.2v-2.5h8.2z"/><path id="XMLID_67_" class="st5 fajmdmVt_63" d="M210.9 182.7h67.9v2.5h-67.9z"/><path id="XMLID_328_" class="st5 fajmdmVt_64" d="M174.8 157.1h77.2v2.5h-77.2z"/><path id="XMLID_326_" class="st5 fajmdmVt_65" d="M137.3 153.4h4v4h-4z"/><path id="XMLID_294_" class="st5 fajmdmVt_66" d="M137.3 163.9h4v4h-4z"/><path id="XMLID_291_" class="st5 fajmdmVt_67" d="M137.3 174.5h4v4h-4z"/><path id="XMLID_182_" class="st5 fajmdmVt_68" d="M137.3 185.1h4v4h-4z"/><path id="XMLID_181_" class="st5 fajmdmVt_69" d="M137.3 195.6h4v4h-4z"/><path id="XMLID_178_" class="st5 fajmdmVt_70" d="M137.3 206.2h4v4h-4z"/><path id="XMLID_177_" class="st5 fajmdmVt_71" d="M137.3 216.7h4v4h-4z"/><path id="XMLID_66_" class="st5 fajmdmVt_72" d="M137.3 227.3h4v4h-4z"/><path id="XMLID_71_" class="st5 fajmdmVt_73" d="M137.3 237.9h4v4h-4z"/><path id="XMLID_72_" class="st5 fajmdmVt_74" d="M137.3 248.4h4v4h-4z"/></g><path id="XMLID_73_" class="st10 fajmdmVt_75" d="M120.4 135.4c-1 0-1.7.8-1.7 1.7v45.8h76c4.4 0 8-3.6 8-8v-39.5h-82.3z"/><path id="XMLID_1454_" class="st5 fajmdmVt_76" d="M196.5 179.4h-90c-1.5 0-2.7-1.2-2.7-2.7v-63.7c0-1.5 1.2-2.7 2.7-2.7h90c1.5 0 2.7 1.2 2.7 2.7v63.7c.1 1.5-1.2 2.7-2.7 2.7z"/><path id="XMLID_1453_" class="st11 fajmdmVt_77" d="M103.8 125v-10c0-2.6 2.1-4.8 4.8-4.8h85.9c2.6 0 4.8 2.1 4.8 4.8v10h-95.5z"/><path id="XMLID_1452_" class="st2 fajmdmVt_78" d="M137.9 110.3h56.6c2.6 0 4.8 2.1 4.8 4.8v59.6c0 2.6-2.1 4.8-4.8 4.8h-85.9c-2.6 0-4.8-2.1-4.8-4.8v-59.7c0-2.6 2.1-4.8 4.8-4.8h12.7"/><path id="XMLID_882_" class="st2 fajmdmVt_79" d="M124.9 110.3h7.6"/><path id="XMLID_879_" class="st2 fajmdmVt_80" d="M103.8 125.3h95.5"/><path id="XMLID_876_" class="st2 fajmdmVt_81" d="M111.5 118.4h1.7"/><path id="XMLID_873_" class="st2 fajmdmVt_82" d="M117.7 118.4h1.6"/><path id="XMLID_872_" class="st2 fajmdmVt_83" d="M123.8 118.4h1.6"/><text transform="translate(135.345 156.606)" class="st3 st12 st13" id="XMLID_76_">&lt;/&gt;</text></g><g id="XMLID_84_"><path id="XMLID_95_" class="st5 fajmdmVt_84" d="M455.4 278.7h8c.6 0 1.1-.5 1.1-1.1v-114.7c0-.2 0-.3-.1-.5l-4-8.6c-.4-.8-1.6-.8-2 0l-4 8.6c-.1.1-.1.3-.1.5v114.8c0 .6.5 1 1.1 1z"/><path id="XMLID_270_" class="st14 fajmdmVt_85" d="M454.3 166.5h10.1v101.2h-10.1z"/><path id="XMLID_97_" class="st15 fajmdmVt_86" d="M454.2 166.5h5.1v101.2h-5.1z"/><path id="XMLID_93_" class="st2 fajmdmVt_87" d="M454.3 278.7h10.1v-116.1l-4.5-9.7c-.2-.5-.9-.5-1.2 0l-4.5 9.7v116.1z"/><path id="XMLID_92_" class="st2 fajmdmVt_88" d="M464.8 166.5h-10.5"/><path id="XMLID_91_" class="st2 fajmdmVt_89" d="M465.2 267.8h-11.6"/></g><path id="XMLID_133_" class="st9 fajmdmVt_90" d="M460.1 77c0-3-2.5-5.5-5.5-5.5h-27.7c-9.7 7.3-17 15.2-17.6 15.8l-1.3 1.4 1.3 1.4c1 1.1 25.4 28 45.9 28 2.1 0 4.2-.3 6.4-.8v-2.9h-1.5v-37.4z"/><g id="XMLID_609_"><path id="XMLID_625_" class="st5 fajmdmVt_91" d="M502.4 85.9s-24.6 27.3-44.4 27.3c-19.8 0-44.4-27.3-44.4-27.3s24.6-27.3 44.4-27.3c19.8.1 44.4 27.3 44.4 27.3z"/><path id="XMLID_96_" class="st2 fajmdmVt_92" d="M502.4 85.9s-24.6 27.3-44.4 27.3c-19.8 0-44.4-27.3-44.4-27.3s24.6-27.3 44.4-27.3c19.8.1 44.4 27.3 44.4 27.3z"/><g id="XMLID_620_"><path id="XMLID_624_" class="st14 fajmdmVt_93" d="M477.7 85.9c0-10.8-8.7-19.6-19.6-19.7l-.1 39.3c10.9.1 19.7-8.7 19.7-19.6z"/><path id="XMLID_622_" class="st16 fajmdmVt_94" d="M458 66.3c-10.9 0-19.7 8.8-19.7 19.7 0 10.9 8.8 19.7 19.7 19.7h.1l.1-39.3c-.1-.1-.1-.1-.2-.1z"/></g><path id="XMLID_615_" class="st5 fajmdmVt_95" d="M467.7 85.9c0 5.3-4.3 9.6-9.6 9.6s-9.7-4.3-9.7-9.6 4.3-9.6 9.7-9.6c5.2 0 9.6 4.3 9.6 9.6z"/><path id="XMLID_614_" class="st2 fajmdmVt_96" d="M478.6 85.9c0 11.4-9.2 20.6-20.6 20.6-11.4 0-20.6-9.2-20.6-20.6 0-11.4 9.2-20.6 20.6-20.6 11.4 0 20.6 9.2 20.6 20.6z"/><path id="XMLID_613_" class="st3 fajmdmVt_97" d="M464.1 85.9c0 3.4-2.7 6.1-6.1 6.1-3.4 0-6.1-2.7-6.1-6.1 0-3.4 2.7-6.1 6.1-6.1 3.4 0 6.1 2.8 6.1 6.1z"/><path id="XMLID_611_" class="st2 fajmdmVt_98" d="M420.4 61.5v-7.7h7.2"/><path id="XMLID_627_" class="st2 fajmdmVt_99" d="M495.9 114.6v7.8h-7.2"/></g><g id="XMLID_135_"><path id="XMLID_154_" class="st7 fajmdmVt_100" d="M528.4 277.6v-28.3c0-.8-.6-1.4-1.4-1.4h-138.4c-.8 0-1.4.6-1.4 1.4v28.3c0 .8.6 1.4 1.4 1.4h138.4c.8 0 1.4-.6 1.4-1.4z"/><path id="XMLID_151_" class="st17 fajmdmVt_101" d="M387.2 251.8v10h141.3v-10c0-2.2-1.8-3.9-3.9-3.9h-133.5c-2.2 0-3.9 1.8-3.9 3.9z"/><path id="XMLID_146_" class="st2 fajmdmVt_102" d="M528.4 277.6v-28.3c0-.8-.6-1.4-1.4-1.4h-138.4c-.8 0-1.4.6-1.4 1.4v28.3c0 .8.6 1.4 1.4 1.4h138.4c.8 0 1.4-.6 1.4-1.4z"/><path id="XMLID_144_" class="st2 fajmdmVt_103" d="M403 247.9v19"/><path id="XMLID_143_" class="st2 fajmdmVt_104" d="M416.4 247.9v9.5"/><path id="XMLID_142_" class="st2 fajmdmVt_105" d="M429.8 247.9v9.5"/><path id="XMLID_141_" class="st2 fajmdmVt_106" d="M443.1 247.9v9.5"/><path id="XMLID_140_" class="st2 fajmdmVt_107" d="M456.5 247.9v19"/><path id="XMLID_139_" class="st2 fajmdmVt_108" d="M469.8 247.9v9.5"/><path id="XMLID_138_" class="st2 fajmdmVt_109" d="M483.2 247.9v9.5"/><path id="XMLID_137_" class="st2 fajmdmVt_110" d="M496.5 247.9v9.5"/><path id="XMLID_136_" class="st2 fajmdmVt_111" d="M509.9 247.9v19"/></g></g><g id="XMLID_43_"><path id="XMLID_75_" class="st2 fajmdmVt_112" d="M65.8 279.5h7.6"/><path id="XMLID_90_" class="st2 fajmdmVt_113" d="M538.7 279.5h16.8"/><path id="XMLID_293_" class="st2 fajmdmVt_114" d="M78.5 279.5h455.9"/></g></g><style>.fajmdmVt_0{stroke-dasharray:2473 2475;stroke-dashoffset:2474;animation:fajmdmVt_draw 2000ms ease 0ms forwards;}.fajmdmVt_1{stroke-dasharray:12 14;stroke-dashoffset:13;animation:fajmdmVt_draw 2000ms ease 8ms forwards;}.fajmdmVt_2{stroke-dasharray:12 14;stroke-dashoffset:13;animation:fajmdmVt_draw 2000ms ease 17ms forwards;}.fajmdmVt_3{stroke-dasharray:12 14;stroke-dashoffset:13;animation:fajmdmVt_draw 2000ms ease 26ms forwards;}.fajmdmVt_4{stroke-dasharray:12 14;stroke-dashoffset:13;animation:fajmdmVt_draw 2000ms ease 35ms forwards;}.fajmdmVt_5{stroke-dasharray:12 14;stroke-dashoffset:13;animation:fajmdmVt_draw 2000ms ease 43ms forwards;}.fajmdmVt_6{stroke-dasharray:12 14;stroke-dashoffset:13;animation:fajmdmVt_draw 2000ms ease 52ms forwards;}.fajmdmVt_7{stroke-dasharray:12 14;stroke-dashoffset:13;animation:fajmdmVt_draw 2000ms ease 61ms forwards;}.fajmdmVt_8{stroke-dasharray:12 14;stroke-dashoffset:13;animation:fajmdmVt_draw 2000ms ease 70ms forwards;}.fajmdmVt_9{stroke-dasharray:61 63;stroke-dashoffset:62;animation:fajmdmVt_draw 2000ms ease 78ms forwards;}.fajmdmVt_10{stroke-dasharray:61 63;stroke-dashoffset:62;animation:fajmdmVt_draw 2000ms ease 87ms forwards;}.fajmdmVt_11{stroke-dasharray:114 116;stroke-dashoffset:115;animation:fajmdmVt_draw 2000ms ease 96ms forwards;}.fajmdmVt_12{stroke-dasharray:72 74;stroke-dashoffset:73;animation:fajmdmVt_draw 2000ms ease 105ms forwards;}.fajmdmVt_13{stroke-dasharray:54 56;stroke-dashoffset:55;animation:fajmdmVt_draw 2000ms ease 114ms forwards;}.fajmdmVt_14{stroke-dasharray:8 10;stroke-dashoffset:9;animation:fajmdmVt_draw 2000ms ease 122ms forwards;}.fajmdmVt_15{stroke-dasharray:11 13;stroke-dashoffset:12;animation:fajmdmVt_draw 2000ms ease 131ms forwards;}.fajmdmVt_16{stroke-dasharray:19 21;stroke-dashoffset:20;animation:fajmdmVt_draw 2000ms ease 140ms forwards;}.fajmdmVt_17{stroke-dasharray:28 30;stroke-dashoffset:29;animation:fajmdmVt_draw 2000ms ease 149ms forwards;}.fajmdmVt_18{stroke-dasharray:19 21;stroke-dashoffset:20;animation:fajmdmVt_draw 2000ms ease 157ms forwards;}.fajmdmVt_19{stroke-dasharray:755 757;stroke-dashoffset:756;animation:fajmdmVt_draw 2000ms ease 166ms forwards;}.fajmdmVt_20{stroke-dasharray:147 149;stroke-dashoffset:148;animation:fajmdmVt_draw 2000ms ease 175ms forwards;}.fajmdmVt_21{stroke-dasharray:10 12;stroke-dashoffset:11;animation:fajmdmVt_draw 2000ms ease 184ms forwards;}.fajmdmVt_22{stroke-dasharray:398 400;stroke-dashoffset:399;animation:fajmdmVt_draw 2000ms ease 192ms forwards;}.fajmdmVt_23{stroke-dasharray:647 649;stroke-dashoffset:648;animation:fajmdmVt_draw 2000ms ease 201ms forwards;}.fajmdmVt_24{stroke-dasharray:228 230;stroke-dashoffset:229;animation:fajmdmVt_draw 2000ms ease 210ms forwards;}.fajmdmVt_25{stroke-dasharray:186 188;stroke-dashoffset:187;animation:fajmdmVt_draw 2000ms ease 219ms forwards;}.fajmdmVt_26{stroke-dasharray:153 155;stroke-dashoffset:154;animation:fajmdmVt_draw 2000ms ease 228ms forwards;}.fajmdmVt_27{stroke-dasharray:534 536;stroke-dashoffset:535;animation:fajmdmVt_draw 2000ms ease 236ms forwards;}.fajmdmVt_28{stroke-dasharray:475 477;stroke-dashoffset:476;animation:fajmdmVt_draw 2000ms ease 245ms forwards;}.fajmdmVt_29{stroke-dasharray:445 447;stroke-dashoffset:446;animation:fajmdmVt_draw 2000ms ease 254ms forwards;}.fajmdmVt_30{stroke-dasharray:200 202;stroke-dashoffset:201;animation:fajmdmVt_draw 2000ms ease 263ms forwards;}.fajmdmVt_31{stroke-dasharray:200 202;stroke-dashoffset:201;animation:fajmdmVt_draw 2000ms ease 271ms forwards;}.fajmdmVt_32{stroke-dasharray:25 27;stroke-dashoffset:26;animation:fajmdmVt_draw 2000ms ease 280ms forwards;}.fajmdmVt_33{stroke-dasharray:484 486;stroke-dashoffset:485;animation:fajmdmVt_draw 2000ms ease 289ms forwards;}.fajmdmVt_34{stroke-dasharray:649 651;stroke-dashoffset:650;animation:fajmdmVt_draw 2000ms ease 298ms forwards;}.fajmdmVt_35{stroke-dasharray:88 90;stroke-dashoffset:89;animation:fajmdmVt_draw 2000ms ease 307ms forwards;}.fajmdmVt_36{stroke-dasharray:231 233;stroke-dashoffset:232;animation:fajmdmVt_draw 2000ms ease 315ms forwards;}.fajmdmVt_37{stroke-dasharray:561 563;stroke-dashoffset:562;animation:fajmdmVt_draw 2000ms ease 324ms forwards;}.fajmdmVt_38{stroke-dasharray:439 441;stroke-dashoffset:440;animation:fajmdmVt_draw 2000ms ease 333ms forwards;}.fajmdmVt_39{stroke-dasharray:439 441;stroke-dashoffset:440;animation:fajmdmVt_draw 2000ms ease 342ms forwards;}.fajmdmVt_40{stroke-dasharray:43 45;stroke-dashoffset:44;animation:fajmdmVt_draw 2000ms ease 350ms forwards;}.fajmdmVt_41{stroke-dasharray:32 34;stroke-dashoffset:33;animation:fajmdmVt_draw 2000ms ease 359ms forwards;}.fajmdmVt_42{stroke-dasharray:188 190;stroke-dashoffset:189;animation:fajmdmVt_draw 2000ms ease 368ms forwards;}.fajmdmVt_43{stroke-dasharray:35 37;stroke-dashoffset:36;animation:fajmdmVt_draw 2000ms ease 377ms forwards;}.fajmdmVt_44{stroke-dasharray:58 60;stroke-dashoffset:59;animation:fajmdmVt_draw 2000ms ease 385ms forwards;}.fajmdmVt_45{stroke-dasharray:72 74;stroke-dashoffset:73;animation:fajmdmVt_draw 2000ms ease 394ms forwards;}.fajmdmVt_46{stroke-dasharray:78 80;stroke-dashoffset:79;animation:fajmdmVt_draw 2000ms ease 403ms forwards;}.fajmdmVt_47{stroke-dasharray:58 60;stroke-dashoffset:59;animation:fajmdmVt_draw 2000ms ease 412ms forwards;}.fajmdmVt_48{stroke-dasharray:103 105;stroke-dashoffset:104;animation:fajmdmVt_draw 2000ms ease 421ms forwards;}.fajmdmVt_49{stroke-dasharray:70 72;stroke-dashoffset:71;animation:fajmdmVt_draw 2000ms ease 429ms forwards;}.fajmdmVt_50{stroke-dasharray:36 38;stroke-dashoffset:37;animation:fajmdmVt_draw 2000ms ease 438ms forwards;}.fajmdmVt_51{stroke-dasharray:90 92;stroke-dashoffset:91;animation:fajmdmVt_draw 2000ms ease 447ms forwards;}.fajmdmVt_52{stroke-dasharray:23 25;stroke-dashoffset:24;animation:fajmdmVt_draw 2000ms ease 456ms forwards;}.fajmdmVt_53{stroke-dasharray:63 65;stroke-dashoffset:64;animation:fajmdmVt_draw 2000ms ease 464ms forwards;}.fajmdmVt_54{stroke-dasharray:25 27;stroke-dashoffset:26;animation:fajmdmVt_draw 2000ms ease 473ms forwards;}.fajmdmVt_55{stroke-dasharray:101 103;stroke-dashoffset:102;animation:fajmdmVt_draw 2000ms ease 482ms forwards;}.fajmdmVt_56{stroke-dasharray:91 93;stroke-dashoffset:92;animation:fajmdmVt_draw 2000ms ease 491ms forwards;}.fajmdmVt_57{stroke-dasharray:35 37;stroke-dashoffset:36;animation:fajmdmVt_draw 2000ms ease 500ms forwards;}.fajmdmVt_58{stroke-dasharray:77 79;stroke-dashoffset:78;animation:fajmdmVt_draw 2000ms ease 508ms forwards;}.fajmdmVt_59{stroke-dasharray:63 65;stroke-dashoffset:64;animation:fajmdmVt_draw 2000ms ease 517ms forwards;}.fajmdmVt_60{stroke-dasharray:63 65;stroke-dashoffset:64;animation:fajmdmVt_draw 2000ms ease 526ms forwards;}.fajmdmVt_61{stroke-dasharray:60 62;stroke-dashoffset:61;animation:fajmdmVt_draw 2000ms ease 535ms forwards;}.fajmdmVt_62{stroke-dasharray:22 24;stroke-dashoffset:23;animation:fajmdmVt_draw 2000ms ease 543ms forwards;}.fajmdmVt_63{stroke-dasharray:141 143;stroke-dashoffset:142;animation:fajmdmVt_draw 2000ms ease 552ms forwards;}.fajmdmVt_64{stroke-dasharray:160 162;stroke-dashoffset:161;animation:fajmdmVt_draw 2000ms ease 561ms forwards;}.fajmdmVt_65{stroke-dasharray:16 18;stroke-dashoffset:17;animation:fajmdmVt_draw 2000ms ease 570ms forwards;}.fajmdmVt_66{stroke-dasharray:16 18;stroke-dashoffset:17;animation:fajmdmVt_draw 2000ms ease 578ms forwards;}.fajmdmVt_67{stroke-dasharray:16 18;stroke-dashoffset:17;animation:fajmdmVt_draw 2000ms ease 587ms forwards;}.fajmdmVt_68{stroke-dasharray:16 18;stroke-dashoffset:17;animation:fajmdmVt_draw 2000ms ease 596ms forwards;}.fajmdmVt_69{stroke-dasharray:16 18;stroke-dashoffset:17;animation:fajmdmVt_draw 2000ms ease 605ms forwards;}.fajmdmVt_70{stroke-dasharray:16 18;stroke-dashoffset:17;animation:fajmdmVt_draw 2000ms ease 614ms forwards;}.fajmdmVt_71{stroke-dasharray:16 18;stroke-dashoffset:17;animation:fajmdmVt_draw 2000ms ease 622ms forwards;}.fajmdmVt_72{stroke-dasharray:16 18;stroke-dashoffset:17;animation:fajmdmVt_draw 2000ms ease 631ms forwards;}.fajmdmVt_73{stroke-dasharray:16 18;stroke-dashoffset:17;animation:fajmdmVt_draw 2000ms ease 640ms forwards;}.fajmdmVt_74{stroke-dasharray:16 18;stroke-dashoffset:17;animation:fajmdmVt_draw 2000ms ease 649ms forwards;}.fajmdmVt_75{stroke-dasharray:259 261;stroke-dashoffset:260;animation:fajmdmVt_draw 2000ms ease 657ms forwards;}.fajmdmVt_76{stroke-dasharray:325 327;stroke-dashoffset:326;animation:fajmdmVt_draw 2000ms ease 666ms forwards;}.fajmdmVt_77{stroke-dasharray:217 219;stroke-dashoffset:218;animation:fajmdmVt_draw 2000ms ease 675ms forwards;}.fajmdmVt_78{stroke-dasharray:305 307;stroke-dashoffset:306;animation:fajmdmVt_draw 2000ms ease 684ms forwards;}.fajmdmVt_79{stroke-dasharray:8 10;stroke-dashoffset:9;animation:fajmdmVt_draw 2000ms ease 692ms forwards;}.fajmdmVt_80{stroke-dasharray:96 98;stroke-dashoffset:97;animation:fajmdmVt_draw 2000ms ease 701ms forwards;}.fajmdmVt_81{stroke-dasharray:2 4;stroke-dashoffset:3;animation:fajmdmVt_draw 2000ms ease 710ms forwards;}.fajmdmVt_82{stroke-dasharray:2 4;stroke-dashoffset:3;animation:fajmdmVt_draw 2000ms ease 719ms forwards;}.fajmdmVt_83{stroke-dasharray:2 4;stroke-dashoffset:3;animation:fajmdmVt_draw 2000ms ease 728ms forwards;}.fajmdmVt_84{stroke-dasharray:264 266;stroke-dashoffset:265;animation:fajmdmVt_draw 2000ms ease 736ms forwards;}.fajmdmVt_85{stroke-dasharray:223 225;stroke-dashoffset:224;animation:fajmdmVt_draw 2000ms ease 745ms forwards;}.fajmdmVt_86{stroke-dasharray:213 215;stroke-dashoffset:214;animation:fajmdmVt_draw 2000ms ease 754ms forwards;}.fajmdmVt_87{stroke-dasharray:266 268;stroke-dashoffset:267;animation:fajmdmVt_draw 2000ms ease 763ms forwards;}.fajmdmVt_88{stroke-dasharray:11 13;stroke-dashoffset:12;animation:fajmdmVt_draw 2000ms ease 771ms forwards;}.fajmdmVt_89{stroke-dasharray:12 14;stroke-dashoffset:13;animation:fajmdmVt_draw 2000ms ease 780ms forwards;}.fajmdmVt_90{stroke-dasharray:168 170;stroke-dashoffset:169;animation:fajmdmVt_draw 2000ms ease 789ms forwards;}.fajmdmVt_91{stroke-dasharray:214 216;stroke-dashoffset:215;animation:fajmdmVt_draw 2000ms ease 798ms forwards;}.fajmdmVt_92{stroke-dasharray:214 216;stroke-dashoffset:215;animation:fajmdmVt_draw 2000ms ease 807ms forwards;}.fajmdmVt_93{stroke-dasharray:102 104;stroke-dashoffset:103;animation:fajmdmVt_draw 2000ms ease 815ms forwards;}.fajmdmVt_94{stroke-dasharray:102 104;stroke-dashoffset:103;animation:fajmdmVt_draw 2000ms ease 824ms forwards;}.fajmdmVt_95{stroke-dasharray:61 63;stroke-dashoffset:62;animation:fajmdmVt_draw 2000ms ease 833ms forwards;}.fajmdmVt_96{stroke-dasharray:130 132;stroke-dashoffset:131;animation:fajmdmVt_draw 2000ms ease 842ms forwards;}.fajmdmVt_97{stroke-dasharray:39 41;stroke-dashoffset:40;animation:fajmdmVt_draw 2000ms ease 850ms forwards;}.fajmdmVt_98{stroke-dasharray:15 17;stroke-dashoffset:16;animation:fajmdmVt_draw 2000ms ease 859ms forwards;}.fajmdmVt_99{stroke-dasharray:15 17;stroke-dashoffset:16;animation:fajmdmVt_draw 2000ms ease 868ms forwards;}.fajmdmVt_100{stroke-dasharray:343 345;stroke-dashoffset:344;animation:fajmdmVt_draw 2000ms ease 877ms forwards;}.fajmdmVt_101{stroke-dasharray:308 310;stroke-dashoffset:309;animation:fajmdmVt_draw 2000ms ease 885ms forwards;}.fajmdmVt_102{stroke-dasharray:343 345;stroke-dashoffset:344;animation:fajmdmVt_draw 2000ms ease 894ms forwards;}.fajmdmVt_103{stroke-dasharray:19 21;stroke-dashoffset:20;animation:fajmdmVt_draw 2000ms ease 903ms forwards;}.fajmdmVt_104{stroke-dasharray:10 12;stroke-dashoffset:11;animation:fajmdmVt_draw 2000ms ease 912ms forwards;}.fajmdmVt_105{stroke-dasharray:10 12;stroke-dashoffset:11;animation:fajmdmVt_draw 2000ms ease 921ms forwards;}.fajmdmVt_106{stroke-dasharray:10 12;stroke-dashoffset:11;animation:fajmdmVt_draw 2000ms ease 929ms forwards;}.fajmdmVt_107{stroke-dasharray:19 21;stroke-dashoffset:20;animation:fajmdmVt_draw 2000ms ease 938ms forwards;}.fajmdmVt_108{stroke-dasharray:10 12;stroke-dashoffset:11;animation:fajmdmVt_draw 2000ms ease 947ms forwards;}.fajmdmVt_109{stroke-dasharray:10 12;stroke-dashoffset:11;animation:fajmdmVt_draw 2000ms ease 956ms forwards;}.fajmdmVt_110{stroke-dasharray:10 12;stroke-dashoffset:11;animation:fajmdmVt_draw 2000ms ease 964ms forwards;}.fajmdmVt_111{stroke-dasharray:19 21;stroke-dashoffset:20;animation:fajmdmVt_draw 2000ms ease 973ms forwards;}.fajmdmVt_112{stroke-dasharray:8 10;stroke-dashoffset:9;animation:fajmdmVt_draw 2000ms ease 982ms forwards;}.fajmdmVt_113{stroke-dasharray:17 19;stroke-dashoffset:18;animation:fajmdmVt_draw 2000ms ease 991ms forwards;}.fajmdmVt_114{stroke-dasharray:456 458;stroke-dashoffset:457;animation:fajmdmVt_draw 2000ms ease 1000ms forwards;}@keyframes fajmdmVt_draw{100%{stroke-dashoffset:0;}}@keyframes fajmdmVt_fade{0%{stroke-opacity:1;}94.44444444444444%{stroke-opacity:1;}100%{stroke-opacity:0;}}</style></svg>