<svg version="1" id="Layer_1" xmlns="http://www.w3.org/2000/svg" viewBox="0 0 600 326"><style>.st1{stroke-linecap:round}.st1,.st2{fill:none;stroke:#414042;stroke-width:1.5;stroke-miterlimit:10}.st3{fill:#414042}.st4{fill:#58595b}.st5{fill:#fff}.st7{fill:#3f51b5}.st8{fill:#e6e7e8}.st9{opacity:.3;fill:#414042}.st14{fill:#00d4ff}.st16{fill:#5e6fb7}</style><g id="XMLID_406_"><path id="XMLID_102_" d="M69 88c0 8 7 15 15 15h69c8 0 14 7 14 15s-6 15-14 15h-37c-9 0-16 7-16 16s7 16 16 16h134l2 39-209-1c-10 0-18 8-18 18s8 18 17 18h47c10 0 18 8 18 18v28l403-1v-19c0-11-9-20-20-21h-62v-48h129c10 0 18-8 18-18s-8-19-18-19h-61c0-15-13-28-28-28h-39v-28h108c8 0 15-7 15-15s-7-15-15-15H84c-8 0-15 6-15 15z" stroke-dasharray="2322 2324" stroke-dashoffset="2323" fill="#eaeef2" style="animation:uzHHCFPn_draw 2000ms ease-in-out 0ms forwards"/><g id="XMLID_85_"><path id="XMLID_87_" d="M81 123h11" class="st1" stroke-dasharray="12 14" stroke-dashoffset="13" style="animation:uzHHCFPn_draw 2000ms ease-in-out 8ms forwards"/><path id="XMLID_86_" d="M86 129v-12" class="st1" stroke-dasharray="12 14" stroke-dashoffset="13" style="animation:uzHHCFPn_draw 2000ms ease-in-out 16ms forwards"/></g><g id="XMLID_111_"><path id="XMLID_149_" d="M420 47h11" class="st1" stroke-dasharray="12 14" stroke-dashoffset="13" style="animation:uzHHCFPn_draw 2000ms ease-in-out 24ms forwards"/><path id="XMLID_134_" d="M426 53V42" class="st1" stroke-dasharray="12 14" stroke-dashoffset="13" style="animation:uzHHCFPn_draw 2000ms ease-in-out 33ms forwards"/></g><g id="XMLID_79_"><path id="XMLID_81_" d="M293 77l8-8" class="st1" stroke-dasharray="12 14" stroke-dashoffset="13" style="animation:uzHHCFPn_draw 2000ms ease-in-out 41ms forwards"/><path id="XMLID_80_" d="M301 77l-8-8" class="st1" stroke-dasharray="12 14" stroke-dashoffset="13" style="animation:uzHHCFPn_draw 2000ms ease-in-out 49ms forwards"/></g><g id="XMLID_105_"><path id="XMLID_107_" d="M552 144l8-8" class="st1" stroke-dasharray="12 14" stroke-dashoffset="13" style="animation:uzHHCFPn_draw 2000ms ease-in-out 57ms forwards"/><path id="XMLID_106_" d="M560 144l-8-8" class="st1" stroke-dasharray="12 14" stroke-dashoffset="13" style="animation:uzHHCFPn_draw 2000ms ease-in-out 66ms forwards"/></g><path id="XMLID_74_" d="M332 73h57" class="st2" stroke-dasharray="57 59" stroke-dashoffset="58" style="animation:uzHHCFPn_draw 2000ms ease-in-out 74ms forwards"/><path id="XMLID_155_" d="M139 73h57" class="st2" stroke-dasharray="57 59" stroke-dashoffset="58" style="animation:uzHHCFPn_draw 2000ms ease-in-out 82ms forwards"/><path id="XMLID_100_" d="M215 56h107" class="st2" stroke-dasharray="107 109" stroke-dashoffset="108" style="animation:uzHHCFPn_draw 2000ms ease-in-out 90ms forwards"/><path id="XMLID_109_" d="M41 168h67" class="st2" stroke-dasharray="67 69" stroke-dashoffset="68" style="animation:uzHHCFPn_draw 2000ms ease-in-out 99ms forwards"/><path id="XMLID_103_" d="M489 211h50" class="st2" stroke-dasharray="50 52" stroke-dashoffset="51" style="animation:uzHHCFPn_draw 2000ms ease-in-out 107ms forwards"/><path id="XMLID_104_" d="M552 211h-7" class="st2" stroke-dasharray="7 9" stroke-dashoffset="8" style="animation:uzHHCFPn_draw 2000ms ease-in-out 115ms forwards"/><path id="XMLID_99_" d="M327 73h-11" class="st2" stroke-dasharray="11 13" stroke-dashoffset="12" style="animation:uzHHCFPn_draw 2000ms ease-in-out 123ms forwards"/><path id="XMLID_65_" d="M522 126l-3 3-3-3c0-2 2-3 3-3 2 0 3 1 3 3z" class="st3" stroke-dasharray="18 20" stroke-dashoffset="19" style="animation:uzHHCFPn_draw 2000ms ease-in-out 132ms forwards"/><path id="XMLID_150_" d="M197 92c0 3-2 4-4 4s-4-2-4-4 2-4 4-4 4 2 4 4z" class="st3" stroke-dasharray="26 28" stroke-dashoffset="27" style="animation:uzHHCFPn_draw 2000ms ease-in-out 140ms forwards"/><path id="XMLID_108_" d="M94 191c0 1-1 2-3 2l-3-2 3-3c2 0 3 1 3 3z" class="st3" stroke-dasharray="18 20" stroke-dashoffset="19" style="animation:uzHHCFPn_draw 2000ms ease-in-out 148ms forwards"/><g id="XMLID_98_"><g id="XMLID_264_"><path id="XMLID_472_" d="M449 224H227V94l2-2h218l2 2v130z" class="st4" stroke-dasharray="709 711" stroke-dashoffset="710" style="animation:uzHHCFPn_draw 2000ms ease-in-out 157ms forwards"/><path id="XMLID_82_" d="M268 92h138" class="st2" stroke-dasharray="138 140" stroke-dashoffset="139" style="animation:uzHHCFPn_draw 2000ms ease-in-out 165ms forwards"/><path id="XMLID_469_" d="M255 92h10" class="st2" stroke-dasharray="10 12" stroke-dashoffset="11" style="animation:uzHHCFPn_draw 2000ms ease-in-out 173ms forwards"/><path id="XMLID_468_" d="M449 224H227V103c0-6 5-11 11-11h11" class="st2" stroke-dasharray="373 375" stroke-dashoffset="374" style="animation:uzHHCFPn_draw 2000ms ease-in-out 181ms forwards"/><path id="XMLID_467_" d="M239 105h199v105H239z" class="st5" stroke-dasharray="607 609" stroke-dashoffset="608" style="animation:uzHHCFPn_draw 2000ms ease-in-out 190ms forwards"/><path id="XMLID_466_" d="M305 244h67v40h-67z" class="st5" stroke-dasharray="214 216" stroke-dashoffset="215" style="animation:uzHHCFPn_draw 2000ms ease-in-out 198ms forwards"/><path id="XMLID_465_" d="M305 244h67v20h-67z" stroke-dasharray="174 176" stroke-dashoffset="175" fill="#d1d3d4" style="animation:uzHHCFPn_draw 2000ms ease-in-out 206ms forwards"/><path id="XMLID_461_" d="M305 283v-39h67v39" class="st2" stroke-dasharray="144 146" stroke-dashoffset="145" style="animation:uzHHCFPn_draw 2000ms ease-in-out 214ms forwards"/><path id="XMLID_463_" d="M449 220H227v24c0 3 2 6 5 6h212c3 0 5-3 5-6v-24z" class="st5" stroke-dasharray="501 503" stroke-dashoffset="502" style="animation:uzHHCFPn_draw 2000ms ease-in-out 223ms forwards"/><path id="XMLID_462_" d="M437 220H227v18c0 6 5 12 11 12h199" class="st2" stroke-dasharray="446 448" stroke-dashoffset="447" style="animation:uzHHCFPn_draw 2000ms ease-in-out 231ms forwards"/><path id="XMLID_449_" d="M253 112h171v38H253z" class="st7" stroke-dasharray="417 419" stroke-dashoffset="418" style="animation:uzHHCFPn_draw 2000ms ease-in-out 239ms forwards"/><path id="XMLID_474_" d="M316 155h45v48h-45z" class="st8" stroke-dasharray="188 190" stroke-dashoffset="189" style="animation:uzHHCFPn_draw 2000ms ease-in-out 247ms forwards"/><path id="XMLID_475_" d="M379 155h45v48h-45z" class="st8" stroke-dasharray="188 190" stroke-dashoffset="189" style="animation:uzHHCFPn_draw 2000ms ease-in-out 256ms forwards"/><path id="XMLID_101_" d="M449 135v23" class="st2" stroke-dasharray="24 26" stroke-dashoffset="25" style="animation:uzHHCFPn_draw 2000ms ease-in-out 264ms forwards"/></g><path id="XMLID_148_" d="M314 154c0-4-3-7-7-7h-82v91c0 7 6 14 13 14h65v31h2v1h10c3-2 5-4 5-8l2-8h-8V154z" class="st9" stroke-dasharray="455 457" stroke-dashoffset="456" style="animation:uzHHCFPn_draw 2000ms ease-in-out 272ms forwards"/><g id="XMLID_63_"><path id="XMLID_70_" d="M306 277H130l-1-1V150l1-1h176l1 1v126l-1 1z" class="st4" stroke-dasharray="610 612" stroke-dashoffset="611" style="animation:uzHHCFPn_draw 2000ms ease-in-out 280ms forwards"/><path id="XMLID_147_" d="M133 277c-2 0-4-2-4-4v-75" class="st2" stroke-dasharray="82 84" stroke-dashoffset="83" style="animation:uzHHCFPn_draw 2000ms ease-in-out 289ms forwards"/><path id="XMLID_145_" d="M209 149h93c3 0 5 2 5 5v116" class="st2" stroke-dasharray="217 219" stroke-dashoffset="218" style="animation:uzHHCFPn_draw 2000ms ease-in-out 297ms forwards"/><path id="XMLID_69_" d="M138 159h159v104H138z" class="st3" stroke-dasharray="526 528" stroke-dashoffset="527" style="animation:uzHHCFPn_draw 2000ms ease-in-out 305ms forwards"/><path id="XMLID_332_" d="M303 284H130c-4 0-8-3-8-7l-2-7h81l3 4h22l3-5h85l-1 7c-1 5-5 8-10 8z" class="st5" stroke-dasharray="412 414" stroke-dashoffset="413" style="animation:uzHHCFPn_draw 2000ms ease-in-out 314ms forwards"/><path id="XMLID_78_" d="M303 284H130c-4 0-8-3-8-7l-2-7h81l3 4h22l3-5h85l-1 7c-1 5-5 8-10 8z" class="st2" stroke-dasharray="412 414" stroke-dashoffset="413" style="animation:uzHHCFPn_draw 2000ms ease-in-out 322ms forwards"/><g id="XMLID_64_"><path id="XMLID_597_" d="M159 170h17v2h-17z" class="st5" stroke-dasharray="41 43" stroke-dashoffset="42" style="animation:uzHHCFPn_draw 2000ms ease-in-out 330ms forwards"/><path id="XMLID_596_" d="M167 178h13v2h-13z" class="st5" stroke-dasharray="30 32" stroke-dashoffset="31" style="animation:uzHHCFPn_draw 2000ms ease-in-out 338ms forwards"/><path id="XMLID_595_" d="M207 178h86v2h-86z" class="st5" stroke-dasharray="177 179" stroke-dashoffset="178" style="animation:uzHHCFPn_draw 2000ms ease-in-out 347ms forwards"/><path id="XMLID_594_" transform="rotate(-180 195 179)" d="M188 178h14v2h-14z" class="st5" stroke-dasharray="33 35" stroke-dashoffset="34" style="animation:uzHHCFPn_draw 2000ms ease-in-out 355ms forwards"/><path id="XMLID_593_" d="M172 184h24v3h-24z" class="st5" stroke-dasharray="54 56" stroke-dashoffset="55" style="animation:uzHHCFPn_draw 2000ms ease-in-out 363ms forwards"/><path id="XMLID_592_" d="M182 194h31v2h-31z" class="st5" stroke-dasharray="67 69" stroke-dashoffset="68" style="animation:uzHHCFPn_draw 2000ms ease-in-out 371ms forwards"/><path id="XMLID_591_" d="M159 203h34v2h-34z" class="st5" stroke-dasharray="73 75" stroke-dashoffset="74" style="animation:uzHHCFPn_draw 2000ms ease-in-out 380ms forwards"/><path id="XMLID_590_" transform="rotate(-180 208 204)" d="M196 203h25v2h-25z" class="st5" stroke-dasharray="54 56" stroke-dashoffset="55" style="animation:uzHHCFPn_draw 2000ms ease-in-out 388ms forwards"/><path id="XMLID_589_" d="M167 212h46v2h-46z" class="st5" stroke-dasharray="96 98" stroke-dashoffset="97" style="animation:uzHHCFPn_draw 2000ms ease-in-out 396ms forwards"/><path id="XMLID_588_" transform="rotate(-180 247 213)" d="M232 212h30v2h-30z" class="st5" stroke-dasharray="66 68" stroke-dashoffset="67" style="animation:uzHHCFPn_draw 2000ms ease-in-out 404ms forwards"/><path id="XMLID_587_" d="M215 212h14v2h-14z" class="st5" stroke-dasharray="34 36" stroke-dashoffset="35" style="animation:uzHHCFPn_draw 2000ms ease-in-out 413ms forwards"/><path id="XMLID_586_" d="M183 220h39v3h-39z" class="st5" stroke-dasharray="85 87" stroke-dashoffset="86" style="animation:uzHHCFPn_draw 2000ms ease-in-out 421ms forwards"/><path id="XMLID_585_" transform="rotate(-180 176 221)" d="M172 220h8v3h-8z" class="st5" stroke-dasharray="22 24" stroke-dashoffset="23" style="animation:uzHHCFPn_draw 2000ms ease-in-out 429ms forwards"/><path id="XMLID_68_" d="M159 227h27v2h-27z" class="st5" stroke-dasharray="59 61" stroke-dashoffset="60" style="animation:uzHHCFPn_draw 2000ms ease-in-out 438ms forwards"/><path id="XMLID_582_" d="M188 227h9v2h-9z" class="st5" stroke-dasharray="24 26" stroke-dashoffset="25" style="animation:uzHHCFPn_draw 2000ms ease-in-out 446ms forwards"/><path id="XMLID_581_" d="M200 227h44v2h-44z" class="st5" stroke-dasharray="94 96" stroke-dashoffset="95" style="animation:uzHHCFPn_draw 2000ms ease-in-out 454ms forwards"/><path id="XMLID_580_" transform="rotate(-180 268 228)" d="M248 227h40v2h-40z" class="st5" stroke-dasharray="86 88" stroke-dashoffset="87" style="animation:uzHHCFPn_draw 2000ms ease-in-out 462ms forwards"/><path id="XMLID_579_" d="M167 236h15v2h-15z" class="st5" stroke-dasharray="33 35" stroke-dashoffset="34" style="animation:uzHHCFPn_draw 2000ms ease-in-out 471ms forwards"/><path id="XMLID_578_" transform="rotate(-180 202 237)" d="M186 236h33v2h-33z" class="st5" stroke-dasharray="72 74" stroke-dashoffset="73" style="animation:uzHHCFPn_draw 2000ms ease-in-out 479ms forwards"/><path id="XMLID_577_" d="M175 245h27v2h-27z" class="st5" stroke-dasharray="59 61" stroke-dashoffset="60" style="animation:uzHHCFPn_draw 2000ms ease-in-out 487ms forwards"/><path id="XMLID_576_" d="M208 245h27v2h-27z" class="st5" stroke-dasharray="59 61" stroke-dashoffset="60" style="animation:uzHHCFPn_draw 2000ms ease-in-out 495ms forwards"/><path id="XMLID_575_" d="M239 245h26v2h-26z" class="st5" stroke-dasharray="56 58" stroke-dashoffset="57" style="animation:uzHHCFPn_draw 2000ms ease-in-out 504ms forwards"/><path id="XMLID_351_" transform="rotate(-180 286 195)" d="M283 194h7v2h-7z" class="st5" stroke-dasharray="21 23" stroke-dashoffset="22" style="animation:uzHHCFPn_draw 2000ms ease-in-out 512ms forwards"/><path id="XMLID_67_" d="M215 194h64v2h-64z" class="st5" stroke-dasharray="133 135" stroke-dashoffset="134" style="animation:uzHHCFPn_draw 2000ms ease-in-out 520ms forwards"/><path id="XMLID_328_" d="M182 170h72v2h-72z" class="st5" stroke-dasharray="150 152" stroke-dashoffset="151" style="animation:uzHHCFPn_draw 2000ms ease-in-out 528ms forwards"/><path id="XMLID_326_" d="M146 166h4v4h-4z" class="st5" stroke-dasharray="16 18" stroke-dashoffset="17" style="animation:uzHHCFPn_draw 2000ms ease-in-out 537ms forwards"/><path id="XMLID_294_" d="M146 176h4v4h-4z" class="st5" stroke-dasharray="16 18" stroke-dashoffset="17" style="animation:uzHHCFPn_draw 2000ms ease-in-out 545ms forwards"/><path id="XMLID_291_" d="M146 186h4v4h-4z" class="st5" stroke-dasharray="16 18" stroke-dashoffset="17" style="animation:uzHHCFPn_draw 2000ms ease-in-out 553ms forwards"/><path id="XMLID_182_" d="M146 196h4v4h-4z" class="st5" stroke-dasharray="16 18" stroke-dashoffset="17" style="animation:uzHHCFPn_draw 2000ms ease-in-out 561ms forwards"/><path id="XMLID_181_" d="M146 206h4v4h-4z" class="st5" stroke-dasharray="16 18" stroke-dashoffset="17" style="animation:uzHHCFPn_draw 2000ms ease-in-out 570ms forwards"/><path id="XMLID_178_" d="M146 216h4v4h-4z" class="st5" stroke-dasharray="16 18" stroke-dashoffset="17" style="animation:uzHHCFPn_draw 2000ms ease-in-out 578ms forwards"/><path id="XMLID_177_" d="M146 226h4v4h-4z" class="st5" stroke-dasharray="16 18" stroke-dashoffset="17" style="animation:uzHHCFPn_draw 2000ms ease-in-out 586ms forwards"/><path id="XMLID_66_" d="M146 236h4v3h-4z" class="st5" stroke-dasharray="16 18" stroke-dashoffset="17" style="animation:uzHHCFPn_draw 2000ms ease-in-out 595ms forwards"/><path id="XMLID_71_" d="M146 246h4v3h-4z" class="st5" stroke-dasharray="16 18" stroke-dashoffset="17" style="animation:uzHHCFPn_draw 2000ms ease-in-out 603ms forwards"/><path id="XMLID_72_" d="M146 255h4v4h-4z" class="st5" stroke-dasharray="16 18" stroke-dashoffset="17" style="animation:uzHHCFPn_draw 2000ms ease-in-out 611ms forwards"/></g><path id="XMLID_1454_" d="M202 191h-84c-2 0-3-2-3-3v-59c0-2 1-3 3-3h84l3 2v60l-3 3z" class="st5" stroke-dasharray="304 306" stroke-dashoffset="305" style="animation:uzHHCFPn_draw 2000ms ease-in-out 628ms forwards"/><path id="XMLID_1453_" d="M115 140v-10c0-2 2-4 4-4h81c3 0 5 2 5 4v9h-90z" stroke-dasharray="203 205" stroke-dashoffset="204" fill="#bcbec0" style="animation:uzHHCFPn_draw 2000ms ease-in-out 636ms forwards"/><path id="XMLID_1452_" d="M147 126h53c3 0 5 2 5 4v56c0 3-2 5-5 5h-81c-2 0-4-2-4-5v-56c0-2 2-4 4-4h12" class="st2" stroke-dasharray="286 288" stroke-dashoffset="287" style="animation:uzHHCFPn_draw 2000ms ease-in-out 644ms forwards"/><path id="XMLID_882_" d="M135 126h7" class="st2" stroke-dasharray="8 10" stroke-dashoffset="9" style="animation:uzHHCFPn_draw 2000ms ease-in-out 652ms forwards"/><path id="XMLID_879_" d="M115 140h90" class="st2" stroke-dasharray="90 92" stroke-dashoffset="91" style="animation:uzHHCFPn_draw 2000ms ease-in-out 661ms forwards"/><path id="XMLID_876_" d="M122 133h2" class="st2" stroke-dasharray="2 4" stroke-dashoffset="3" style="animation:uzHHCFPn_draw 2000ms ease-in-out 669ms forwards"/><path id="XMLID_873_" d="M128 133h1" class="st2" stroke-dasharray="2 4" stroke-dashoffset="3" style="animation:uzHHCFPn_draw 2000ms ease-in-out 677ms forwards"/><path id="XMLID_872_" d="M134 133h1" class="st2" stroke-dasharray="2 4" stroke-dashoffset="3" style="animation:uzHHCFPn_draw 2000ms ease-in-out 685ms forwards"/><text transform="translate(144 169)" class="st3" font-size="20" font-family="Montserrat-Bold" id="XMLID_76_">&lt;/&gt;</text></g><g id="XMLID_84_"><path id="XMLID_95_" d="M445 284h7l1-1V175l-3-8h-2l-4 8v108l1 1z" class="st5" stroke-dasharray="248 250" stroke-dashoffset="249" style="animation:uzHHCFPn_draw 2000ms ease-in-out 694ms forwards"/><path id="XMLID_270_" d="M444 179h9v95h-9z" class="st14" stroke-dasharray="209 211" stroke-dashoffset="210" style="animation:uzHHCFPn_draw 2000ms ease-in-out 702ms forwards"/><path id="XMLID_97_" d="M444 179h5v95h-5z" stroke-dasharray="200 202" stroke-dashoffset="201" fill="#66e5ff" style="animation:uzHHCFPn_draw 2000ms ease-in-out 710ms forwards"/><path id="XMLID_93_" d="M444 284h9V175l-4-9h-1l-4 9v109z" class="st2" stroke-dasharray="249 251" stroke-dashoffset="250" style="animation:uzHHCFPn_draw 2000ms ease-in-out 719ms forwards"/><path id="XMLID_92_" d="M454 179h-10" class="st2" stroke-dasharray="10 12" stroke-dashoffset="11" style="animation:uzHHCFPn_draw 2000ms ease-in-out 727ms forwards"/><path id="XMLID_91_" d="M454 274h-11" class="st2" stroke-dasharray="11 13" stroke-dashoffset="12" style="animation:uzHHCFPn_draw 2000ms ease-in-out 735ms forwards"/></g><g id="XMLID_112_"><path id="XMLID_83_" d="M462 172c0-5 5-8 7-11 3-6 3-16 3-16 9 2 10 20 10 27s-4 13-10 13c-5 0-10-6-10-13z" class="st4" stroke-dasharray="96 98" stroke-dashoffset="97" style="animation:uzHHCFPn_draw 2000ms ease-in-out 743ms forwards"/><path id="XMLID_77_" d="M472 204c5 0 8 4 8 9l-4 58c0 5-2 9-4 13v1c-2-5-4-9-4-14l-4-58c0-5 4-9 8-9z" class="st5" stroke-dasharray="173 175" stroke-dashoffset="174" style="animation:uzHHCFPn_draw 2000ms ease-in-out 752ms forwards"/><path id="XMLID_116_" d="M462 172c0-5 5-8 7-11 3-6 3-16 3-16 9 2 10 20 10 27s-4 13-10 13c-5 0-10-6-10-13z" class="st2" stroke-dasharray="96 98" stroke-dashoffset="97" style="animation:uzHHCFPn_draw 2000ms ease-in-out 760ms forwards"/><path id="XMLID_114_" d="M472 204c5 0 8 4 8 9l-4 58c0 4-3 11-4 13-3-4-4-9-4-13l-4-58c0-5 4-9 8-9z" class="st2" stroke-dasharray="172 174" stroke-dashoffset="173" style="animation:uzHHCFPn_draw 2000ms ease-in-out 768ms forwards"/><path id="XMLID_626_" transform="rotate(-180 472 197)" d="M464 182h16v31h-16z" class="st7" stroke-dasharray="94 96" stroke-dashoffset="95" style="animation:uzHHCFPn_draw 2000ms ease-in-out 776ms forwards"/><path id="XMLID_113_" transform="rotate(-180 468 197)" d="M464 182h8v31h-8z" class="st16" stroke-dasharray="79 81" stroke-dashoffset="80" style="animation:uzHHCFPn_draw 2000ms ease-in-out 785ms forwards"/><path id="XMLID_89_" transform="rotate(-180 472 197)" d="M464 182h16v31h-16z" class="st2" stroke-dasharray="94 96" stroke-dashoffset="95" style="animation:uzHHCFPn_draw 2000ms ease-in-out 793ms forwards"/></g><path id="XMLID_133_" d="M449 95c0-3-2-6-5-6h-26c-9 7-16 15-16 15l-2 1 2 2c1 1 24 26 43 26l6-1v-3h-2V95z" class="st9" stroke-dasharray="157 159" stroke-dashoffset="158" style="animation:uzHHCFPn_draw 2000ms ease-in-out 801ms forwards"/><g id="XMLID_609_"><path id="XMLID_625_" d="M489 103s-23 26-42 26c-18 0-41-26-41-26s23-26 41-26c19 0 42 26 42 26z" class="st5" stroke-dasharray="201 203" stroke-dashoffset="202" style="animation:uzHHCFPn_draw 2000ms ease-in-out 809ms forwards"/><path id="XMLID_96_" d="M489 103s-23 26-42 26c-18 0-41-26-41-26s23-26 41-26c19 0 42 26 42 26z" class="st2" stroke-dasharray="201 203" stroke-dashoffset="202" style="animation:uzHHCFPn_draw 2000ms ease-in-out 818ms forwards"/><g id="XMLID_620_"><path id="XMLID_624_" d="M466 103c0-10-8-18-19-19v37c11 0 19-8 19-18z" class="st14" stroke-dasharray="95 97" stroke-dashoffset="96" style="animation:uzHHCFPn_draw 2000ms ease-in-out 826ms forwards"/><path id="XMLID_622_" d="M447 84a19 19 0 0 0 0 37l1-36-1-1z" stroke-dasharray="96 98" stroke-dashoffset="97" fill="#9ef" style="animation:uzHHCFPn_draw 2000ms ease-in-out 834ms forwards"/></g><path id="XMLID_615_" d="M456 103c0 5-4 9-9 9s-9-4-9-9 4-9 9-9 9 4 9 9z" class="st5" stroke-dasharray="58 60" stroke-dashoffset="59" style="animation:uzHHCFPn_draw 2000ms ease-in-out 842ms forwards"/><path id="XMLID_614_" d="M467 103a19 19 0 1 1-39 0 19 19 0 0 1 39 0z" class="st2" stroke-dasharray="122 124" stroke-dashoffset="123" style="animation:uzHHCFPn_draw 2000ms ease-in-out 851ms forwards"/><path id="XMLID_613_" d="M453 103a6 6 0 1 1-6-6c4 0 6 3 6 6z" class="st3" stroke-dasharray="36 38" stroke-dashoffset="37" style="animation:uzHHCFPn_draw 2000ms ease-in-out 859ms forwards"/><path id="XMLID_611_" d="M412 80v-7h7" class="st2" stroke-dasharray="14 16" stroke-dashoffset="15" style="animation:uzHHCFPn_draw 2000ms ease-in-out 867ms forwards"/><path id="XMLID_627_" d="M483 130v7h-7" class="st2" stroke-dasharray="14 16" stroke-dashoffset="15" style="animation:uzHHCFPn_draw 2000ms ease-in-out 876ms forwards"/></g><g id="XMLID_135_"><path id="XMLID_154_" d="M513 283v-27l-1-1H382l-1 1v27l1 1h130l1-1z" class="st7" stroke-dasharray="321 323" stroke-dashoffset="322" style="animation:uzHHCFPn_draw 2000ms ease-in-out 884ms forwards"/><path id="XMLID_151_" d="M381 259v9h132v-9c1-2-1-4-3-4H385c-2 0-4 2-4 4z" class="st16" stroke-dasharray="289 291" stroke-dashoffset="290" style="animation:uzHHCFPn_draw 2000ms ease-in-out 892ms forwards"/><path id="XMLID_146_" d="M513 283v-27l-1-1H382l-1 1v27l1 1h130l1-1z" class="st2" stroke-dasharray="321 323" stroke-dashoffset="322" style="animation:uzHHCFPn_draw 2000ms ease-in-out 900ms forwards"/><path id="XMLID_144_" d="M396 255v18" class="st2" stroke-dasharray="18 20" stroke-dashoffset="19" style="animation:uzHHCFPn_draw 2000ms ease-in-out 909ms forwards"/><path id="XMLID_143_" d="M408 255v9" class="st2" stroke-dasharray="9 11" stroke-dashoffset="10" style="animation:uzHHCFPn_draw 2000ms ease-in-out 917ms forwards"/><path id="XMLID_142_" d="M421 255v9" class="st2" stroke-dasharray="9 11" stroke-dashoffset="10" style="animation:uzHHCFPn_draw 2000ms ease-in-out 925ms forwards"/><path id="XMLID_141_" d="M433 255v9" class="st2" stroke-dasharray="9 11" stroke-dashoffset="10" style="animation:uzHHCFPn_draw 2000ms ease-in-out 933ms forwards"/><path id="XMLID_140_" d="M446 255v18" class="st2" stroke-dasharray="18 20" stroke-dashoffset="19" style="animation:uzHHCFPn_draw 2000ms ease-in-out 942ms forwards"/><path id="XMLID_139_" d="M459 255v9" class="st2" stroke-dasharray="9 11" stroke-dashoffset="10" style="animation:uzHHCFPn_draw 2000ms ease-in-out 950ms forwards"/><path id="XMLID_138_" d="M471 255v9" class="st2" stroke-dasharray="9 11" stroke-dashoffset="10" style="animation:uzHHCFPn_draw 2000ms ease-in-out 958ms forwards"/><path id="XMLID_137_" d="M484 255v9" class="st2" stroke-dasharray="9 11" stroke-dashoffset="10" style="animation:uzHHCFPn_draw 2000ms ease-in-out 966ms forwards"/><path id="XMLID_136_" d="M496 255v18" class="st2" stroke-dasharray="18 20" stroke-dashoffset="19" style="animation:uzHHCFPn_draw 2000ms ease-in-out 975ms forwards"/></g></g><g id="XMLID_43_"><path id="XMLID_75_" d="M79 285h7" class="st2" stroke-dasharray="8 10" stroke-dashoffset="9" style="animation:uzHHCFPn_draw 2000ms ease-in-out 983ms forwards"/><path id="XMLID_90_" d="M523 285h16" class="st2" stroke-dasharray="16 18" stroke-dashoffset="17" style="animation:uzHHCFPn_draw 2000ms ease-in-out 991ms forwards"/><path id="XMLID_293_" d="M91 285h428" class="st2" stroke-dasharray="428 430" stroke-dashoffset="429" style="animation:uzHHCFPn_draw 2000ms ease-in-out 999ms forwards"/></g></g><style data-made-with="vivus-instant">@keyframes uzHHCFPn_draw{to{stroke-dashoffset:0}}@keyframes uzHHCFPn_fade{0%,94.44444444444444%{stroke-opacity:1}to{stroke-opacity:0}}</style></svg>