<svg xmlns="http://www.w3.org/2000/svg" viewBox="0 0 600 300"><style type="text/css">.st0{fill:#EDF0F4;} .st1{fill:#EDF6FC;} .st2{fill:#FFFFFF;} .st3{fill:none;stroke:#414042;stroke-width:1.5;stroke-miterlimit:10;} .st4{opacity:0.3;fill:#414042;} .st5{fill:#58595B;} .st6{fill:#D1D3D4;} .st7{fill:none;stroke:#414042;stroke-width:1.5;stroke-linecap:round;stroke-miterlimit:10;} .st8{fill:#414042;} .st9{fill:none;stroke:#3F51B5;stroke-width:2;stroke-linecap:round;stroke-linejoin:round;stroke-miterlimit:10;} .st10{fill:none;stroke:#263238;stroke-width:2;stroke-linecap:round;stroke-linejoin:round;stroke-miterlimit:10;}</style><g id="XMLID_2_"><g id="XMLID_395_"><path id="XMLID_391_" class="st0 vSKwEAmL_0" d="M98.8 58h438c12.7 0 23.1 10.3 23.1 23.1 0 12.7-10.3 23.1-23.1 23.1h-91.5c-9.6 0-17.4 7.8-17.4 17.4 0 9.6 7.8 17.4 17.5 17.4l58.6-.3c9.9 0 17.9 7.9 17.9 17.8 0 9.7-7.8 17.6-17.5 17.8l-69.6 1.3c-10.9.2-19.6 9.1-19.6 19.9 0 11 8.9 19.9 19.9 19.9h53.4c8.4 0 15.2 6.8 15.2 15.2 0 8.4-6.8 15.2-15.2 15.2h-19.5c-14.2 0-25.7 11.5-25.7 25.7v11.2h-315.3v-9.8c0-15.8-12.7-28.7-28.5-28.9l-48.3-.6c-12.9-.3-23.2-10.7-23.2-23.5 0-12.9 10.5-23.4 23.4-23.4h46.7c0-23.2 18.8-41.9 41.9-41.9h16c12.3 0 22.3-10 22.3-22.3s-10-22.3-22.3-22.3h-57.2c-14.3 0-25.9-11.6-25.9-25.9 0-14.5 11.6-26.1 25.9-26.1z"/><path id="XMLID_394_" class="st1 vSKwEAmL_1" d="M558.1 215.3h-32c-7.6 0-13.8-6.2-13.8-13.8 0-7.6 6.2-13.8 13.8-13.8h32c7.6 0 13.8 6.2 13.8 13.8.1 7.6-6.1 13.8-13.8 13.8z"/></g><g id="XMLID_379_"><path id="XMLID_386_" class="st2 vSKwEAmL_2" d="M226.1 282.6h-113.2c-1.1 0-2-.9-2-2v-142.8c0-1.1.9-2 2-2h113.2c1.1 0 2 .9 2 2v142.8c-.1 1.1-.9 2-2 2z"/><path id="XMLID_385_" class="st3 vSKwEAmL_3" d="M110.9 282.3v-138.2c0-4.6 3.7-8.3 8.3-8.3h66.4"/><path id="XMLID_384_" class="st3 vSKwEAmL_4" d="M209 135.8h10.8c4.6 0 8.3 3.7 8.3 8.3v138.2"/><path id="XMLID_382_" class="st3 vSKwEAmL_5" d="M155.8 146.9h27.3"/><path id="XMLID_381_" class="st3 vSKwEAmL_6" d="M173.9 270.6c0 2.4-2 4.4-4.4 4.4-2.4 0-4.4-2-4.4-4.4 0-2.4 2-4.4 4.4-4.4 2.4 0 4.4 2 4.4 4.4z"/><path id="XMLID_380_" class="st0 vSKwEAmL_7" d="M120.1 157h98.7v104h-98.7z"/></g><path id="XMLID_393_" class="st4 vSKwEAmL_8" d="M230 144.1c0-5.6-4.6-10.2-10.2-10.2h-10.8v2h-23.4v-2h-.2v111.9c0 4 3.2 7.2 7.2 7.2h37.4v-108.9z"/><g id="XMLID_42_"><path id="XMLID_701_" class="st5 vSKwEAmL_9" d="M416.8 221.7h-224.2v-131.4c0-1.1.9-2 2-2h220.2c1.1 0 2 .9 2 2v131.4z"/><path id="XMLID_357_" class="st3 vSKwEAmL_10" d="M240 88.3h171.6c2.9 0 5.2 2.3 5.2 5.2v128.1h-224.2v-128.1c0-2.9 2.3-5.2 5.2-5.2h22.7"/><path id="XMLID_292_" class="st3 vSKwEAmL_11" d="M224.1 88.3h12"/><path id="XMLID_697_" class="st2 vSKwEAmL_12" d="M204.8 101.4h200.1v105.3h-200.1z"/><path id="XMLID_290_" class="st2 vSKwEAmL_13" d="M270.9 241.9h67.5v40h-67.5z"/><path id="XMLID_683_" class="st6 vSKwEAmL_14" d="M270.9 241.9h67.5v20h-67.5z"/><path id="XMLID_289_" class="st3 vSKwEAmL_15" d="M270.9 241.9h67.5v40h-67.5z"/><path id="XMLID_681_" class="st2 vSKwEAmL_16" d="M416.8 216.8h-224.2v28.3c0 1.1.9 2 2 2h220.2c1.1 0 2-.9 2-2v-28.3z"/><path id="XMLID_285_" class="st3 vSKwEAmL_17" d="M416.8 216.8h-224.2v28.3c0 1.1.9 2 2 2h220.2c1.1 0 2-.9 2-2v-28.3z"/><path id="XMLID_679_" class="st3 vSKwEAmL_18" d="M257.8 282.6h94.7"/><path id="XMLID_308_" class="st3 vSKwEAmL_19" d="M359.1 116.6h36.9"/><path id="XMLID_307_" class="st3 vSKwEAmL_20" d="M359.1 127h36.9"/><path id="XMLID_305_" class="st3 vSKwEAmL_21" d="M359.1 148.9h36.9"/><path id="XMLID_303_" class="st3 vSKwEAmL_22" d="M359.1 159.2h36.9"/><path id="XMLID_301_" class="st3 vSKwEAmL_23" d="M359.1 183.8h36.9"/><path id="XMLID_300_" class="st3 vSKwEAmL_24" d="M359.1 194.2h36.9"/></g><g id="XMLID_364_"><path id="XMLID_366_" class="st7 vSKwEAmL_25" d="M164.6 23h11.3"/><path id="XMLID_365_" class="st7 vSKwEAmL_26" d="M170.2 28.6v-11.2"/></g><g id="XMLID_403_"><path id="XMLID_405_" class="st7 vSKwEAmL_27" d="M101.8 122.4h11.3"/><path id="XMLID_404_" class="st7 vSKwEAmL_28" d="M107.5 128v-11.3"/></g><g id="XMLID_358_"><path id="XMLID_360_" class="st7 vSKwEAmL_29" d="M535.1 102.5l7.9-7.9"/><path id="XMLID_359_" class="st7 vSKwEAmL_30" d="M543 102.5l-7.9-7.9"/></g><g id="XMLID_407_"><path id="XMLID_431_" class="st7 vSKwEAmL_31" d="M82.3 54.4l8-7.9"/><path id="XMLID_408_" class="st7 vSKwEAmL_32" d="M90.3 54.4l-8-7.9"/></g><path id="XMLID_350_" class="st3 vSKwEAmL_33" d="M479.9 169.8h45.8"/><path id="XMLID_349_" class="st3 vSKwEAmL_34" d="M539.1 169.8h-9.4"/><path id="XMLID_397_" class="st3 vSKwEAmL_35" d="M240.7 41.4h45.9"/><path id="XMLID_398_" class="st3 vSKwEAmL_36" d="M318.8 41.4h143.8"/><path id="XMLID_400_" class="st3 vSKwEAmL_37" d="M41.8 121h52.2"/><path id="XMLID_399_" class="st3 vSKwEAmL_38" d="M191.2 23h187.6"/><path id="XMLID_396_" class="st3 vSKwEAmL_39" d="M299.9 41.4h-9.4"/><path id="XMLID_344_" class="st8 vSKwEAmL_40" d="M497.8 59.5c0 2-1.6 3.5-3.5 3.5-2 0-3.5-1.6-3.5-3.5s1.6-3.5 3.5-3.5 3.5 1.6 3.5 3.5z"/><path id="XMLID_401_" class="st8 vSKwEAmL_41" d="M75 150c0 2-1.6 3.5-3.5 3.5-2 0-3.5-1.6-3.5-3.5 0-2 1.6-3.5 3.5-3.5 1.9-.1 3.5 1.5 3.5 3.5z"/><path id="XMLID_402_" class="st8 vSKwEAmL_42" d="M513.5 237.4c0 2-1.6 3.5-3.5 3.5-2 0-3.5-1.6-3.5-3.5 0-2 1.6-3.5 3.5-3.5s3.5 1.6 3.5 3.5z"/><g id="XMLID_318_"><path id="XMLID_322_" class="st3 vSKwEAmL_43" d="M84.7 282.6h431.6"/><path id="XMLID_321_" class="st3 vSKwEAmL_44" d="M72.7 282.6h7.2"/><path id="XMLID_320_" class="st3 vSKwEAmL_45" d="M520.5 282.6h15.9"/></g></g><path class="st9 vSKwEAmL_46" d="M227.8 153.7a44.5 44.5 0 1 1 89 0 44.5 44.5 0 1 1-89 0"/><path class="st9 vSKwEAmL_47" d="M244.7 153.7a27.6 44.5 0 1 1 55.2 0 27.6 44.5 0 1 1-55.2 0"/><path class="st9 vSKwEAmL_48" d="M272.3 179.1c-12.4 0-23.7 2.2-31.8 5.7 8.1 8.2 19.3 13.4 31.8 13.4 12.4 0 23.7-5.1 31.8-13.4-8.1-3.5-19.3-5.7-31.8-5.7z"/><path class="st9 vSKwEAmL_49" d="M272.3 128.3c12.4 0 23.7-2.2 31.8-5.7-8.1-8.2-19.3-13.4-31.8-13.4-12.4 0-23.7 5.1-31.8 13.4 8.2 3.5 19.4 5.7 31.8 5.7z"/><path class="st9 vSKwEAmL_50" d="M316.9 153.7h-89.1"/><path class="st9 vSKwEAmL_51" d="M272.3 109.2v89"/><path class="st2 vSKwEAmL_52" d="M322 188.2v46.4c0 3.8 4.6 5.7 7.2 3l7.3-7.3c1.7-1.7 4.3-1.7 6 0l27 27c1.7 1.7 4.3 1.7 6 0l19.8-19.8c1.7-1.7 1.7-4.3 0-6l-27-27c-1.7-1.7-1.7-4.3 0-6l7.3-7.3c2.7-2.7.8-7.2-3-7.2h-46.4c-2.3 0-4.2 1.9-4.2 4.2z"/><path class="st10 vSKwEAmL_53" d="M322 188.2v46.4c0 3.8 4.6 5.7 7.2 3l7.3-7.3c1.7-1.7 4.3-1.7 6 0l27 27c1.7 1.7 4.3 1.7 6 0l19.8-19.8c1.7-1.7 1.7-4.3 0-6l-27-27c-1.7-1.7-1.7-4.3 0-6l7.3-7.3c2.7-2.7.8-7.2-3-7.2h-46.4c-2.3 0-4.2 1.9-4.2 4.2z"/><style>.vSKwEAmL_0{stroke-dasharray:1905 1907;stroke-dashoffset:1906;animation:vSKwEAmL_draw 2000ms ease 0ms forwards;}.vSKwEAmL_1{stroke-dasharray:151 153;stroke-dashoffset:152;animation:vSKwEAmL_draw 2000ms ease 18ms forwards;}.vSKwEAmL_2{stroke-dasharray:525 527;stroke-dashoffset:526;animation:vSKwEAmL_draw 2000ms ease 37ms forwards;}.vSKwEAmL_3{stroke-dasharray:218 220;stroke-dashoffset:219;animation:vSKwEAmL_draw 2000ms ease 56ms forwards;}.vSKwEAmL_4{stroke-dasharray:163 165;stroke-dashoffset:164;animation:vSKwEAmL_draw 2000ms ease 75ms forwards;}.vSKwEAmL_5{stroke-dasharray:28 30;stroke-dashoffset:29;animation:vSKwEAmL_draw 2000ms ease 94ms forwards;}.vSKwEAmL_6{stroke-dasharray:28 30;stroke-dashoffset:29;animation:vSKwEAmL_draw 2000ms ease 113ms forwards;}.vSKwEAmL_7{stroke-dasharray:406 408;stroke-dashoffset:407;animation:vSKwEAmL_draw 2000ms ease 132ms forwards;}.vSKwEAmL_8{stroke-dasharray:324 326;stroke-dashoffset:325;animation:vSKwEAmL_draw 2000ms ease 150ms forwards;}.vSKwEAmL_9{stroke-dasharray:714 716;stroke-dashoffset:715;animation:vSKwEAmL_draw 2000ms ease 169ms forwards;}.vSKwEAmL_10{stroke-dasharray:692 694;stroke-dashoffset:693;animation:vSKwEAmL_draw 2000ms ease 188ms forwards;}.vSKwEAmL_11{stroke-dasharray:12 14;stroke-dashoffset:13;animation:vSKwEAmL_draw 2000ms ease 207ms forwards;}.vSKwEAmL_12{stroke-dasharray:611 613;stroke-dashoffset:612;animation:vSKwEAmL_draw 2000ms ease 226ms forwards;}.vSKwEAmL_13{stroke-dasharray:215 217;stroke-dashoffset:216;animation:vSKwEAmL_draw 2000ms ease 245ms forwards;}.vSKwEAmL_14{stroke-dasharray:175 177;stroke-dashoffset:176;animation:vSKwEAmL_draw 2000ms ease 264ms forwards;}.vSKwEAmL_15{stroke-dasharray:215 217;stroke-dashoffset:216;animation:vSKwEAmL_draw 2000ms ease 283ms forwards;}.vSKwEAmL_16{stroke-dasharray:508 510;stroke-dashoffset:509;animation:vSKwEAmL_draw 2000ms ease 301ms forwards;}.vSKwEAmL_17{stroke-dasharray:508 510;stroke-dashoffset:509;animation:vSKwEAmL_draw 2000ms ease 320ms forwards;}.vSKwEAmL_18{stroke-dasharray:95 97;stroke-dashoffset:96;animation:vSKwEAmL_draw 2000ms ease 339ms forwards;}.vSKwEAmL_19{stroke-dasharray:37 39;stroke-dashoffset:38;animation:vSKwEAmL_draw 2000ms ease 358ms forwards;}.vSKwEAmL_20{stroke-dasharray:37 39;stroke-dashoffset:38;animation:vSKwEAmL_draw 2000ms ease 377ms forwards;}.vSKwEAmL_21{stroke-dasharray:37 39;stroke-dashoffset:38;animation:vSKwEAmL_draw 2000ms ease 396ms forwards;}.vSKwEAmL_22{stroke-dasharray:37 39;stroke-dashoffset:38;animation:vSKwEAmL_draw 2000ms ease 415ms forwards;}.vSKwEAmL_23{stroke-dasharray:37 39;stroke-dashoffset:38;animation:vSKwEAmL_draw 2000ms ease 433ms forwards;}.vSKwEAmL_24{stroke-dasharray:37 39;stroke-dashoffset:38;animation:vSKwEAmL_draw 2000ms ease 452ms forwards;}.vSKwEAmL_25{stroke-dasharray:12 14;stroke-dashoffset:13;animation:vSKwEAmL_draw 2000ms ease 471ms forwards;}.vSKwEAmL_26{stroke-dasharray:12 14;stroke-dashoffset:13;animation:vSKwEAmL_draw 2000ms ease 490ms forwards;}.vSKwEAmL_27{stroke-dasharray:12 14;stroke-dashoffset:13;animation:vSKwEAmL_draw 2000ms ease 509ms forwards;}.vSKwEAmL_28{stroke-dasharray:12 14;stroke-dashoffset:13;animation:vSKwEAmL_draw 2000ms ease 528ms forwards;}.vSKwEAmL_29{stroke-dasharray:12 14;stroke-dashoffset:13;animation:vSKwEAmL_draw 2000ms ease 547ms forwards;}.vSKwEAmL_30{stroke-dasharray:12 14;stroke-dashoffset:13;animation:vSKwEAmL_draw 2000ms ease 566ms forwards;}.vSKwEAmL_31{stroke-dasharray:12 14;stroke-dashoffset:13;animation:vSKwEAmL_draw 2000ms ease 584ms forwards;}.vSKwEAmL_32{stroke-dasharray:12 14;stroke-dashoffset:13;animation:vSKwEAmL_draw 2000ms ease 603ms forwards;}.vSKwEAmL_33{stroke-dasharray:46 48;stroke-dashoffset:47;animation:vSKwEAmL_draw 2000ms ease 622ms forwards;}.vSKwEAmL_34{stroke-dasharray:10 12;stroke-dashoffset:11;animation:vSKwEAmL_draw 2000ms ease 641ms forwards;}.vSKwEAmL_35{stroke-dasharray:46 48;stroke-dashoffset:47;animation:vSKwEAmL_draw 2000ms ease 660ms forwards;}.vSKwEAmL_36{stroke-dasharray:144 146;stroke-dashoffset:145;animation:vSKwEAmL_draw 2000ms ease 679ms forwards;}.vSKwEAmL_37{stroke-dasharray:53 55;stroke-dashoffset:54;animation:vSKwEAmL_draw 2000ms ease 698ms forwards;}.vSKwEAmL_38{stroke-dasharray:188 190;stroke-dashoffset:189;animation:vSKwEAmL_draw 2000ms ease 716ms forwards;}.vSKwEAmL_39{stroke-dasharray:10 12;stroke-dashoffset:11;animation:vSKwEAmL_draw 2000ms ease 735ms forwards;}.vSKwEAmL_40{stroke-dasharray:22 24;stroke-dashoffset:23;animation:vSKwEAmL_draw 2000ms ease 754ms forwards;}.vSKwEAmL_41{stroke-dasharray:23 25;stroke-dashoffset:24;animation:vSKwEAmL_draw 2000ms ease 773ms forwards;}.vSKwEAmL_42{stroke-dasharray:23 25;stroke-dashoffset:24;animation:vSKwEAmL_draw 2000ms ease 792ms forwards;}.vSKwEAmL_43{stroke-dasharray:432 434;stroke-dashoffset:433;animation:vSKwEAmL_draw 2000ms ease 811ms forwards;}.vSKwEAmL_44{stroke-dasharray:8 10;stroke-dashoffset:9;animation:vSKwEAmL_draw 2000ms ease 830ms forwards;}.vSKwEAmL_45{stroke-dasharray:16 18;stroke-dashoffset:17;animation:vSKwEAmL_draw 2000ms ease 849ms forwards;}.vSKwEAmL_46{stroke-dasharray:280 282;stroke-dashoffset:281;animation:vSKwEAmL_draw 2000ms ease 867ms forwards;}.vSKwEAmL_47{stroke-dasharray:230 232;stroke-dashoffset:231;animation:vSKwEAmL_draw 2000ms ease 886ms forwards;}.vSKwEAmL_48{stroke-dasharray:136 138;stroke-dashoffset:137;animation:vSKwEAmL_draw 2000ms ease 905ms forwards;}.vSKwEAmL_49{stroke-dasharray:136 138;stroke-dashoffset:137;animation:vSKwEAmL_draw 2000ms ease 924ms forwards;}.vSKwEAmL_50{stroke-dasharray:90 92;stroke-dashoffset:91;animation:vSKwEAmL_draw 2000ms ease 943ms forwards;}.vSKwEAmL_51{stroke-dasharray:89 91;stroke-dashoffset:90;animation:vSKwEAmL_draw 2000ms ease 962ms forwards;}.vSKwEAmL_52{stroke-dasharray:272 274;stroke-dashoffset:273;animation:vSKwEAmL_draw 2000ms ease 981ms forwards;}.vSKwEAmL_53{stroke-dasharray:272 274;stroke-dashoffset:273;animation:vSKwEAmL_draw 2000ms ease 1000ms forwards;}@keyframes vSKwEAmL_draw{100%{stroke-dashoffset:0;}}@keyframes vSKwEAmL_fade{0%{stroke-opacity:1;}94.44444444444444%{stroke-opacity:1;}100%{stroke-opacity:0;}}</style></svg>