<!--?xml version="1.0" encoding="utf-8"?-->
<!-- Generator: Adobe Illustrator 22.1.0, SVG Export Plug-In . SVG Version: 6.00 Build 0)  -->
<svg version="1.1" id="Layer_1" xmlns="http://www.w3.org/2000/svg" xmlns:xlink="http://www.w3.org/1999/xlink" x="0px" y="0px" viewBox="0 0 600 300" style="" xml:space="preserve">
<style type="text/css">
	.st0{fill:#E4E8EE;}
	.st1{fill:#D2D9E3;}
	.st2{fill:#FFFFFF;}
	.st3{fill:none;stroke:#414042;stroke-width:1.5;stroke-miterlimit:10;}
	.st4{fill:none;stroke:#414042;stroke-width:1.5;stroke-linecap:round;stroke-miterlimit:10;}
	.st5{fill:#414042;}
	.st6{fill:#58595B;}
	.st7{fill:none;stroke:#263238;stroke-width:2;stroke-linecap:round;stroke-linejoin:round;stroke-miterlimit:10;}
	.st8{fill:#3F51B5;}
</style>
<g id="XMLID_223_">
	<path id="XMLID_267_" class="st0 YSrNPVdi_0" d="M302.4,42.9H118.9c-8.3,0-15,6.7-15,15s6.7,15,15,15h50.4c0,4.7,3.8,8.6,8.6,8.6h19.7
		c7.5,0,13.6,6.1,13.6,13.6s-6.1,13.6-13.6,13.6H66.3c-8.6,0-15.5,6.9-15.5,15.5s6.9,15.5,15.5,15.5l86.9,0.1
		c7.4,0,13.4,6,13.4,13.4s-6,13.4-13.4,13.4h-46.7c-9.9,0-18,8.1-18,18s8.1,18,18,18h14.7c12,0,21.6,9.7,21.6,21.6v61.4h306.6v-94.2
		h81.1c7.3,0,13.2-5.9,13.2-13.2v-0.3c0-7.6-6.1-13.7-13.6-13.7h-68.4c-6.8,0-12.3-5.5-12.3-12.3s5.5-12.3,12.3-12.3h10
		c17.4,0,31.6-14.1,31.6-31.5V103h-85.7c-8.2,0-14.8-6.6-14.8-14.8s6.6-14.8,14.8-14.8H534c8.4,0,15.2-6.8,15.2-15.2
		S542.4,43,534,43L302.4,42.9L302.4,42.9z"></path>
	<g id="XMLID_200_">
		<path id="XMLID_535_" class="st1 YSrNPVdi_1" d="M486.7,80H486c-3.1-10.7-12.9-18.5-24.6-18.5c-5.1,0-9.8,1.5-13.8,4.1
			C445,48.8,430.5,35.9,413,35.9c-15.7,0-29.1,10.4-33.5,24.7c-2-0.5-4.1-0.9-6.3-0.9c-12,0-22,8.8-23.8,20.3h-3.9
			c-9.9,0-18,8.1-18,18v1.3c0,9.9,8.1,18,18,18h141.2c9.9,0,18-8.1,18-18V98C504.7,88.1,496.6,80,486.7,80z"></path>
		<path id="XMLID_534_" class="st2 YSrNPVdi_2" d="M470.1,84.4h-0.6c-2.7-9.4-11.4-16.3-21.7-16.3c-4.5,0-8.7,1.3-12.2,3.6
			c-2.3-14.8-15.1-26.2-30.5-26.2c-13.9,0-25.6,9.1-29.5,21.7c-1.8-0.5-3.6-0.7-5.5-0.7c-10.6,0-19.4,7.8-21,17.9h-3.5
			c-8.7,0-15.9,7.1-15.9,15.9v1.2c0,8.7,7.1,15.9,15.9,15.9h124.5c8.7,0,15.9-7.1,15.9-15.9v-1.2C486,91.6,478.8,84.4,470.1,84.4
			L470.1,84.4z"></path>
		<path id="XMLID_533_" class="st3 YSrNPVdi_3" d="M435.8,62.8c-5.2-8-14.2-13.3-24.5-13.3c-5.4,0-10.5,1.5-14.9,4.1"></path>
		<path id="XMLID_218_" class="st3 YSrNPVdi_4" d="M345.4,80c-9.9,0-18,8.1-18,18v1.3c0,9.9,8.1,18,18,18h64.9"></path>
		<path id="XMLID_216_" class="st3 YSrNPVdi_5" d="M465.1,117.3h21.5c9.9,0,18-8.1,18-18V98c0-9.9-8.1-18-18-18H486
			c-3.1-10.7-12.9-18.5-24.6-18.5c-5.1,0-9.8,1.5-13.8,4.1C445,48.8,430.5,35.9,413,35.9c-10.8,0-20.4,4.9-26.8,12.5
			c-1.4,1.7-2.7,3.5-3.8,5.5c-1.2,2.1-2.2,4.4-2.9,6.7c-2-0.5-4.1-0.9-6.3-0.9c-6.4,0-12.3,2.5-16.6,6.6"></path>
		<path id="XMLID_531_" class="st3 YSrNPVdi_6" d="M373.6,59.6c6.9,0,12.5,5.6,12.5,12.5"></path>
	</g>
	<g id="XMLID_184_">
		<path id="XMLID_186_" class="st4 YSrNPVdi_7" d="M526,104.1h10.7"></path>
		<path id="XMLID_185_" class="st4 YSrNPVdi_8" d="M531.3,109.5V98.7"></path>
	</g>
	<g id="XMLID_179_">
		<path id="XMLID_183_" class="st4 YSrNPVdi_9" d="M168,92.5h10.8"></path>
		<path id="XMLID_180_" class="st4 YSrNPVdi_10" d="M173.4,97.9V87.1"></path>
	</g>
	<g id="XMLID_174_">
		<path id="XMLID_176_" class="st4 YSrNPVdi_11" d="M426.2,22.1l7.7-7.6"></path>
		<path id="XMLID_175_" class="st4 YSrNPVdi_12" d="M433.9,22.1l-7.7-7.6"></path>
	</g>
	<g id="XMLID_220_">
		<path id="XMLID_222_" class="st4 YSrNPVdi_13" d="M123.2,153.4l7.6-7.6"></path>
		<path id="XMLID_221_" class="st4 YSrNPVdi_14" d="M130.8,153.4l-7.6-7.6"></path>
	</g>
	<path id="XMLID_169_" class="st3 YSrNPVdi_15" d="M245.5,32.2h80.7"></path>
	<path id="XMLID_201_" class="st3 YSrNPVdi_16" d="M289.6,18.3h127.9"></path>
	<path id="XMLID_41_" class="st3 YSrNPVdi_17" d="M346.4,32.2h-13.9"></path>
	<path id="XMLID_162_" class="st3 YSrNPVdi_18" d="M479.2,144.8h43.9"></path>
	<path id="XMLID_161_" class="st3 YSrNPVdi_19" d="M535.8,144.8h-9"></path>
	<path id="XMLID_204_" class="st3 YSrNPVdi_20" d="M100.9,92.5h43.9"></path>
	<path id="XMLID_202_" class="st3 YSrNPVdi_21" d="M157.6,92.5h-9"></path>
	<path id="XMLID_160_" class="st5 YSrNPVdi_22" d="M177.4,35.9c0,1.5-1.2,2.7-2.7,2.7s-2.7-1.2-2.7-2.7s1.2-2.7,2.7-2.7S177.4,34.4,177.4,35.9z"></path>
	<path id="XMLID_211_" class="st5 YSrNPVdi_23" d="M245.3,117.1c0,1.9-1.5,3.4-3.4,3.4s-3.4-1.5-3.4-3.4s1.5-3.4,3.4-3.4
		S245.3,115.2,245.3,117.1z"></path>
	<path id="XMLID_212_" class="st5 YSrNPVdi_24" d="M510.9,42.9c0,1.9-1.5,3.4-3.4,3.4s-3.4-1.5-3.4-3.4s1.5-3.4,3.4-3.4S510.9,41.1,510.9,42.9z"></path>
	<g id="XMLID_38_">
		<path id="XMLID_189_" class="st3 YSrNPVdi_25" d="M98.7,285.5h412.9"></path>
		<path id="XMLID_188_" class="st3 YSrNPVdi_26" d="M87.2,285.5h6.9"></path>
		<path id="XMLID_187_" class="st3 YSrNPVdi_27" d="M515.5,285.5h15.3"></path>
	</g>
</g>
<g id="XMLID_63_">
	<path id="XMLID_70_" class="st6 YSrNPVdi_28" d="M478.6,255.1H287.3c-0.5,0-1-0.4-1-1V117.2c0-0.6,0.5-1,1-1h191.3c0.6,0,1,0.4,1,1v136.9
		C479.6,254.7,479.2,255.1,478.6,255.1z"></path>
	<path id="XMLID_69_" class="st5 YSrNPVdi_29" d="M295.7,127.1h173.5v112.7H295.7V127.1z"></path>
	<path id="XMLID_332_" class="st2 YSrNPVdi_30" d="M476.2,262.8H287.6c-4.5,0-8.4-3.3-9.1-7.8l-1.3-8.2h87.4l3.3,4.8h24.2l3.6-4.8h92.1l-1.2,7.1
		C485.8,259.1,481.4,262.8,476.2,262.8z"></path>
	<path id="XMLID_78_" class="st3 YSrNPVdi_31" d="M476.2,262.8H287.6c-4.5,0-8.4-3.3-9.1-7.8l-1.3-8.2h87.4l3.3,4.8h24.2l3.6-4.8h92.1l-1.2,7.1
		C485.8,259.1,481.4,262.8,476.2,262.8z"></path>
	<g id="XMLID_64_">
		<path id="XMLID_597_" class="st2 YSrNPVdi_32" d="M318.5,138.3h19.4v2.5h-19.4V138.3z"></path>
		<path id="XMLID_596_" class="st2 YSrNPVdi_33" d="M328.2,147h13.4v2.5h-13.4V147z"></path>
		<path id="XMLID_595_" class="st2 YSrNPVdi_34" d="M371.2,147h93.4v2.5h-93.4V147z"></path>
		<path id="XMLID_594_" class="st2 YSrNPVdi_35" d="M366,149.6h-15.1v-2.5H366V149.6z"></path>
		<path id="XMLID_593_" class="st2 YSrNPVdi_36" d="M332.8,154.3h26.7v2.5h-26.7V154.3z"></path>
		<path id="XMLID_592_" class="st2 YSrNPVdi_37" d="M343.6,164.5h33.9v2.5h-33.9V164.5z"></path>
		<path id="XMLID_591_" class="st2 YSrNPVdi_38" d="M318.5,174.2h37v2.5h-37V174.2z"></path>
		<path id="XMLID_590_" class="st2 YSrNPVdi_39" d="M386.2,176.7h-26.7v-2.5h26.7V176.7z"></path>
		<path id="XMLID_589_" class="st2 YSrNPVdi_40" d="M328.2,183.8h49.6v2.5h-49.6V183.8z"></path>
		<path id="XMLID_588_" class="st2 YSrNPVdi_41" d="M431.1,186.4h-33v-2.5h33V186.4z"></path>
		<path id="XMLID_587_" class="st2 YSrNPVdi_42" d="M379.9,183.8h15.6v2.5h-15.6V183.8z"></path>
		<path id="XMLID_586_" class="st2 YSrNPVdi_43" d="M344.7,193.5h43.4v2.5h-43.4V193.5z"></path>
		<path id="XMLID_585_" class="st2 YSrNPVdi_44" d="M341.9,196h-9.1v-2.5h9.1V196z"></path>
		<path id="XMLID_68_" class="st2 YSrNPVdi_45" d="M318.5,200.5h29.6v2.5h-29.6V200.5z"></path>
		<path id="XMLID_582_" class="st2 YSrNPVdi_46" d="M350.4,200.5h10.2v2.5h-10.2V200.5z"></path>
		<path id="XMLID_581_" class="st2 YSrNPVdi_47" d="M363.4,200.5H412v2.5h-48.6L363.4,200.5z"></path>
		<path id="XMLID_580_" class="st2 YSrNPVdi_48" d="M459.6,203.1h-43.9v-2.5h43.9V203.1z"></path>
		<path id="XMLID_579_" class="st2 YSrNPVdi_49" d="M328.2,210.2h15.4v2.5h-15.4V210.2z"></path>
		<path id="XMLID_578_" class="st2 YSrNPVdi_50" d="M384.6,212.7h-36.5v-2.5h36.5V212.7z"></path>
		<path id="XMLID_577_" class="st2 YSrNPVdi_51" d="M336.5,219.8h29.6v2.5h-29.6V219.8z"></path>
		<path id="XMLID_576_" class="st2 YSrNPVdi_52" d="M372.3,219.8h29.6v2.5h-29.6V219.8z"></path>
		<path id="XMLID_575_" class="st2 YSrNPVdi_53" d="M406.6,219.8h27.9v2.5h-27.9V219.8z"></path>
		<path id="XMLID_351_" class="st2 YSrNPVdi_54" d="M461.9,167.1h-8.4v-2.5h8.4V167.1z"></path>
		<path id="XMLID_67_" class="st2 YSrNPVdi_55" d="M380.5,164.5h69.3v2.5h-69.3V164.5z"></path>
		<path id="XMLID_328_" class="st2 YSrNPVdi_56" d="M343.6,138.3h78.8v2.5h-78.8V138.3z"></path>
		<path id="XMLID_326_" class="st2 YSrNPVdi_57" d="M305.3,134.6h4.1v4.1h-4.1V134.6z"></path>
		<path id="XMLID_294_" class="st2 YSrNPVdi_58" d="M305.3,145.3h4.1v4.1h-4.1V145.3z"></path>
		<path id="XMLID_291_" class="st2 YSrNPVdi_59" d="M305.3,156.1h4.1v4.1h-4.1V156.1z"></path>
		<path id="XMLID_182_" class="st2 YSrNPVdi_60" d="M305.3,166.9h4.1v4.1h-4.1V166.9z"></path>
		<path id="XMLID_181_" class="st2 YSrNPVdi_61" d="M305.3,177.7h4.1v4.1h-4.1V177.7z"></path>
		<path id="XMLID_178_" class="st2 YSrNPVdi_62" d="M305.3,188.5h4.1v4.1h-4.1V188.5z"></path>
		<path id="XMLID_177_" class="st2 YSrNPVdi_63" d="M305.3,199.3h4.1v4.1h-4.1V199.3z"></path>
		<path id="XMLID_66_" class="st2 YSrNPVdi_64" d="M305.3,210.1h4.1v4.1h-4.1V210.1z"></path>
		<path id="XMLID_71_" class="st2 YSrNPVdi_65" d="M305.3,220.8h4.1v4.1h-4.1V220.8z"></path>
		<path id="XMLID_72_" class="st2 YSrNPVdi_66" d="M305.3,231.6h4.1v4.1h-4.1V231.6z"></path>
	</g>
	<path id="XMLID_882_" class="st3 YSrNPVdi_67" d="M292.7,90.5h7.7"></path>
	<path id="XMLID_876_" class="st3 YSrNPVdi_68" d="M279,98.9h1.7"></path>
	<path id="XMLID_873_" class="st3 YSrNPVdi_69" d="M285.3,98.9h1.7"></path>
	<path id="XMLID_872_" class="st3 YSrNPVdi_70" d="M291.5,98.9h1.7"></path>
</g>
<path class="st2 YSrNPVdi_71" d="M191.5,240.6h-38.1c-13.7,0-24.9-11.1-24.9-24.9v-14.9h-8.8c-6.7,0-10.7-7.6-6.8-13.1l15.5-23.4
	c0-27.5,22.3-49.8,49.8-49.8h55.5l4.2,92v50.8c0,9.2-7.4,16.6-16.6,16.6h-29.9c-9.2,0-16.6-7.4-16.6-16.6v-10l-0.2-6.6"></path>
<path class="st2 YSrNPVdi_72" d="M145.1,165.9H165"></path>
<path class="st7 YSrNPVdi_73" d="M191.5,240.6h-38.2c-13.7,0-24.9-11.1-24.9-24.9v-14.9h-8.8c-6.7,0-10.7-7.6-6.8-13.1l15.5-23.4
	c0-27.5,22.3-49.8,49.8-49.8h55.5l4.2,92v50.8c0,9.2-7.4,16.6-16.6,16.6h-29.9c-9.2,0-16.6-7.4-16.6-16.6v-10"></path>
<path class="st7 YSrNPVdi_74" d="M145.1,165.9H165"></path>
<path class="st8 YSrNPVdi_75" d="M271.2,123.4c0-20.7-18.9-36.9-40.4-32.4c-12.7,2.7-22.8,13-25.3,25.7c-2.2,11.3,1.3,21.7,8.1,29
	c4.8,5.2,7.9,11.8,7.9,18.9v2h33.2v-2c0-7.1,3.1-13.7,7.9-19C267.9,139.8,271.2,132,271.2,123.4z"></path>
<path class="st2 YSrNPVdi_76" d="M249.6,199.8h-23.2c-2.8,0-5-2.2-5-5v-28.2h33.2v28.2C254.6,197.5,252.4,199.8,249.6,199.8z"></path>
<path class="st7 YSrNPVdi_77" d="M238,67v13.3"></path>
<path class="st7 YSrNPVdi_78" d="M271.2,123.4c0-20.7-18.9-36.9-40.4-32.4c-12.7,2.7-22.8,13-25.3,25.7c-2.2,11.3,1.3,21.7,8.1,29
	c4.8,5.2,7.9,11.8,7.9,18.9v2h33.2v-2c0-7.1,3.1-13.7,7.9-19C267.9,139.8,271.2,132,271.2,123.4z"></path>
<path class="st7 YSrNPVdi_79" d="M238,100.2c12.8,0,23.2,10.4,23.2,23.2"></path>
<path class="st7 YSrNPVdi_80" d="M249.6,199.8h-23.2c-2.8,0-5-2.2-5-5v-28.2h33.2v28.2C254.6,197.5,252.4,199.8,249.6,199.8z"></path>
<path class="st7 YSrNPVdi_81" d="M221.4,183.2h33.2"></path>
<path class="st7 YSrNPVdi_82" d="M211,76.6l7.1,7"></path>
<path class="st7 YSrNPVdi_83" d="M265,76.6l-7.1,7"></path>
<path class="st7 YSrNPVdi_84" d="M189.9,96.9h13.2"></path>
<path class="st7 YSrNPVdi_85" d="M256.3,257.2v3.3"></path>
<path class="st7 YSrNPVdi_86" d="M256.3,210.7v39.8"></path>
<path class="st7 YSrNPVdi_87" d="M266.2,214v-3.3"></path>
<path class="st7 YSrNPVdi_88" d="M266.2,260.5v-39.8"></path>
<style data-made-with="vivus-instant">.YSrNPVdi_0{stroke-dasharray:2104 2106;stroke-dashoffset:2105;animation:YSrNPVdi_draw 2000ms linear 0ms forwards;}.YSrNPVdi_1{stroke-dasharray:444 446;stroke-dashoffset:445;animation:YSrNPVdi_draw 2000ms linear 11ms forwards;}.YSrNPVdi_2{stroke-dasharray:392 394;stroke-dashoffset:393;animation:YSrNPVdi_draw 2000ms linear 22ms forwards;}.YSrNPVdi_3{stroke-dasharray:45 47;stroke-dashoffset:46;animation:YSrNPVdi_draw 2000ms linear 34ms forwards;}.YSrNPVdi_4{stroke-dasharray:123 125;stroke-dashoffset:124;animation:YSrNPVdi_draw 2000ms linear 45ms forwards;}.YSrNPVdi_5{stroke-dasharray:247 249;stroke-dashoffset:248;animation:YSrNPVdi_draw 2000ms linear 56ms forwards;}.YSrNPVdi_6{stroke-dasharray:20 22;stroke-dashoffset:21;animation:YSrNPVdi_draw 2000ms linear 68ms forwards;}.YSrNPVdi_7{stroke-dasharray:11 13;stroke-dashoffset:12;animation:YSrNPVdi_draw 2000ms linear 79ms forwards;}.YSrNPVdi_8{stroke-dasharray:11 13;stroke-dashoffset:12;animation:YSrNPVdi_draw 2000ms linear 90ms forwards;}.YSrNPVdi_9{stroke-dasharray:11 13;stroke-dashoffset:12;animation:YSrNPVdi_draw 2000ms linear 102ms forwards;}.YSrNPVdi_10{stroke-dasharray:11 13;stroke-dashoffset:12;animation:YSrNPVdi_draw 2000ms linear 113ms forwards;}.YSrNPVdi_11{stroke-dasharray:11 13;stroke-dashoffset:12;animation:YSrNPVdi_draw 2000ms linear 125ms forwards;}.YSrNPVdi_12{stroke-dasharray:11 13;stroke-dashoffset:12;animation:YSrNPVdi_draw 2000ms linear 136ms forwards;}.YSrNPVdi_13{stroke-dasharray:11 13;stroke-dashoffset:12;animation:YSrNPVdi_draw 2000ms linear 147ms forwards;}.YSrNPVdi_14{stroke-dasharray:11 13;stroke-dashoffset:12;animation:YSrNPVdi_draw 2000ms linear 159ms forwards;}.YSrNPVdi_15{stroke-dasharray:81 83;stroke-dashoffset:82;animation:YSrNPVdi_draw 2000ms linear 170ms forwards;}.YSrNPVdi_16{stroke-dasharray:128 130;stroke-dashoffset:129;animation:YSrNPVdi_draw 2000ms linear 181ms forwards;}.YSrNPVdi_17{stroke-dasharray:14 16;stroke-dashoffset:15;animation:YSrNPVdi_draw 2000ms linear 193ms forwards;}.YSrNPVdi_18{stroke-dasharray:44 46;stroke-dashoffset:45;animation:YSrNPVdi_draw 2000ms linear 204ms forwards;}.YSrNPVdi_19{stroke-dasharray:9 11;stroke-dashoffset:10;animation:YSrNPVdi_draw 2000ms linear 215ms forwards;}.YSrNPVdi_20{stroke-dasharray:44 46;stroke-dashoffset:45;animation:YSrNPVdi_draw 2000ms linear 227ms forwards;}.YSrNPVdi_21{stroke-dasharray:9 11;stroke-dashoffset:10;animation:YSrNPVdi_draw 2000ms linear 238ms forwards;}.YSrNPVdi_22{stroke-dasharray:17 19;stroke-dashoffset:18;animation:YSrNPVdi_draw 2000ms linear 250ms forwards;}.YSrNPVdi_23{stroke-dasharray:22 24;stroke-dashoffset:23;animation:YSrNPVdi_draw 2000ms linear 261ms forwards;}.YSrNPVdi_24{stroke-dasharray:22 24;stroke-dashoffset:23;animation:YSrNPVdi_draw 2000ms linear 272ms forwards;}.YSrNPVdi_25{stroke-dasharray:413 415;stroke-dashoffset:414;animation:YSrNPVdi_draw 2000ms linear 284ms forwards;}.YSrNPVdi_26{stroke-dasharray:7 9;stroke-dashoffset:8;animation:YSrNPVdi_draw 2000ms linear 295ms forwards;}.YSrNPVdi_27{stroke-dasharray:16 18;stroke-dashoffset:17;animation:YSrNPVdi_draw 2000ms linear 306ms forwards;}.YSrNPVdi_28{stroke-dasharray:663 665;stroke-dashoffset:664;animation:YSrNPVdi_draw 2000ms linear 318ms forwards;}.YSrNPVdi_29{stroke-dasharray:573 575;stroke-dashoffset:574;animation:YSrNPVdi_draw 2000ms linear 329ms forwards;}.YSrNPVdi_30{stroke-dasharray:448 450;stroke-dashoffset:449;animation:YSrNPVdi_draw 2000ms linear 340ms forwards;}.YSrNPVdi_31{stroke-dasharray:448 450;stroke-dashoffset:449;animation:YSrNPVdi_draw 2000ms linear 352ms forwards;}.YSrNPVdi_32{stroke-dasharray:44 46;stroke-dashoffset:45;animation:YSrNPVdi_draw 2000ms linear 363ms forwards;}.YSrNPVdi_33{stroke-dasharray:32 34;stroke-dashoffset:33;animation:YSrNPVdi_draw 2000ms linear 375ms forwards;}.YSrNPVdi_34{stroke-dasharray:192 194;stroke-dashoffset:193;animation:YSrNPVdi_draw 2000ms linear 386ms forwards;}.YSrNPVdi_35{stroke-dasharray:36 38;stroke-dashoffset:37;animation:YSrNPVdi_draw 2000ms linear 397ms forwards;}.YSrNPVdi_36{stroke-dasharray:59 61;stroke-dashoffset:60;animation:YSrNPVdi_draw 2000ms linear 409ms forwards;}.YSrNPVdi_37{stroke-dasharray:73 75;stroke-dashoffset:74;animation:YSrNPVdi_draw 2000ms linear 420ms forwards;}.YSrNPVdi_38{stroke-dasharray:79 81;stroke-dashoffset:80;animation:YSrNPVdi_draw 2000ms linear 431ms forwards;}.YSrNPVdi_39{stroke-dasharray:59 61;stroke-dashoffset:60;animation:YSrNPVdi_draw 2000ms linear 443ms forwards;}.YSrNPVdi_40{stroke-dasharray:105 107;stroke-dashoffset:106;animation:YSrNPVdi_draw 2000ms linear 454ms forwards;}.YSrNPVdi_41{stroke-dasharray:71 73;stroke-dashoffset:72;animation:YSrNPVdi_draw 2000ms linear 465ms forwards;}.YSrNPVdi_42{stroke-dasharray:37 39;stroke-dashoffset:38;animation:YSrNPVdi_draw 2000ms linear 477ms forwards;}.YSrNPVdi_43{stroke-dasharray:92 94;stroke-dashoffset:93;animation:YSrNPVdi_draw 2000ms linear 488ms forwards;}.YSrNPVdi_44{stroke-dasharray:24 26;stroke-dashoffset:25;animation:YSrNPVdi_draw 2000ms linear 500ms forwards;}.YSrNPVdi_45{stroke-dasharray:65 67;stroke-dashoffset:66;animation:YSrNPVdi_draw 2000ms linear 511ms forwards;}.YSrNPVdi_46{stroke-dasharray:26 28;stroke-dashoffset:27;animation:YSrNPVdi_draw 2000ms linear 522ms forwards;}.YSrNPVdi_47{stroke-dasharray:103 105;stroke-dashoffset:104;animation:YSrNPVdi_draw 2000ms linear 534ms forwards;}.YSrNPVdi_48{stroke-dasharray:93 95;stroke-dashoffset:94;animation:YSrNPVdi_draw 2000ms linear 545ms forwards;}.YSrNPVdi_49{stroke-dasharray:36 38;stroke-dashoffset:37;animation:YSrNPVdi_draw 2000ms linear 556ms forwards;}.YSrNPVdi_50{stroke-dasharray:78 80;stroke-dashoffset:79;animation:YSrNPVdi_draw 2000ms linear 568ms forwards;}.YSrNPVdi_51{stroke-dasharray:65 67;stroke-dashoffset:66;animation:YSrNPVdi_draw 2000ms linear 579ms forwards;}.YSrNPVdi_52{stroke-dasharray:65 67;stroke-dashoffset:66;animation:YSrNPVdi_draw 2000ms linear 590ms forwards;}.YSrNPVdi_53{stroke-dasharray:61 63;stroke-dashoffset:62;animation:YSrNPVdi_draw 2000ms linear 602ms forwards;}.YSrNPVdi_54{stroke-dasharray:22 24;stroke-dashoffset:23;animation:YSrNPVdi_draw 2000ms linear 613ms forwards;}.YSrNPVdi_55{stroke-dasharray:144 146;stroke-dashoffset:145;animation:YSrNPVdi_draw 2000ms linear 625ms forwards;}.YSrNPVdi_56{stroke-dasharray:163 165;stroke-dashoffset:164;animation:YSrNPVdi_draw 2000ms linear 636ms forwards;}.YSrNPVdi_57{stroke-dasharray:17 19;stroke-dashoffset:18;animation:YSrNPVdi_draw 2000ms linear 647ms forwards;}.YSrNPVdi_58{stroke-dasharray:17 19;stroke-dashoffset:18;animation:YSrNPVdi_draw 2000ms linear 659ms forwards;}.YSrNPVdi_59{stroke-dasharray:17 19;stroke-dashoffset:18;animation:YSrNPVdi_draw 2000ms linear 670ms forwards;}.YSrNPVdi_60{stroke-dasharray:17 19;stroke-dashoffset:18;animation:YSrNPVdi_draw 2000ms linear 681ms forwards;}.YSrNPVdi_61{stroke-dasharray:17 19;stroke-dashoffset:18;animation:YSrNPVdi_draw 2000ms linear 693ms forwards;}.YSrNPVdi_62{stroke-dasharray:17 19;stroke-dashoffset:18;animation:YSrNPVdi_draw 2000ms linear 704ms forwards;}.YSrNPVdi_63{stroke-dasharray:17 19;stroke-dashoffset:18;animation:YSrNPVdi_draw 2000ms linear 715ms forwards;}.YSrNPVdi_64{stroke-dasharray:17 19;stroke-dashoffset:18;animation:YSrNPVdi_draw 2000ms linear 727ms forwards;}.YSrNPVdi_65{stroke-dasharray:17 19;stroke-dashoffset:18;animation:YSrNPVdi_draw 2000ms linear 738ms forwards;}.YSrNPVdi_66{stroke-dasharray:17 19;stroke-dashoffset:18;animation:YSrNPVdi_draw 2000ms linear 750ms forwards;}.YSrNPVdi_67{stroke-dasharray:8 10;stroke-dashoffset:9;animation:YSrNPVdi_draw 2000ms linear 761ms forwards;}.YSrNPVdi_68{stroke-dasharray:2 4;stroke-dashoffset:3;animation:YSrNPVdi_draw 2000ms linear 772ms forwards;}.YSrNPVdi_69{stroke-dasharray:2 4;stroke-dashoffset:3;animation:YSrNPVdi_draw 2000ms linear 784ms forwards;}.YSrNPVdi_70{stroke-dasharray:2 4;stroke-dashoffset:3;animation:YSrNPVdi_draw 2000ms linear 795ms forwards;}.YSrNPVdi_71{stroke-dasharray:523 525;stroke-dashoffset:524;animation:YSrNPVdi_draw 2000ms linear 806ms forwards;}.YSrNPVdi_72{stroke-dasharray:20 22;stroke-dashoffset:21;animation:YSrNPVdi_draw 2000ms linear 818ms forwards;}.YSrNPVdi_73{stroke-dasharray:516 518;stroke-dashoffset:517;animation:YSrNPVdi_draw 2000ms linear 829ms forwards;}.YSrNPVdi_74{stroke-dasharray:20 22;stroke-dashoffset:21;animation:YSrNPVdi_draw 2000ms linear 840ms forwards;}.YSrNPVdi_75{stroke-dasharray:233 235;stroke-dashoffset:234;animation:YSrNPVdi_draw 2000ms linear 852ms forwards;}.YSrNPVdi_76{stroke-dasharray:129 131;stroke-dashoffset:130;animation:YSrNPVdi_draw 2000ms linear 863ms forwards;}.YSrNPVdi_77{stroke-dasharray:14 16;stroke-dashoffset:15;animation:YSrNPVdi_draw 2000ms linear 875ms forwards;}.YSrNPVdi_78{stroke-dasharray:233 235;stroke-dashoffset:234;animation:YSrNPVdi_draw 2000ms linear 886ms forwards;}.YSrNPVdi_79{stroke-dasharray:37 39;stroke-dashoffset:38;animation:YSrNPVdi_draw 2000ms linear 897ms forwards;}.YSrNPVdi_80{stroke-dasharray:129 131;stroke-dashoffset:130;animation:YSrNPVdi_draw 2000ms linear 909ms forwards;}.YSrNPVdi_81{stroke-dasharray:34 36;stroke-dashoffset:35;animation:YSrNPVdi_draw 2000ms linear 920ms forwards;}.YSrNPVdi_82{stroke-dasharray:10 12;stroke-dashoffset:11;animation:YSrNPVdi_draw 2000ms linear 931ms forwards;}.YSrNPVdi_83{stroke-dasharray:10 12;stroke-dashoffset:11;animation:YSrNPVdi_draw 2000ms linear 943ms forwards;}.YSrNPVdi_84{stroke-dasharray:14 16;stroke-dashoffset:15;animation:YSrNPVdi_draw 2000ms linear 954ms forwards;}.YSrNPVdi_85{stroke-dasharray:4 6;stroke-dashoffset:5;animation:YSrNPVdi_draw 2000ms linear 965ms forwards;}.YSrNPVdi_86{stroke-dasharray:40 42;stroke-dashoffset:41;animation:YSrNPVdi_draw 2000ms linear 977ms forwards;}.YSrNPVdi_87{stroke-dasharray:4 6;stroke-dashoffset:5;animation:YSrNPVdi_draw 2000ms linear 988ms forwards;}.YSrNPVdi_88{stroke-dasharray:40 42;stroke-dashoffset:41;animation:YSrNPVdi_draw 2000ms linear 1000ms forwards;}@keyframes YSrNPVdi_draw{100%{stroke-dashoffset:0;}}@keyframes YSrNPVdi_fade{0%{stroke-opacity:1;}94.44444444444444%{stroke-opacity:1;}100%{stroke-opacity:0;}}</style></svg>
